<?xml version="1.0" encoding="UTF-8" standalone="no"?>
<svg
   viewBox="0 0 310.27997 200.62"
   version="1.1"
   id="svg90"
   sodipodi:docname="2024-08-pt-vs-new-recall.svg"
   width="310.27997"
   height="200.62"
   inkscape:version="1.3.2 (091e20ef0f, 2023-11-25, custom)"
   xmlns:inkscape="http://www.inkscape.org/namespaces/inkscape"
   xmlns:sodipodi="http://sodipodi.sourceforge.net/DTD/sodipodi-0.dtd"
   xmlns="http://www.w3.org/2000/svg"
   xmlns:svg="http://www.w3.org/2000/svg">
  <defs
     id="defs90" />
  <sodipodi:namedview
     id="namedview90"
     pagecolor="#ffffff"
     bordercolor="#000000"
     borderopacity="0.25"
     inkscape:showpageshadow="2"
     inkscape:pageopacity="0.0"
     inkscape:pagecheckerboard="0"
     inkscape:deskcolor="#d1d1d1"
     inkscape:zoom="2.5272727"
     inkscape:cx="146.40288"
     inkscape:cy="105.2518"
     inkscape:window-width="1920"
     inkscape:window-height="1080"
     inkscape:window-x="0"
     inkscape:window-y="0"
     inkscape:window-maximized="1"
     inkscape:current-layer="svg90" />
  <g
     id="g90"
     transform="translate(-18.720038,5.0999999)">
    <g
       id="g89">
      <g
         id="g27">
        <g
           id="g26">
          <g
             id="g13">
            <line
               x1="51.532001"
               y1="176.89999"
               x2="46.532001"
               y2="176.89999"
               style="visibility:inherit"
               fill="#000000"
               stroke="#cccccc"
               stroke-width="1px"
               id="line1" />
            <line
               x1="51.532001"
               y1="162.15834"
               x2="46.532001"
               y2="162.15834"
               style="visibility:inherit"
               fill="#000000"
               stroke="#cccccc"
               stroke-width="1px"
               id="line2" />
            <line
               x1="51.532001"
               y1="147.41667"
               x2="46.532001"
               y2="147.41667"
               style="visibility:inherit"
               fill="#000000"
               stroke="#cccccc"
               stroke-width="1px"
               id="line3" />
            <line
               x1="51.532001"
               y1="132.675"
               x2="46.532001"
               y2="132.675"
               style="visibility:inherit"
               fill="#000000"
               stroke="#cccccc"
               stroke-width="1px"
               id="line4" />
            <line
               x1="51.532001"
               y1="117.93333"
               x2="46.532001"
               y2="117.93333"
               style="visibility:inherit"
               fill="#000000"
               stroke="#cccccc"
               stroke-width="1px"
               id="line5" />
            <line
               x1="51.532001"
               y1="103.19167"
               x2="46.532001"
               y2="103.19167"
               style="visibility:inherit"
               fill="#000000"
               stroke="#cccccc"
               stroke-width="1px"
               id="line6" />
            <line
               x1="51.532001"
               y1="88.449997"
               x2="46.532001"
               y2="88.449997"
               style="visibility:inherit"
               fill="#000000"
               stroke="#cccccc"
               stroke-width="1px"
               id="line7" />
            <line
               x1="51.532001"
               y1="73.708336"
               x2="46.532001"
               y2="73.708336"
               style="visibility:inherit"
               fill="#000000"
               stroke="#cccccc"
               stroke-width="1px"
               id="line8" />
            <line
               x1="51.532001"
               y1="58.966667"
               x2="46.532001"
               y2="58.966667"
               style="visibility:inherit"
               fill="#000000"
               stroke="#cccccc"
               stroke-width="1px"
               id="line9" />
            <line
               x1="51.532001"
               y1="44.224998"
               x2="46.532001"
               y2="44.224998"
               style="visibility:inherit"
               fill="#000000"
               stroke="#cccccc"
               stroke-width="1px"
               id="line10" />
            <line
               x1="51.532001"
               y1="29.483334"
               x2="46.532001"
               y2="29.483334"
               style="visibility:inherit"
               fill="#000000"
               stroke="#cccccc"
               stroke-width="1px"
               id="line11" />
            <line
               x1="51.532001"
               y1="14.741667"
               x2="46.532001"
               y2="14.741667"
               style="visibility:inherit"
               fill="#000000"
               stroke="#cccccc"
               stroke-width="1px"
               id="line12" />
            <line
               x1="51.532001"
               y1="0"
               x2="46.532001"
               y2="0"
               style="visibility:inherit"
               fill="#000000"
               stroke="#cccccc"
               stroke-width="1px"
               id="line13" />
          </g>
          <g
             transform="translate(41.532001)"
             id="g25">
            <text
               style="font-weight:200;font-size:12px;font-family:Roboto, sans-serif;text-anchor:end;visibility:hidden"
               x="0"
               y="176.89999"
               dx="0em"
               dy="0.30000001em"
               fill="#212121"
               stroke="none"
               stroke-width="1px"
               id="text13">0.1</text>
            <text
               style="font-weight:200;font-size:12px;font-family:Roboto, sans-serif;text-anchor:end;visibility:inherit"
               x="0"
               y="162.15834"
               dx="0em"
               dy="0.30000001em"
               fill="#212121"
               stroke="none"
               stroke-width="1px"
               id="text14">0.15</text>
            <text
               style="font-weight:200;font-size:12px;font-family:Roboto, sans-serif;text-anchor:end;visibility:hidden"
               x="0"
               y="147.41667"
               dx="0em"
               dy="0.30000001em"
               fill="#212121"
               stroke="none"
               stroke-width="1px"
               id="text15">0.2</text>
            <text
               style="font-weight:200;font-size:12px;font-family:Roboto, sans-serif;text-anchor:end;visibility:inherit"
               x="0"
               y="132.675"
               dx="0em"
               dy="0.30000001em"
               fill="#212121"
               stroke="none"
               stroke-width="1px"
               id="text16">0.25</text>
            <text
               style="font-weight:200;font-size:12px;font-family:Roboto, sans-serif;text-anchor:end;visibility:hidden"
               x="0"
               y="117.93333"
               dx="0em"
               dy="0.30000001em"
               fill="#212121"
               stroke="none"
               stroke-width="1px"
               id="text17">0.3</text>
            <text
               style="font-weight:200;font-size:12px;font-family:Roboto, sans-serif;text-anchor:end;visibility:inherit"
               x="0"
               y="103.19167"
               dx="0em"
               dy="0.30000001em"
               fill="#212121"
               stroke="none"
               stroke-width="1px"
               id="text18">0.35</text>
            <text
               style="font-weight:200;font-size:12px;font-family:Roboto, sans-serif;text-anchor:end;visibility:hidden"
               x="0"
               y="88.449997"
               dx="0em"
               dy="0.30000001em"
               fill="#212121"
               stroke="none"
               stroke-width="1px"
               id="text19">0.4</text>
            <text
               style="font-weight:200;font-size:12px;font-family:Roboto, sans-serif;text-anchor:end;visibility:inherit"
               x="0"
               y="73.708336"
               dx="0em"
               dy="0.30000001em"
               fill="#212121"
               stroke="none"
               stroke-width="1px"
               id="text20">0.45</text>
            <text
               style="font-weight:200;font-size:12px;font-family:Roboto, sans-serif;text-anchor:end;visibility:hidden"
               x="0"
               y="58.966667"
               dx="0em"
               dy="0.30000001em"
               fill="#212121"
               stroke="none"
               stroke-width="1px"
               id="text21">0.5</text>
            <text
               style="font-weight:200;font-size:12px;font-family:Roboto, sans-serif;text-anchor:end;visibility:inherit"
               x="0"
               y="44.224998"
               dx="0em"
               dy="0.30000001em"
               fill="#212121"
               stroke="none"
               stroke-width="1px"
               id="text22">0.55</text>
            <text
               style="font-weight:200;font-size:12px;font-family:Roboto, sans-serif;text-anchor:end;visibility:hidden"
               x="0"
               y="29.483334"
               dx="0em"
               dy="0.30000001em"
               fill="#212121"
               stroke="none"
               stroke-width="1px"
               id="text23">0.6</text>
            <text
               style="font-weight:200;font-size:12px;font-family:Roboto, sans-serif;text-anchor:end;visibility:inherit"
               x="0"
               y="14.741667"
               dx="0em"
               dy="0.30000001em"
               fill="#212121"
               stroke="none"
               stroke-width="1px"
               id="text24">0.65</text>
            <text
               style="font-weight:200;font-size:12px;font-family:Roboto, sans-serif;text-anchor:end;visibility:hidden"
               x="0"
               y="0"
               dx="0em"
               dy="0.30000001em"
               fill="#212121"
               stroke="none"
               stroke-width="1px"
               id="text25">0.7</text>
          </g>
          <line
             x1="51.532001"
             y1="0"
             x2="51.532001"
             y2="176.89999"
             fill="#000000"
             stroke="#cccccc"
             stroke-width="1px"
             id="line25" />
        </g>
      </g>
      <g
         transform="translate(51)"
         clip-path="url(#clip_0)"
         id="g70">
        <clipPath
           id="clip_0">
          <rect
             width="278"
             height="176"
             id="rect27"
             x="0"
             y="0" />
        </clipPath>
        <g
           id="g50">
          <g
             id="g49">
            <g
               id="g35">
              <line
                 x1="0"
                 y1="0"
                 x2="0"
                 y2="176.89999"
                 fill="#000000"
                 stroke="#424242"
                 stroke-width="1px"
                 opacity="0.25"
                 id="line27" />
              <line
                 x1="34.808498"
                 y1="0"
                 x2="34.808498"
                 y2="176.89999"
                 fill="#000000"
                 stroke="#424242"
                 stroke-width="1px"
                 opacity="0.25"
                 id="line28" />
              <line
                 x1="69.616997"
                 y1="0"
                 x2="69.616997"
                 y2="176.89999"
                 fill="#000000"
                 stroke="#424242"
                 stroke-width="1px"
                 opacity="0.25"
                 id="line29" />
              <line
                 x1="104.4255"
                 y1="0"
                 x2="104.4255"
                 y2="176.89999"
                 fill="#000000"
                 stroke="#424242"
                 stroke-width="1px"
                 opacity="0.25"
                 id="line30" />
              <line
                 x1="139.23399"
                 y1="0"
                 x2="139.23399"
                 y2="176.89999"
                 fill="#000000"
                 stroke="#424242"
                 stroke-width="1px"
                 opacity="0.25"
                 id="line31" />
              <line
                 x1="174.0425"
                 y1="0"
                 x2="174.0425"
                 y2="176.89999"
                 fill="#000000"
                 stroke="#424242"
                 stroke-width="1px"
                 opacity="0.25"
                 id="line32" />
              <line
                 x1="208.851"
                 y1="0"
                 x2="208.851"
                 y2="176.89999"
                 fill="#000000"
                 stroke="#424242"
                 stroke-width="1px"
                 opacity="0.25"
                 id="line33" />
              <line
                 x1="243.6595"
                 y1="0"
                 x2="243.6595"
                 y2="176.89999"
                 fill="#000000"
                 stroke="#424242"
                 stroke-width="1px"
                 opacity="0.25"
                 id="line34" />
              <line
                 x1="278.46799"
                 y1="0"
                 x2="278.46799"
                 y2="176.89999"
                 fill="#000000"
                 stroke="#424242"
                 stroke-width="1px"
                 opacity="0.25"
                 id="line35" />
            </g>
            <g
               id="g48">
              <line
                 x1="0"
                 y1="176.89999"
                 x2="278.46799"
                 y2="176.89999"
                 fill="#000000"
                 stroke="#424242"
                 stroke-width="1px"
                 opacity="0.25"
                 id="line36" />
              <line
                 x1="0"
                 y1="162.15834"
                 x2="278.46799"
                 y2="162.15834"
                 fill="#000000"
                 stroke="#424242"
                 stroke-width="1px"
                 opacity="0.25"
                 id="line37" />
              <line
                 x1="0"
                 y1="147.41667"
                 x2="278.46799"
                 y2="147.41667"
                 fill="#000000"
                 stroke="#424242"
                 stroke-width="1px"
                 opacity="0.25"
                 id="line38" />
              <line
                 x1="0"
                 y1="132.675"
                 x2="278.46799"
                 y2="132.675"
                 fill="#000000"
                 stroke="#424242"
                 stroke-width="1px"
                 opacity="0.25"
                 id="line39" />
              <line
                 x1="0"
                 y1="117.93333"
                 x2="278.46799"
                 y2="117.93333"
                 fill="#000000"
                 stroke="#424242"
                 stroke-width="1px"
                 opacity="0.25"
                 id="line40" />
              <line
                 x1="0"
                 y1="103.19167"
                 x2="278.46799"
                 y2="103.19167"
                 fill="#000000"
                 stroke="#424242"
                 stroke-width="1px"
                 opacity="0.25"
                 id="line41" />
              <line
                 x1="0"
                 y1="88.449997"
                 x2="278.46799"
                 y2="88.449997"
                 fill="#000000"
                 stroke="#424242"
                 stroke-width="1px"
                 opacity="0.25"
                 id="line42" />
              <line
                 x1="0"
                 y1="73.708336"
                 x2="278.46799"
                 y2="73.708336"
                 fill="#000000"
                 stroke="#424242"
                 stroke-width="1px"
                 opacity="0.25"
                 id="line43" />
              <line
                 x1="0"
                 y1="58.966667"
                 x2="278.46799"
                 y2="58.966667"
                 fill="#000000"
                 stroke="#424242"
                 stroke-width="1px"
                 opacity="0.25"
                 id="line44" />
              <line
                 x1="0"
                 y1="44.224998"
                 x2="278.46799"
                 y2="44.224998"
                 fill="#000000"
                 stroke="#424242"
                 stroke-width="1px"
                 opacity="0.25"
                 id="line45" />
              <line
                 x1="0"
                 y1="29.483334"
                 x2="278.46799"
                 y2="29.483334"
                 fill="#000000"
                 stroke="#424242"
                 stroke-width="1px"
                 opacity="0.25"
                 id="line46" />
              <line
                 x1="0"
                 y1="14.741667"
                 x2="278.46799"
                 y2="14.741667"
                 fill="#000000"
                 stroke="#424242"
                 stroke-width="1px"
                 opacity="0.25"
                 id="line47" />
              <line
                 x1="0"
                 y1="0"
                 x2="278.46799"
                 y2="0"
                 fill="#000000"
                 stroke="#424242"
                 stroke-width="1px"
                 opacity="0.25"
                 id="line48" />
            </g>
          </g>
        </g>
        <g
           id="g52">
          <g
             id="g51">
            <line
               x1="0"
               y1="206.38333"
               x2="278.46799"
               y2="206.38333"
               fill="#000000"
               stroke="#999999"
               stroke-width="1.5px"
               id="line50" />
          </g>
        </g>
        <g
           id="g54">
          <g
             id="g53">
            <line
               x1="34.808498"
               y1="0"
               x2="34.808498"
               y2="176.89999"
               fill="#000000"
               stroke="#999999"
               stroke-width="1.5px"
               id="line52" />
          </g>
        </g>
        <g
           id="g69">
          <g
             id="g61">
            <g
               id="g60">
              <g
                 id="g59">
                <g
                   id="g55">
                  <path
                     style="fill:none"
                     stroke="#33bbee"
                     stroke-width="2px"
                     d="m 35.50467,40.212313 0.69617,-15.266155 0.69617,56.565456 0.69617,35.892956 0.69617,21.53156 0.69617,14.22282 0.69617,9.40916 0.69617,7.68335 0.69617,5.88917 0.69617,4.63468 4.87319,-0.91945 0.69617,-13.69864 0.69617,-6.30675 0.69617,-14.18856 0.69617,-9.80255 0.69617,-4.03339 0.69617,4.07163 0.69617,0.10091 0.69617,-5.76486 0.69617,-8.38962 0.69617,-8.91729 0.69617,-9.11533 0.69617,-7.041855 0.69617,-7.063737 0.69617,-5.95766 0.69617,-5.299463 0.69617,-5.812659 0.69617,-3.985337 0.69617,-4.896684 0.69617,-3.313313 0.69617,-2.736388 0.69617,-2.466125 0.69617,-3.452412 0.69617,-2.882866 0.69617,-2.541254 0.69617,-2.314049 0.69617,-2.489519 0.69617,-2.559936 0.69617,-1.806939 0.69617,-2.260054 0.69617,-0.763937 0.69617,-1.355913 0.69617,-0.318405 0.69617,-1.224495 0.69617,-0.509018 0.69617,0.141875 0.69617,-0.212762 0.69617,-0.974999 0.69617,-0.471715 0.69617,-0.763963 0.69617,-0.879284 0.69617,-0.281225 0.69617,-0.294342 0.69617,-1.072322 0.69617,-1.058632 0.69617,0.233333 0.69617,-0.680449 0.69617,-0.704331 0.69617,-0.231159 0.69617,-0.493668 0.69617,0.42777 0.69617,-0.276309 0.69617,0.406642 0.69617,0.509599 0.69617,-0.328775 0.69617,-0.410612 0.69617,0.630431 0.69617,-0.294819 0.69617,-0.662013 0.69617,0.868276 0.69617,-0.330167 0.69617,-0.60325 0.69617,-0.163646 0.69617,0.191563 0.69617,-0.90366 0.69617,-0.746322 0.69617,0.961089 0.696169,-0.463465 0.69617,-0.275271 0.69617,0.658979 0.69617,-0.438956 0.69617,-0.432206 0.69617,0.933757 0.69617,0.582073 0.69617,0.01052 0.69617,-0.281554 0.69617,-0.190296 0.696171,-0.157702 0.69617,0.533858 0.69617,-0.04229 0.69617,0.09992 0.69617,-0.708505 0.69617,-0.632933 0.69617,-0.0631 0.69617,-0.654134 0.69617,-0.680707 0.69617,0.111194 0.69617,-0.24459 0.69617,-0.210402 0.69617,0.305966 0.69617,-0.0805 0.69617,0.146026 0.69617,0.602276 0.69617,0.249275 0.69617,0.350537 0.69617,0.269488 0.69617,0.07596 0.69617,0.378527 0.69617,-0.159071 0.69617,-0.378442 0.69617,-0.461185 0.69617,-0.630885 0.69617,-0.105199 0.69617,-0.467941 0.69617,0.0612 0.69617,-0.410165 0.69617,-0.0466 0.69617,0.456918 0.69617,-0.07112 0.69617,-3.1e-5 0.69617,0.07958 0.69617,0.03152 0.69617,0.08557 0.69617,0.352682 0.69617,0.192402 0.69617,0.286968 0.69617,-0.229973 0.69617,-0.142113 0.69617,-0.175369 0.69617,-0.324708 0.69617,-0.240642 0.69617,-0.173827 0.69617,0.425264 0.69617,0.02422 0.69617,-0.142719 0.69617,0.100047 0.69617,0.334755 0.69617,0.704317 0.69617,-0.07106 0.69617,-0.08961 0.69617,0.281115 0.69617,-0.15475 0.69617,-0.05879 0.69617,0.03908 0.69617,-0.200399 0.69617,0.101206 0.69617,-0.0755 0.69617,0.01461 0.69617,-0.184391 0.69617,-0.298037 0.69617,-0.03974 0.69617,-0.08058 0.69617,0.284227 0.69617,0.185339 0.69617,0.09044 0.69617,0.491807 0.69617,0.103863 0.69617,-0.54012 0.69617,0.281049 0.69617,-0.190781 0.69617,0.04087 0.69617,0.174472 0.69617,-0.698876 0.69617,-0.243936 0.69617,-0.192714 0.69617,-0.125679 0.69617,0.0075 0.69617,-0.222946 0.69617,-0.200652 0.69617,-0.378125 0.69617,0.32601 0.69617,0.105895 0.69617,-0.352546 0.69617,0.06747 0.69617,-0.195786 0.69617,-0.508188 0.69617,0.160011 0.69617,0.17821 0.69617,-0.138277 0.69617,0.208713 0.69617,-0.397993 0.69617,0.330833 0.69617,-0.34882 0.69617,-0.447793 0.69617,-0.0212 0.69617,-0.300355 0.69617,0.157189 0.69617,0.07248 0.69617,-0.262034 0.69617,0.317866 0.69617,0.231831 0.69617,-0.227707 0.69617,0.664823 0.69617,0.567088 0.69617,0.01653 0.69617,0.296152 0.69617,0.01976 0.69617,-0.154692 0.69617,0.199541 0.69617,0.0018 0.69617,-0.164076 0.69617,0.01213 0.69617,-0.02918 0.69617,0.260907 0.69617,0.52788 0.69617,-0.187103 0.69617,0.03622 0.69617,0.128125 0.69617,-0.321041 0.69617,-0.277437 0.69617,0.228526 0.69617,-0.238346 0.69617,-0.08803 0.69617,0.179345 0.69617,-0.36015 0.69617,-0.160799 0.69617,-0.09106 0.69617,-0.231139 0.69617,0.368671 0.69617,-0.09571 0.69617,0.160935 0.69617,-0.102229 0.69617,0.04391 0.69617,-0.222587 0.69617,-0.4073 0.69617,-0.332075 0.69617,-0.0173 0.69617,-0.337234 0.69617,-0.093 0.69617,0.05605 0.69617,-0.09314 0.69617,-0.04373 0.69617,-0.03228 0.69617,-0.17971 0.69617,-0.253432 0.69617,-0.233395 0.69617,-0.0096 0.69617,0.209858 0.69617,-0.391358 0.69617,-0.323625 0.69617,0.387739 0.69617,0.215701 0.69617,-0.03938 0.69617,0.134973 0.69617,0.150075 0.69617,-0.157996 0.69617,0.04738 0.69617,0.05326 0.69617,-0.345672 0.69617,-0.393362 0.69617,-0.184202 0.69617,0.02645 0.69617,-0.08116 0.69617,-0.175053 0.69617,-0.209144 0.69617,0.127538 0.69617,0.02781 0.69617,-0.07905 0.69617,-0.08677 0.69617,-0.142663 0.69617,-0.09243 0.69617,-0.169275 0.69617,-0.157359 0.69617,-0.194104 0.69617,-0.128699 0.69617,-0.127328 0.69617,-0.241078 0.69617,-0.160068 0.69617,0.160796 0.69617,0.231693 0.69617,0.190538 0.69617,0.270255 0.69617,0.113207 0.69617,0.133139 0.69617,0.159922 0.69617,0.161324 0.69617,-0.04291 0.69617,-0.164219 0.69617,-0.224749 0.69617,-0.06842 0.69617,0.04574 0.69617,0.04706 0.69617,-0.130709 0.69617,-0.203141 0.69617,-0.222923 0.69617,-0.06294 0.69617,0.0041 0.69617,-0.03406 0.69617,-0.131488 0.69617,-0.155194 0.69617,-0.161197 0.69617,-0.128567 0.69617,-0.02637 0.69617,-0.06308"
                     fill="none"
                     id="path54" />
                </g>
                <g
                   id="g56">
                  <path
                     style="fill:none"
                     stroke="#0077bb"
                     stroke-width="2px"
                     d="m 49.42807,179.11252 0.69617,-6.54976 0.69617,-5.7616 0.69617,-4.71797 0.69617,-4.86858 0.69617,-5.02307 0.69617,-2.46689 0.69617,-4.37951 0.69617,-3.60069 0.69617,-3.60876 0.69617,-4.65436 0.69617,-3.52595 0.69617,-2.9184 0.69617,-3.3298 0.69617,-3.27331 0.69617,-2.31413 0.69617,-1.73165 0.69617,-2.043 0.69617,-1.57461 0.69617,-2.12917 0.69617,-2.2885 0.69617,-2.75146 0.69617,-1.87777 0.69617,-2.92166 0.69617,-2.797753 0.69617,-1.951658 0.69617,-0.923038 0.69617,-1.110482 0.69617,-1.388911 0.69617,-0.984741 0.69617,-1.358637 0.69617,-0.416854 0.69617,-0.765781 0.69617,-1.390076 0.69617,0.939142 0.69617,-0.353264 0.69617,-1.682361 0.69617,-0.465533 0.69617,0.542229 0.69617,-0.835726 0.69617,-1.333039 0.69617,-1.578739 0.69617,0.03117 0.69617,-0.359529 0.69617,-0.151129 0.69617,-0.54413 0.69617,-0.01807 0.69617,0.304473 0.69617,0.02202 0.69617,-0.74458 0.69617,-0.802192 0.69617,-1.692971 0.69617,-1.155687 0.69617,-1.195163 0.69617,-0.265641 0.69617,0.02756 0.69617,0.355998 0.69617,-0.658436 0.69617,-0.931996 0.69617,-0.658275 0.69617,-1.06926 0.69617,-0.640573 0.69617,-0.05927 0.696169,-0.368862 0.69617,1.369146 0.69617,1.02992 0.69617,-1.379817 0.69617,-0.578076 0.69617,-0.936599 0.69617,-0.323092 0.69617,-0.602438 0.69617,-0.632706 0.69617,-0.143961 0.696171,-0.422936 0.69617,-0.421918 0.69617,-0.436038 0.69617,-0.502997 0.69617,-0.686799 0.69617,-0.147252 0.69617,-0.971053 0.69617,-0.543133 0.69617,-0.170686 0.69617,-0.814056 0.69617,-0.497071 0.69617,-0.481859 0.69617,0.404847 0.69617,-0.543147 0.69617,-0.500331 0.69617,-0.780513 0.69617,0.52966 0.69617,-0.161037 0.69617,-0.340114 0.69617,-0.174015 0.69617,-0.644861 0.69617,-0.446519 0.69617,-0.150962 0.69617,-0.618215 0.69617,1.297821 0.69617,-1.134324 0.69617,-0.73785 0.69617,-0.09356 0.69617,-0.506702 0.69617,0.129804 0.69617,-0.921876 0.69617,-0.5779 0.69617,-0.393921 0.69617,-0.417624 0.69617,0.39395 0.69617,-0.674414 0.69617,-0.319216 0.69617,1.194835 0.69617,-0.891779 0.69617,-0.568208 0.69617,0.922684 0.69617,-0.255162 0.69617,-0.683395 0.69617,-0.276291 0.69617,-0.777004 0.69617,-0.492625 0.69617,-0.181846 0.69617,-0.201104 0.69617,0.139489 0.69617,-0.522503 0.69617,0.420144 0.69617,-0.845428 0.69617,-0.272643 0.69617,1.156261 0.69617,-0.05644 0.69617,0.213374 0.69617,-0.141125 0.69617,-0.09252 0.69617,-0.04317 0.69617,-0.303907 0.69617,0.468284 0.69617,0.09419 0.69617,0.406434 0.69617,-0.398121 0.69617,-0.353001 0.69617,0.591859 0.69617,-0.904934 0.69617,-0.07913 0.69617,0.215954 0.69617,-0.742033 0.69617,0.469638 0.69617,0.382281 0.69617,-0.626537 0.69617,-0.50934 0.69617,-0.105196 0.69617,-0.146272 0.69617,0.822141 0.69617,-0.0119 0.69617,-0.207067 0.69617,-0.513625 0.69617,-0.478479 0.69617,-0.715734 0.69617,-0.437188 0.69617,-0.0064 0.69617,0.304447 0.69617,1.404983 0.69617,-0.842983 0.69617,-0.6381 0.69617,0.112967 0.69617,-1.223606 0.69617,-1.39372 0.69617,-0.07089 0.69617,-0.387524 0.69617,-0.530684 0.69617,0.873605 0.69617,0.07864 0.69617,-0.302773 0.69617,-0.404582 0.69617,-0.490606 0.69617,0.02576 0.69617,-0.360685 0.69617,-0.350562 0.69617,-0.02834 0.69617,0.08948 0.69617,-0.09755 0.69617,-0.771511 0.69617,-0.401295 0.69617,0.862392 0.69617,0.64967 0.69617,-0.242304 0.69617,-0.321561 0.69617,-0.272304 0.69617,-0.626588 0.69617,0.707982 0.69617,0.02835 0.69617,-0.376635 0.69617,0.08618 0.69617,0.42222 0.69617,-0.03926 0.69617,0.06963 0.69617,-0.167597 0.69617,-0.71839 0.69617,-0.08578 0.69617,-0.295968 0.69617,0.09008 0.69617,0.850884 0.69617,-0.492258 0.69617,-0.672707 0.69617,-0.112474 0.69617,0.152624 0.69617,-0.287788 0.69617,-0.09833 0.69617,-0.346766 0.69617,-0.340984 0.69617,0.03217 0.69617,0.867462 0.69617,0.0026 0.69617,-0.08872 0.69617,-0.376743 0.69617,0.666312 0.69617,-0.260938 0.69617,-0.666774 0.69617,-0.12335 0.69617,-0.392288 0.69617,0.387857 0.69617,0.0734 0.69617,0.112057 0.69617,-0.486457 0.69617,-0.247055 0.69617,0.156807 0.69617,0.537382 0.69617,-0.0618 0.69617,0.04757 0.69617,-0.340467 0.69617,-0.17581 0.69617,-0.04649 0.69617,0.501245 0.69617,-0.508267 0.69617,-0.220688 0.69617,-0.06447 0.69617,-0.03827 0.69617,0.247123 0.69617,0.120987 0.69617,-0.220439 0.69617,0.295449 0.69617,0.179814 0.69617,0.74177 0.69617,0.414921 0.69617,0.07476 0.69617,-0.587538 0.69617,-0.298815 0.69617,-0.136848 0.69617,-0.36758 0.69617,-0.166896 0.69617,0.349537 0.69617,0.08491 0.69617,-0.46932 0.69617,-0.296197 0.69617,-0.05961 0.69617,-0.231725 0.69617,-0.139561 0.69617,-0.08551 0.69617,-0.340538 0.69617,-0.157887 0.69617,0.06988 0.69617,-0.143191 0.69617,-0.04838 0.69617,0.134536 0.69617,0.188304 0.69617,-0.317296 0.69617,-0.167633 0.69617,-0.0049 0.69617,0.02475 0.69617,-0.08681 0.69617,0.03656 0.69617,0.176489 0.69617,0.216333 0.69617,0.229194 0.69617,0.200673 0.69617,0.252546 0.69617,0.419522 0.69617,0.137281 0.69617,0.122667 0.69617,-0.02168 0.69617,-0.04841 0.69617,-0.06067 0.69617,-0.107492"
                     fill="none"
                     id="path55" />
                </g>
                <g
                   id="g57">
                  <path
                     style="fill:none"
                     stroke="#cc3311"
                     stroke-width="2px"
                     d="m 35.50467,72.378634 0.69617,-23.277871 0.69617,8.187082 0.69617,-8.004469 0.69617,-2.84579 0.69617,-0.201011 0.69617,6.420358 0.69617,3.916787 0.69617,12.200245 0.69617,20.933521 0.69617,16.953174 0.69617,13.84919 0.69617,11.16738 0.69617,9.52259 0.69617,8.10703 0.69617,6.97761 0.69617,5.70231 0.69617,0.0573 0.69617,-1.83334 0.69617,-0.98827 0.69617,-2.49558 0.69617,-0.83781 0.69617,-4.04563 0.69617,-7.06794 0.69617,-7.50867 0.69617,-10.22234 0.69617,-5.87734 0.69617,-6.71818 0.69617,-8.0075 0.69617,-6.26215 0.69617,-7.223424 0.69617,-6.133295 0.69617,-6.054289 0.69617,-5.731332 0.69617,-5.916708 0.69617,-3.801982 0.69617,-4.421129 0.69617,-2.205134 0.69617,-2.427682 0.69617,-1.821706 0.69617,-1.85547 0.69617,-2.612914 0.69617,-2.438305 0.69617,-1.390055 0.69617,-1.41562 0.69617,-1.867811 0.69617,-1.244997 0.69617,0.379035 0.69617,-1.681378 0.69617,-0.864742 0.69617,-0.869834 0.69617,-0.908797 0.69617,-0.442529 0.69617,-0.530492 0.69617,-0.603971 0.69617,-1.090458 0.69617,-0.996212 0.69617,-0.943993 0.69617,0.218464 0.69617,-0.186258 0.69617,0.155503 0.69617,-0.680927 0.69617,-0.10339 0.69617,-0.604576 0.69617,-0.377225 0.69617,-0.880666 0.69617,-0.619224 0.69617,-0.475764 0.69617,-1.296712 0.69617,-0.902827 0.69617,-0.753438 0.69617,-0.09336 0.69617,-0.308187 0.69617,-0.700306 0.69617,-0.454436 0.69617,-1.212943 0.69617,-0.672489 0.69617,0.319939 0.69617,0.188251 0.69617,0.05057 0.69617,0.225693 0.69617,-0.01716 0.69617,0.15116 0.696169,-0.547481 0.69617,0.816805 0.69617,-0.919102 0.69617,-0.26811 0.69617,0.517385 0.69617,-0.909583 0.69617,0.450743 0.69617,0.325463 0.69617,-1.012984 0.69617,0.405715 0.696171,0.07206 0.69617,-0.561401 0.69617,-0.02849 0.69617,-0.06574 0.69617,0.170516 0.69617,0.07327 0.69617,-0.01455 0.69617,-0.593933 0.69617,-0.09729 0.69617,-0.461121 0.69617,0.08474 0.69617,-0.02132 0.69617,0.405376 0.69617,0.388425 0.69617,-0.540825 0.69617,-0.386499 0.69617,-0.0058 0.69617,0.345896 0.69617,0.06305 0.69617,-0.04025 0.69617,-0.151213 0.69617,-0.03261 0.69617,0.476004 0.69617,-0.08844 0.69617,-0.200186 0.69617,-0.811997 0.69617,0.526967 0.69617,0.47427 0.69617,0.386154 0.69617,-0.09353 0.69617,-0.02197 0.69617,0.916915 0.69617,-0.191659 0.69617,0.258259 0.69617,-0.01434 0.69617,0.01569 0.69617,0.28419 0.69617,-0.437679 0.69617,0.667196 0.69617,0.420628 0.69617,-0.95202 0.69617,0.354654 0.69617,-0.998127 0.69617,-0.781267 0.69617,0.267452 0.69617,0.169947 0.69617,-0.632189 0.69617,0.212339 0.69617,0.07052 0.69617,-0.172106 0.69617,-0.179955 0.69617,-0.665241 0.69617,0.244802 0.69617,0.106221 0.69617,-0.408861 0.69617,-0.363258 0.69617,-0.09873 0.69617,0.0562 0.69617,0.242811 0.69617,-0.300965 0.69617,-0.0123 0.69617,0.02313 0.69617,0.32538 0.69617,0.488021 0.69617,-0.290198 0.69617,-0.54068 0.69617,-0.230107 0.69617,-0.22744 0.69617,-0.241846 0.69617,-0.08263 0.69617,-0.260405 0.69617,-0.06719 0.69617,0.334603 0.69617,0.519614 0.69617,0.01951 0.69617,-0.10303 0.69617,0.28053 0.69617,0.252477 0.69617,-0.01394 0.69617,0.745761 0.69617,0.182942 0.69617,-0.180013 0.69617,0.148153 0.69617,-0.360803 0.69617,-0.215634 0.69617,0.199237 0.69617,-0.299201 0.69617,-0.103584 0.69617,0.272662 0.69617,-0.252578 0.69617,0.329915 0.69617,0.411908 0.69617,-0.08333 0.69617,0.0792 0.69617,-0.178144 0.69617,-0.284159 0.69617,0.08479 0.69617,-0.390707 0.69617,-0.241368 0.69617,-0.03915 0.69617,-0.219212 0.69617,0.03828 0.69617,-0.312566 0.69617,-0.434624 0.69617,-0.281483 0.69617,-0.391022 0.69617,-0.110745 0.69617,-0.737396 0.69617,0.381822 0.69617,0.280546 0.69617,0.769334 0.69617,0.956573 0.69617,0.493257 0.69617,0.264673 0.69617,0.05423 0.69617,-0.03021 0.69617,0.754121 0.69617,0.280978 0.69617,0.05888 0.69617,-0.0101 0.69617,-0.197491 0.69617,-0.213416 0.69617,0.0432 0.69617,0.326345 0.69617,-0.217531 0.69617,-0.195778 0.69617,-0.01817 0.69617,-0.357474 0.69617,-0.506293 0.69617,-0.248691 0.69617,-0.401901 0.69617,-0.784796 0.69617,-0.26613 0.69617,-0.04994 0.69617,-0.171724 0.69617,-0.199957 0.69617,0.313886 0.69617,0.271588 0.69617,0.306935 0.69617,0.181599 0.69617,0.0399 0.69617,-0.328796 0.69617,-0.178277 0.69617,-0.171949 0.69617,-0.344036 0.69617,-0.281035 0.69617,0.09173 0.69617,0.01357 0.69617,-0.297955 0.69617,-0.09008 0.69617,0.120004 0.69617,0.06142 0.69617,0.164955 0.69617,0.366638 0.69617,0.0372 0.69617,0.159671 0.69617,0.143705 0.69617,0.250216 0.69617,-0.393661 0.69617,-0.24668 0.69617,0.369423 0.69617,0.266143 0.69617,0.420852 0.69617,0.343385 0.69617,-0.09782 0.69617,-0.41383 0.69617,-0.22798 0.69617,-0.420115 0.69617,-0.263414 0.69617,-0.0413 0.69617,0.192209 0.69617,0.126992 0.69617,0.355468 0.69617,0.411909 0.69617,0.227134 0.69617,-0.14024 0.69617,0.119086 0.69617,-0.006 0.69617,-0.289358 0.69617,-0.261014 0.69617,-0.426553 0.69617,-0.315498 0.69617,-0.08287 0.69617,-0.06603 0.69617,0.0028 0.69617,0.06943 0.69617,0.154474 0.69617,0.287917 0.69617,0.184828 0.69617,0.177844 0.69617,0.206052 0.69617,0.14535 0.69617,-0.04166 0.69617,-0.519844 0.69617,-0.467859 0.69617,-0.111498 0.69617,-0.279017 0.69617,-0.261435 0.69617,-0.01122 0.69617,-0.01009 0.69617,-0.112573 0.69617,-0.08982 0.69617,-0.126829 0.69617,-0.06815 0.69617,-0.02124 0.69617,0.0098 0.69617,0.03172"
                     fill="none"
                     id="path56" />
                </g>
                <g
                   id="g58">
                  <path
                     style="fill:none"
                     stroke="#ff7043"
                     stroke-width="2px"
                     d="m 51.51658,180.05611 0.69617,-4.36129 0.69617,-4.4261 0.69617,-4.60727 0.69617,-5.0772 0.69617,-5.2074 0.69617,-4.43726 0.69617,-4.15041 0.69617,-3.73261 0.69617,-3.57212 0.69617,-3.0408 0.69617,-3.32807 0.69617,-3.95574 0.69617,-3.36774 0.69617,-3.46071 0.69617,-3.11354 0.69617,-3.3214 0.69617,-3.06886 0.69617,-3.13697 0.69617,-2.76659 0.69617,-2.62235 0.69617,-2.55749 0.69617,-2.38306 0.69617,-1.522358 0.69617,-0.385919 0.69617,-1.499475 0.69617,-2.164065 0.69617,-1.322605 0.69617,-2.704161 0.69617,-2.200458 0.69617,-1.092815 0.69617,-1.663607 0.69617,-0.448227 0.69617,-0.66563 0.69617,-1.363184 0.69617,-0.555089 0.69617,-0.549285 0.69617,-1.084495 0.69617,-0.610766 0.69617,0.862222 0.69617,-1.476154 0.69617,-1.558718 0.69617,-0.94038 0.69617,0.345684 0.69617,0.655692 0.69617,-0.826455 0.69617,-0.908911 0.69617,-0.879565 0.69617,0.516735 0.69617,-0.561478 0.69617,0.515556 0.69617,0.551854 0.69617,0.480113 0.69617,0.744984 0.69617,-0.690579 0.69617,-1.57344 0.69617,-0.310452 0.69617,-1.334514 0.69617,-0.200762 0.69617,-0.2255 0.696169,-1.931211 0.69617,-0.782652 0.69617,0.524935 0.69617,-0.635965 0.69617,-0.232381 0.69617,-0.713936 0.69617,0.05451 0.69617,-0.329536 0.69617,0.537263 0.69617,0.05924 0.696171,-1.300037 0.69617,-0.720084 0.69617,-1.432653 0.69617,-0.155405 0.69617,0.147312 0.69617,-1.288558 0.69617,0.04974 0.69617,-0.56673 0.69617,-0.466124 0.69617,0.771051 0.69617,-0.764919 0.69617,0.743015 0.69617,-0.02239 0.69617,-1.336891 0.69617,0.584101 0.69617,0.06604 0.69617,-1.004924 0.69617,-0.7234 0.69617,-1.128397 0.69617,-0.179403 0.69617,2.058352 0.69617,1.254293 0.69617,-1.179102 0.69617,-0.783163 0.69617,-0.764993 0.69617,-0.12359 0.69617,-0.456776 0.69617,-1.524688 0.69617,-0.576754 0.69617,-0.181789 0.69617,-0.188377 0.69617,-0.506535 0.69617,0.01291 0.69617,-0.07625 0.69617,-0.781824 0.69617,-0.144047 0.69617,-0.623489 0.69617,-0.572048 0.69617,0.118754 0.69617,-0.861356 0.69617,-0.643427 0.69617,-0.255359 0.69617,0.883763 0.69617,0.246703 0.69617,-0.02032 0.69617,-1.011287 0.69617,-0.667807 0.69617,0.123086 0.69617,-0.17993 0.69617,-0.320851 0.69617,-0.173782 0.69617,0.07976 0.69617,1.240208 0.69617,1.006509 0.69617,-0.711893 0.69617,-0.06254 0.69617,0.02863 0.69617,-0.813623 0.69617,-0.452464 0.69617,-0.448494 0.69617,-0.1209 0.69617,0.132659 0.69617,-0.813461 0.69617,-0.18343 0.69617,0.416325 0.69617,0.671 0.69617,-0.608454 0.69617,-0.03195 0.69617,-1.184793 0.69617,-1.044495 0.69617,0.05708 0.69617,-0.291225 0.69617,-0.265049 0.69617,-0.26449 0.69617,-0.601865 0.69617,-0.370675 0.69617,-0.01637 0.69617,0.04571 0.69617,0.21686 0.69617,-0.370022 0.69617,-0.03671 0.69617,0.142385 0.69617,-0.623384 0.69617,-0.188081 0.69617,0.341083 0.69617,-0.883563 0.69617,0.406241 0.69617,-0.193978 0.69617,-0.211729 0.69617,-0.0396 0.69617,0.135952 0.69617,-0.508587 0.69617,-0.536449 0.69617,0.105978 0.69617,-0.479545 0.69617,-0.597285 0.69617,-0.729494 0.69617,-0.195719 0.69617,0.553564 0.69617,0.399439 0.69617,0.205887 0.69617,-0.141967 0.69617,0.797122 0.69617,1.042316 0.69617,-0.258644 0.69617,-0.616947 0.69617,-0.423462 0.69617,0.0031 0.69617,0.101221 0.69617,-0.01858 0.69617,-0.322463 0.69617,-0.220342 0.69617,-0.609895 0.69617,-0.400605 0.69617,-0.0097 0.69617,0.287584 0.69617,0.390616 0.69617,-0.09836 0.69617,-0.143364 0.69617,-0.359586 0.69617,-0.114887 0.69617,0.374233 0.69617,-0.124605 0.69617,-0.100941 0.69617,0.83611 0.69617,-0.01554 0.69617,-0.879029 0.69617,0.512922 0.69617,0.451015 0.69617,-0.450282 0.69617,-0.0432 0.69617,0.427548 0.69617,-0.05982 0.69617,-0.349847 0.69617,-0.0041 0.69617,-0.287031 0.69617,-0.335281 0.69617,-0.07119 0.69617,0.177101 0.69617,-0.350671 0.69617,-0.469212 0.69617,-0.482732 0.69617,-0.03938 0.69617,-0.498627 0.69617,-0.39422 0.69617,0.236047 0.69617,-0.0246 0.69617,-0.192262 0.69617,0.008 0.69617,0.03166 0.69617,0.124614 0.69617,-0.105435 0.69617,0.358857 0.69617,0.547635 0.69617,-0.366568 0.69617,-0.316643 0.69617,-0.118989 0.69617,-0.13451 0.69617,-0.37432 0.69617,-0.336005 0.69617,-0.324221 0.69617,-0.473415 0.69617,0.09667 0.69617,0.412199 0.69617,0.154278 0.69617,0.04037 0.69617,0.563501 0.69617,0.385973 0.69617,0.01244 0.69617,-0.208155 0.69617,0.103366 0.69617,0.31268 0.69617,0.193551 0.69617,-0.205547 0.69617,-0.394031 0.69617,-0.100481 0.69617,0.0083 0.69617,0.172019 0.69617,-0.130581 0.69617,-0.0076 0.69617,0.159786 0.69617,-0.0039 0.69617,-0.220511 0.69617,0.213716 0.69617,-0.343072 0.69617,-0.311124 0.69617,-0.137606 0.69617,-0.04129 0.69617,0.02298 0.69617,-0.160343 0.69617,-0.122197 0.69617,-0.121181 0.69617,-0.06189 0.69617,0.02332 0.69617,-0.03916 0.69617,0.01399 0.69617,0.03471 0.69617,0.157421 0.69617,0.273177 0.69617,0.563688 0.69617,0.633214 0.69617,0.814604 0.69617,0.565973 0.69617,0.212185 0.69617,0.04296 0.69617,-0.06482 0.69617,-0.195396"
                     fill="none"
                     id="path57" />
                </g>
              </g>
            </g>
          </g>
          <g
             opacity="0.2"
             id="g68">
            <g
               id="g67">
              <g
                 id="g66">
                <g
                   id="g62">
                  <path
                     style="fill:none"
                     stroke="#33bbee"
                     stroke-width="2px"
                     d="m 35.50467,40.212313 0.69617,-29.005694 0.69617,167.031921 9.05021,27.10993 0.69617,-136.991359 0.69617,-4.926669 0.69617,48.178718 0.69617,-76.394275 0.69617,23.147378 0.69617,41.135144 0.69617,69.436193 0.69617,-32.10735 0.69617,-54.337777 0.69617,-30.730483 0.69617,-13.901396 0.69617,-11.312741 0.69617,10.165846 0.69617,-7.583114 0.69617,3.275601 0.69617,0.171007 0.69617,-10.454788 0.69617,11.77269 0.69617,-12.981514 0.69617,10.457741 0.69617,2.264319 0.69617,-0.138566 0.69617,-12.212009 0.69617,2.102169 0.69617,0.445188 0.69617,-0.330205 0.69617,-4.077547 0.69617,-3.213689 0.69617,4.879493 0.69617,-6.318265 0.69617,12.577589 0.69617,-6.65144 0.69617,8.951135 0.69617,-9.334429 0.69617,5.890774 0.69617,5.970381 0.69617,-3.390583 0.69617,-7.810145 0.69617,4.039219 0.69617,-3.387631 0.69617,-1.916419 0.69617,5.085876 0.69617,-0.412765 0.69617,-8.060742 0.69617,-0.937578 0.69617,11.840507 0.69617,-8.892176 0.69617,-0.919882 0.69617,4.02154 0.69617,-2.853996 0.69617,8.71233 0.69617,-6.607208 0.69617,6.548231 0.69617,1.435856 0.69617,-7.869104 0.69617,-1.146913 0.69617,9.994857 0.69617,-8.617978 0.69617,-3.965516 0.69617,14.635526 0.69617,-11.112263 0.69617,-3.060361 0.69617,3.791556 0.69617,3.387632 0.69617,-10.758475 0.69617,0.669266 0.69617,16.324932 0.696169,-13.282249 0.69617,1.418158 0.69617,9.066118 0.69617,-10.319156 0.69617,-0.371503 0.69617,13.226225 0.69617,-2.582733 0.69617,-5.13306 0.69617,-2.910003 0.69617,0.630957 0.696171,0.135614 0.69617,6.757584 0.69617,-5.227394 0.69617,1.379813 0.69617,-7.984086 0.69617,0.04717 0.69617,5.065244 0.69617,-5.973316 0.69617,-0.919882 0.69617,7.238147 0.69617,-3.44659 0.69617,0.09729 0.69617,4.953196 0.69617,-3.558638 0.69617,2.184729 0.69617,4.708486 0.69617,-2.927699 0.69617,1.261896 0.69617,-0.45995 0.69617,-1.665803 0.69617,3.101641 0.69617,-4.997429 0.69617,-2.352766 0.69617,-1.205872 0.69617,-2.158176 0.69617,4.625943 0.69617,-3.732597 0.69617,4.823468 0.69617,-4.652461 0.69617,3.225481 0.69617,4.988571 0.69617,-4.823469 0.69617,0.639779 0.69617,0.796059 0.69617,-0.400973 0.69617,0.57198 0.69617,2.756692 0.69617,-1.250104 0.69617,1.138056 0.69617,-4.882428 0.69617,0.648618 0.69617,-0.474676 0.69617,-1.668756 0.69617,0.515956 0.69617,0.427509 0.69617,5.817071 0.69617,-3.585174 0.69617,-1.645172 0.69617,2.28495 0.69617,2.447119 0.69617,4.03038 0.69617,-7.049479 0.69617,-0.256502 0.69617,3.617615 0.69617,-4.077547 0.69617,0.804899 0.69617,0.919881 0.69617,-2.355719 0.69617,2.815651 0.69617,-1.665803 0.69617,0.82553 0.69617,-1.975378 0.69617,-1.320854 0.69617,2.284951 0.69617,-0.448141 0.69617,3.567478 0.69617,-0.704659 0.69617,-0.763619 0.69617,4.104083 0.69617,-3.387632 0.69617,-6.335961 0.69617,7.67156 0.69617,-4.43724 0.69617,2.125753 0.69617,1.376862 0.69617,-8.559002 0.69617,3.850516 0.69617,0.268293 0.69617,0.477629 0.69617,1.205871 0.69617,-2.296742 h 0.69617 l 0.69617,-1.975395 0.69617,6.663232 0.69617,-1.875139 0.69617,-4.478519 0.69617,3.84758 0.69617,-2.565053 0.69617,-3.319816 0.69617,6.173812 0.69617,0.341996 0.69617,-2.986658 0.69617,3.331625 0.69617,-5.858351 0.69617,6.890263 0.69617,-6.465689 0.69617,-1.338551 0.69617,3.818093 0.69617,-2.812716 0.69617,4.275089 0.69617,-0.689915 0.69617,-3.272648 0.69617,5.536967 0.69617,-0.542492 0.69617,-4.363536 0.69617,8.697585 0.69617,-0.312526 0.69617,-4.938452 0.69617,2.812717 0.69617,-2.467768 0.69617,-1.724762 0.69617,3.387631 0.69617,-1.777852 0.69617,-1.656964 0.69617,1.598005 0.69617,-0.400973 0.69617,2.871676 0.69617,2.930634 0.69617,-6.621952 0.69617,2.046145 0.69617,0.955257 0.69617,-4.363537 0.69617,0.115001 0.69617,4.782189 0.69617,-4.440193 0.69617,1.264831 0.69617,2.585702 0.69617,-5.215602 0.69617,1.633363 0.69617,0.536605 0.69617,-1.491862 0.69617,5.766952 0.69617,-4.27509 0.69617,2.470702 0.69617,-2.470702 0.69617,1.359182 0.69617,-2.621078 0.69617,-2.069729 0.69617,0.344967 0.69617,2.815651 0.69617,-3.216624 0.69617,2.105104 0.69617,1.39751 0.69617,-1.435838 0.69617,0.400973 0.69617,0.07075 0.69617,-1.506588 0.69617,-0.916929 0.69617,-0.05307 0.69617,2.004865 0.69617,2.184712 0.69617,-5.802309 0.69617,0.285972 0.69617,6.790025 0.69617,-1.332647 0.69617,-2.335088 0.69617,1.704132 0.69617,0.28599 0.69617,-2.930634 0.69617,1.895769 0.69617,0.106144 0.69617,-3.936028 0.69617,-0.822577 0.69617,1.698244 0.69617,1.922305 0.69617,-1.049609 0.69617,-1.02012 0.69617,-0.515956 0.69617,3.157665 0.69617,-0.869762 0.69617,-1.040769 0.69617,-0.156245 0.69617,-0.645701 0.69617,0.359711 0.69617,-0.860923 0.69617,-0.05012 0.69617,-0.524795 0.69617,0.459932 0.69617,-0.114983 0.69617,-1.264831 0.69617,0.569028 0.69617,3.04857 0.69617,0.869762 0.69617,-0.179847 0.69617,0.987698 0.69617,-1.300224 0.69617,0.312526 0.69617,0.400973 0.69617,0.173942 0.69617,-1.881025 0.69617,-1.255991 0.69617,-0.769524 0.69617,1.338552 0.69617,1.073192 0.69617,0.05896 0.69617,-1.730668 0.69617,-0.855018 0.69617,-0.400973 0.69617,1.376879 0.69617,0.607356 0.69617,-0.37739 0.69617,-1.008329 0.69617,-0.36855 0.69617,-0.215221 0.69617,0.165102 0.69617,0.893346 0.69617,-0.393382"
                     fill="none"
                     id="path61" />
                </g>
                <g
                   id="g63">
                  <path
                     style="fill:none"
                     stroke="#0077bb"
                     stroke-width="2px"
                     d="m 48.03573,180.82423 0.69617,-50.7762 0.69617,-10.86755 0.69617,0.8845 0.69617,-0.0118 0.69617,3.33161 0.69617,-6.49223 0.69617,-6.66323 0.69617,18.72781 0.69617,-20.73563 0.69617,2.81272 0.69617,-3.84759 0.69617,-13.818831 0.69617,6.064724 0.69617,2.240727 0.69617,-7.00818 0.69617,-2.871684 0.69617,6.020501 0.69617,3.340463 0.69617,-4.823477 0.69617,2.526727 0.69617,-7.064214 0.69617,-3.732589 0.69617,-6.893198 0.69617,5.858333 0.69617,-12.235584 0.69617,-1.721827 0.69617,5.572352 0.69617,8.246493 0.69617,-2.792077 0.69617,-3.885899 0.69617,2.624012 0.69617,-4.711438 0.69617,8.013575 0.69617,-3.894748 0.69617,-6.990502 0.69617,21.826515 0.69617,-11.94665 0.69617,-13.612454 0.69617,10.454789 0.69617,9.590931 0.69617,-13.211481 0.69617,-5.802318 0.69617,-3.788613 0.69617,14.49696 0.69617,-3.871164 0.69617,1.721827 0.69617,-4.077547 0.69617,4.711439 0.69617,3.204841 0.69617,-2.517878 0.69617,-7.639138 0.69617,-1.320846 0.69617,-9.705914 0.69617,3.676565 0.69617,-1.55082 0.69617,8.096126 0.69617,2.665292 0.69617,3.310976 0.69617,-9.785513 0.69617,-3.393536 0.69617,1.804379 0.69617,-4.767453 0.69617,3.216633 0.69617,5.171379 0.696169,-3.154722 0.69617,17.008933 0.69617,-2.022553 0.69617,-23.06481 0.69617,6.636696 0.69617,-4.16305 0.69617,5.197915 0.69617,-3.116385 0.69617,-0.905138 0.69617,4.254441 0.696171,-2.933595 0.69617,-0.412765 0.69617,-0.563132 0.69617,-1.105624 0.69617,-2.340975 0.69617,4.708486 0.69617,-8.385051 0.69617,3.308024 0.69617,3.181249 0.69617,-6.604273 0.69617,2.355728 0.69617,-0.344958 0.69617,8.385059 0.69617,-9.074966 0.69617,-0.114992 0.69617,-3.302136 0.69617,12.321096 0.69617,-6.37725 0.69617,-1.951794 0.69617,1.320854 0.69617,-4.882445 0.69617,1.338551 0.69617,2.50903 0.69617,-4.823469 0.69617,18.542058 0.69617,-23.02353 0.69617,2.830395 0.69617,5.705032 0.69617,-4.224962 0.69617,5.858333 0.69617,-10.386972 0.69617,2.517869 0.69617,1.261896 0.69617,-0.630957 0.69617,7.698105 0.69617,-10.289677 0.69617,2.877562 0.69617,14.821278 0.69617,-19.671283 0.69617,2.343928 0.69617,14.340697 0.69617,-10.855762 0.69617,-4.537496 0.69617,3.387648 0.69617,-5.283418 0.69617,2.066777 0.69617,2.615173 0.69617,-0.374437 0.69617,3.204832 0.69617,-6.480433 0.69617,8.903968 0.69617,-12.235575 0.69617,4.882428 0.69617,14.016379 0.69617,-10.970745 0.69617,2.64171 0.69617,-3.331625 0.69617,0.344966 0.69617,0.400974 0.69617,-2.650567 0.69617,7.418011 0.69617,-3.272648 0.69617,3.216624 0.69617,-7.63912 0.69617,0.05307 0.69617,9.095606 0.69617,-14.376072 0.69617,7.353147 0.69617,2.871676 0.69617,-9.363918 0.69617,11.37467 0.69617,-0.403925 0.69617,-9.705897 0.69617,0.545427 0.69617,3.532102 0.69617,-0.515956 0.69617,9.53786 0.69617,-7.51825 0.69617,-1.963586 0.69617,-3.272648 0.69617,-0.162168 0.69617,-2.851026 0.69617,2.069729 0.69617,3.871164 0.69617,3.101642 0.69617,11.309806 0.69617,-21.07468 0.69617,1.205855 0.69617,6.872566 0.69617,-13.252761 0.69617,-2.924747 0.69617,11.83462 0.69617,-3.237273 0.69617,-1.819114 0.69617,13.512197 0.69617,-7.075996 0.69617,-3.735533 0.69617,-1.320855 0.69617,-1.26483 0.69617,4.67311 0.69617,-3.838741 0.69617,-0.259454 0.69617,2.871675 0.69617,1.149865 0.69617,-1.780804 0.69617,-6.837191 0.69617,2.930651 0.69617,12.235575 0.69617,-1.26483 0.69617,-8.270077 0.69617,-1.034864 0.69617,0.171007 0.69617,-3.81514 0.69617,12.719108 0.69617,-6.088317 0.69617,-4.021523 0.69617,4.251507 0.69617,3.44659 0.69617,-4.19253 0.69617,1.049609 0.69617,-2.302648 0.69617,-5.675534 0.69617,5.607718 0.69617,-2.187664 0.69617,3.564543 0.69617,7.698096 0.69617,-12.580541 0.69617,-2.296743 0.69617,4.929613 0.69617,2.538517 0.69617,-4.251506 0.69617,1.606845 0.69617,-2.582733 0.69617,-0.288942 0.69617,3.390583 0.69617,8.38506 0.69617,-7.780656 0.69617,-0.911025 0.69617,-2.968979 0.69617,10.053815 0.69617,-8.606186 0.69617,-4.319304 0.69617,4.767462 0.69617,-2.812716 0.69617,7.409154 0.69617,-2.756693 0.69617,0.45995 0.69617,-5.873078 0.69617,1.907562 0.69617,3.791556 0.69617,3.962564 0.69617,-5.454408 0.69617,1.031912 0.69617,-3.832836 0.69617,1.30611 0.69617,1.117425 0.69617,5.430824 0.69617,-9.593883 0.69617,2.367528 0.69617,1.341486 0.69617,0.197543 0.69617,2.815651 0.69617,-1.014233 0.69617,-3.29328 0.69617,4.938452 0.69617,-0.860905 0.69617,5.799374 0.69617,-2.526726 0.69617,-2.986658 0.69617,-6.548249 0.69617,2.299695 0.69617,1.320855 0.69617,-2.444166 0.69617,1.639267 0.69617,4.997429 0.69617,-2.296761 0.69617,-5.45736 0.69617,1.261896 0.69617,2.069729 0.69617,-1.780804 0.69617,0.689915 0.69617,0.400973 0.69617,-2.635804 0.69617,1.485957 0.69617,2.119848 0.69617,-2.060889 0.69617,0.804898 0.69617,1.780804 0.69617,0.672219 0.69617,-4.867701 0.69617,1.179336 0.69617,1.459421 0.69617,0.291877 0.69617,-1.090871 0.69617,1.146895 0.69617,1.435838 0.69617,0.574932 0.69617,0.344949 0.69617,-0.05602 0.69617,0.719404 0.69617,1.922306 0.69617,-2.402887 0.69617,-0.0089 0.69617,-1.320837 0.69617,-0.288942 0.69617,-0.171007 0.69617,-0.528908"
                     fill="none"
                     id="path62" />
                </g>
                <g
                   id="g64">
                  <path
                     style="fill:none"
                     stroke="#cc3311"
                     stroke-width="2px"
                     d="m 35.50467,72.378634 0.69617,-44.227954 0.69617,43.137074 0.69617,-41.527277 0.69617,7.869103 0.69617,7.866152 0.69617,34.236049 0.69617,-4.767462 0.69617,56.345601 0.69617,73.80858 4.87319,-1.32086 0.69617,-41.32383 0.69617,-16.2866 0.69617,5.34238 0.69617,-14.53233 0.69617,12.17661 0.69617,-30.15555 0.69617,-32.216438 0.69617,-11.722571 0.69617,-33.43116 0.69617,30.040576 0.69617,-14.187386 0.69617,-19.355805 0.69617,8.329036 0.69617,-15.773582 0.69617,3.027938 0.69617,-5.578248 0.69617,-3.101641 0.69617,-7.698097 0.69617,14.606039 0.69617,-9.953577 0.69617,17.244813 0.69617,-4.434305 0.69617,3.502632 0.69617,-2.181778 0.69617,-9.3639 0.69617,-0.916929 0.69617,7.916271 0.69617,-1.656964 0.69617,-5.914358 0.69617,4.301626 0.69617,14.883189 0.69617,-20.104696 0.69617,6.433266 0.69617,-0.919882 0.69617,-1.261878 0.69617,3.73258 0.69617,-1.320854 0.69617,-1.264831 0.69617,-5.45736 0.69617,-0.153311 0.69617,-0.477628 0.69617,10.655266 0.69617,-3.821045 0.69617,3.225481 0.69617,-8.196356 0.69617,5.085876 0.69617,-5.109477 0.69617,1.665821 0.69617,-5.407241 0.69617,1.730668 0.69617,0.813738 0.69617,-8.67989 0.69617,2.638757 0.69617,0.589659 0.69617,5.843607 0.69617,-2.240736 0.69617,-4.227905 0.69617,1.757203 0.69617,-8.037158 0.69617,4.189577 0.69617,9.248917 0.69617,-0.996537 0.69617,-1.188175 0.69617,1.801436 0.69617,-2.202409 0.69617,1.665804 0.696169,-6.834222 0.69617,13.093546 0.69617,-16.540153 0.69617,5.590039 0.69617,7.586066 0.69617,-13.751038 0.69617,12.692572 0.69617,-0.801946 0.69617,-13.058152 0.69617,13.173153 0.696171,-2.930652 0.69617,-6.262259 0.69617,4.767463 0.69617,-0.400973 0.69617,2.296742 0.69617,-0.801946 0.69617,-0.804899 0.69617,-5.808213 0.69617,4.372376 0.69617,-3.735533 0.69617,4.997429 0.69617,-0.975906 0.69617,4.245602 0.69617,0.23587 0.69617,-8.903968 0.69617,1.002424 0.69617,3.420072 0.69617,3.511471 0.69617,-2.482494 0.69617,-0.970001 0.69617,-1.149865 0.69617,1.034865 0.69617,5.053452 0.69617,-5.168435 0.69617,-1.205872 0.69617,-6.318265 0.69617,12.577589 h 0.69617 l 0.69617,-0.406877 0.69617,-4.410704 0.69617,0.622099 0.69617,9.366852 0.69617,-10.168798 0.69617,4.307513 0.69617,-2.46775 0.69617,0.28599 0.69617,2.700668 0.69617,-6.934478 0.69617,10.611052 0.69617,-1.798483 0.69617,-13.305833 0.69617,12.114705 0.69617,-13.173153 0.69617,1.170479 0.69617,9.705914 0.69617,-0.707594 0.69617,-7.851407 0.69617,7.813079 0.69617,-1.205872 0.69617,-2.355719 0.69617,-0.250597 0.69617,-5.032803 0.69617,8.435179 0.69617,-1.141008 0.69617,-5.044596 0.69617,0.04717 0.69617,2.282016 0.69617,1.450582 0.69617,1.922305 0.69617,-5.194953 0.69617,2.585685 0.69617,0.341996 0.69617,3.045635 0.69617,1.951794 0.69617,-7.294171 0.69617,-2.79502 0.69617,2.565054 0.69617,-0.203448 0.69617,-0.371485 0.69617,1.350343 0.69617,-1.860412 0.69617,1.671709 0.69617,3.950772 0.69617,2.184712 0.69617,-4.481473 0.69617,-1.205854 0.69617,3.732581 h 0.69617 l 0.69617,-2.411744 0.69617,7.583114 0.69617,-4.882428 0.69617,-3.446608 0.69617,3.101641 0.69617,-4.941404 0.69617,1.090889 0.69617,3.933075 0.69617,-4.785141 0.69617,1.656964 0.69617,3.658878 0.69617,-4.979732 0.69617,5.572343 0.69617,1.149848 0.69617,-4.540432 0.69617,1.541982 0.69617,-2.494286 0.69617,-1.238295 0.69617,3.405311 0.69617,-4.670159 0.69617,1.102681 0.69617,1.780786 0.69617,-1.839745 0.69617,2.355719 0.69617,-3.470191 0.69617,-1.533142 0.69617,1.096776 0.69617,-1.376861 0.69617,2.411743 0.69617,-6.37726 0.69617,10.454789 0.69617,-0.630939 0.69617,5.168435 0.69617,2.64171 0.69617,-3.676574 0.69617,-1.792596 0.69617,-1.839763 0.69617,-0.790137 0.69617,7.813079 0.69617,-3.977308 0.69617,-1.940001 0.69617,-0.630939 0.69617,-1.883996 0.69617,-0.356741 0.69617,2.352767 0.69617,2.874628 0.69617,-5.112412 h 0.69617 l 0.69617,1.580309 0.69617,-3.411215 0.69617,-1.845667 0.69617,2.069729 0.69617,-1.780787 0.69617,-4.230857 0.69617,4.401864 0.69617,1.89577 0.69617,-1.267783 0.69617,-0.454045 0.69617,4.93847 0.69617,-0.109096 0.69617,0.625052 0.69617,-0.946418 0.69617,-1.23536 0.69617,-3.647085 0.69617,1.176383 0.69617,-0.114983 0.69617,-1.892835 0.69617,0.285991 0.69617,3.446607 0.69617,-0.689915 0.69617,-3.101641 0.69617,1.780786 0.69617,2.01077 0.69617,-0.465836 0.69617,1.096775 0.69617,2.181778 0.69617,-2.9277 0.69617,1.261878 h 0.69617 l 0.69617,1.208824 0.69617,-6.188555 0.69617,1.076144 0.69617,5.914358 0.69617,-0.66338 0.69617,1.813227 0.69617,-0.353806 0.69617,-4.06869 0.69617,-3.257904 0.69617,1.444677 0.69617,-2.149336 0.69617,1.146895 0.69617,1.957698 0.69617,2.293808 0.69617,-0.45995 0.69617,2.411744 0.69617,0.919881 0.69617,-1.435837 0.69617,-3.446608 0.69617,2.453023 0.69617,-1.132169 0.69617,-2.839234 0.69617,-0.0059 0.69617,-1.916418 0.69617,0.684011 0.69617,2.01077 0.69617,0.08549 0.69617,0.6221 0.69617,0.669267 0.69617,0.919881 0.69617,1.48891 0.69617,-0.74297 0.69617,0.114983 0.69617,0.459932 0.69617,-0.400973 0.69617,-1.724763 0.69617,-4.823486 h 0.69617 l 0.69617,3.095754 0.69617,-1.786691 0.69617,-0.103191 0.69617,2.240736 h 0.69617 l 0.69617,-1.034865 0.69617,0.114983 0.69617,-0.459932 0.69617,0.459932 0.69617,0.400973 0.69617,0.288943 0.69617,0.22921"
                     fill="none"
                     id="path63" />
                </g>
                <g
                   id="g65">
                  <path
                     style="fill:none"
                     stroke="#ff7043"
                     stroke-width="2px"
                     d="m 48.03573,189.26531 0.69617,-20.29928 0.69617,-5.87013 0.69617,-8.06074 0.69617,-2.91 0.69617,-5.65196 0.69617,-6.8991 0.69617,-5.28046 0.69617,-6.41853 0.69617,-9.32852 0.69617,-6.58363 0.69617,1.92231 0.69617,-1.8663 0.69617,-0.27419 0.69617,-2.3056 0.69617,1.48302 0.69617,-5.92615 0.69617,-9.546711 0.69617,1.715932 0.69617,-4.348793 0.69617,-0.109087 0.69617,-5.21265 0.69617,-0.878601 0.69617,-3.782718 0.69617,0.489429 0.69617,-1.36803 0.69617,-2.004866 0.69617,-0.849122 0.69617,6.144333 0.69617,9.758977 0.69617,-11.460174 0.69617,-8.119709 0.69617,6.200347 0.69617,-15.086619 0.69617,2.302647 0.69617,8.830257 0.69617,-6.787063 0.69617,10.451845 0.69617,-2.618126 0.69617,-7.627337 0.69617,6.698616 0.69617,-0.498268 0.69617,-5.893718 0.69617,3.644142 0.69617,14.098931 0.69617,-22.492839 0.69617,-2.302647 0.69617,4.617086 0.69617,11.908323 0.69617,3.443655 0.69617,-14.154954 0.69617,-1.651069 0.69617,-0.616194 0.69617,13.075857 0.69617,-10.260206 0.69617,10.204182 0.69617,0.878611 0.69617,-0.165112 0.69617,3.128186 0.69617,-13.606558 0.69617,-9.517219 0.69617,11.053296 0.69617,-10.549132 0.69617,10.000744 0.69617,-0.448149 0.696169,-17.280188 0.69617,9.552612 0.69617,12.291599 0.69617,-11.082784 0.69617,3.399423 0.69617,-5.047548 0.69617,6.969862 0.69617,-3.78566 0.69617,8.337892 0.69617,-4.242658 0.696171,-13.532855 0.69617,4.499169 0.69617,-7.84552 0.69617,11.339295 0.69617,2.871675 0.69617,-14.21097 0.69617,12.094065 0.69617,-6.114844 0.69617,0.439301 0.69617,11.90537 0.69617,-14.58836 0.69617,14.314162 0.69617,-6.910886 0.69617,-13.167257 0.69617,17.872791 0.69617,-4.596447 0.69617,-10.643492 0.69617,1.810275 0.69617,-4.77335 0.69617,8.361476 0.69617,22.198009 0.69617,-5.982173 0.69617,-23.079545 0.69617,2.780275 0.69617,-0.601468 0.69617,5.649007 0.69617,-3.455438 0.69617,-11.135865 0.69617,7.954616 0.69617,3.372887 0.69617,-0.247662 0.69617,-3.369952 0.69617,4.687854 0.69617,-0.878601 0.69617,-7.132021 0.69617,5.595944 0.69617,-4.938469 0.69617,-0.109079 0.69617,6.335962 0.69617,-9.68233 0.69617,1.317919 0.69617,3.237256 0.69617,11.135865 0.69617,-5.486849 0.69617,-2.423535 0.69617,-9.929975 0.69617,2.423517 0.69617,7.241117 0.69617,-2.907068 0.69617,-1.589149 0.69617,1.149848 0.69617,2.361624 0.69617,11.684243 0.69617,-1.096784 0.69617,-16.177499 0.69617,5.781678 0.69617,0.849113 0.69617,-8.393899 0.69617,2.797972 0.69617,-0.412764 0.69617,2.827442 0.69617,2.414696 0.69617,-9.328542 0.69617,5.486848 0.69617,5.814119 0.69617,2.963075 0.69617,-12.123545 0.69617,5.156644 0.69617,-11.560422 0.69617,0.218175 0.69617,9.971273 0.69617,-3.425977 0.69617,-0.02947 0.69617,-0.259454 0.69617,-3.638246 0.69617,1.710036 0.69617,3.172392 0.69617,0.604421 0.69617,1.757203 0.69617,-5.651951 0.69617,2.963074 0.69617,1.754251 0.69617,-7.515297 0.69617,3.729645 0.69617,5.103554 0.69617,-11.90537 0.69617,12.014466 0.69617,-5.595944 0.69617,-0.371485 0.69617,1.509541 0.69617,1.71594 0.69617,-6.309443 0.69617,-0.787202 0.69617,5.887821 0.69617,-5.749255 0.69617,-1.656946 0.69617,-1.919371 0.69617,4.608247 0.69617,7.297123 0.69617,-0.987697 0.69617,-1.536077 0.69617,-3.272648 0.69617,9.248917 0.69617,3.249065 0.69617,-11.967282 0.69617,-3.841676 0.69617,1.317902 0.69617,3.841677 0.69617,0.984745 0.69617,-1.096776 0.69617,-3.057427 0.69617,0.698755 0.69617,-4.115874 0.69617,1.483005 0.69617,3.508519 0.69617,2.963074 0.69617,1.317902 0.69617,-4.499151 0.69617,-0.548396 0.69617,-2.305582 0.69617,2.087408 0.69617,4.776301 0.69617,-4.614134 0.69617,0.112031 0.69617,9.269566 0.69617,-7.680418 0.69617,-8.650401 0.69617,13.040474 0.69617,-0.106144 0.69617,-8.561953 0.69617,3.620549 0.69617,4.664271 0.69617,-4.446097 0.69617,-2.960122 0.69617,3.107546 0.69617,-2.833348 0.69617,-0.769523 0.69617,2.3056 0.69617,2.411743 0.69617,-5.100619 0.69617,-1.536077 0.69617,-0.604421 0.69617,3.950772 0.69617,-4.63183 0.69617,0.545444 0.69617,5.908453 0.69617,-2.370463 0.69617,-1.701179 0.69617,1.810275 0.69617,0.24471 0.69617,0.961161 0.69617,-2.175872 0.69617,4.537478 0.69617,2.246641 0.69617,-8.594394 0.69617,0.132679 0.69617,1.659899 0.69617,-0.274198 0.69617,-2.532613 0.69617,0.0088 0.69617,-0.218174 0.69617,-1.816162 0.69617,5.227394 0.69617,3.252 0.69617,-2.167016 0.69617,-0.984745 0.69617,5.271627 0.69617,-1.211777 0.69617,-3.349303 0.69617,-2.193552 0.69617,2.907051 0.69617,2.196504 0.69617,-0.878602 0.69617,-3.797444 0.69617,-2.090377 0.69617,2.54147 0.69617,0.98768 0.69617,1.645172 0.69617,-2.853979 0.69617,1.099728 0.69617,1.665804 0.69617,-1.477118 0.69617,-2.169968 0.69617,4.121762 0.69617,-5.354169 0.69617,-0.02358 0.69617,1.424046 0.69617,0.82553 0.69617,0.601468 0.69617,-1.810274 0.69617,0.221109 0.69617,-0.112031 0.69617,0.471741 0.69617,0.790155 0.69617,-0.601469 0.69617,0.492373 0.69617,0.221126 0.69617,1.261878 0.69617,1.314968 0.69617,3.178296 0.69617,1.258944 0.69617,2.447118 0.69617,-1.671708 0.69617,-2.971914 0.69617,-1.48007 0.69617,-1.034864 0.69617,-1.370553"
                     fill="none"
                     id="path64" />
                </g>
              </g>
            </g>
          </g>
        </g>
      </g>
      <g
         transform="translate(51,176)"
         clip-path="url(#clip_1)"
         id="g88">
        <clipPath
           id="clip_1">
          <rect
             width="278"
             height="23"
             id="rect70"
             x="0"
             y="0" />
        </clipPath>
        <g
           id="g87">
          <g
             id="g78">
            <line
               x1="0"
               y1="0"
               x2="0"
               y2="5"
               style="visibility:inherit"
               fill="#000000"
               stroke="#cccccc"
               stroke-width="1px"
               id="line70" />
            <line
               x1="34.808498"
               y1="0"
               x2="34.808498"
               y2="5"
               style="visibility:inherit"
               fill="#000000"
               stroke="#cccccc"
               stroke-width="1px"
               id="line71" />
            <line
               x1="69.616997"
               y1="0"
               x2="69.616997"
               y2="5"
               style="visibility:inherit"
               fill="#000000"
               stroke="#cccccc"
               stroke-width="1px"
               id="line72" />
            <line
               x1="104.4255"
               y1="0"
               x2="104.4255"
               y2="5"
               style="visibility:inherit"
               fill="#000000"
               stroke="#cccccc"
               stroke-width="1px"
               id="line73" />
            <line
               x1="139.23399"
               y1="0"
               x2="139.23399"
               y2="5"
               style="visibility:inherit"
               fill="#000000"
               stroke="#cccccc"
               stroke-width="1px"
               id="line74" />
            <line
               x1="174.0425"
               y1="0"
               x2="174.0425"
               y2="5"
               style="visibility:inherit"
               fill="#000000"
               stroke="#cccccc"
               stroke-width="1px"
               id="line75" />
            <line
               x1="208.851"
               y1="0"
               x2="208.851"
               y2="5"
               style="visibility:inherit"
               fill="#000000"
               stroke="#cccccc"
               stroke-width="1px"
               id="line76" />
            <line
               x1="243.6595"
               y1="0"
               x2="243.6595"
               y2="5"
               style="visibility:inherit"
               fill="#000000"
               stroke="#cccccc"
               stroke-width="1px"
               id="line77" />
            <line
               x1="278.46799"
               y1="0"
               x2="278.46799"
               y2="5"
               style="visibility:inherit"
               fill="#000000"
               stroke="#cccccc"
               stroke-width="1px"
               id="line78" />
          </g>
          <g
             transform="translate(0,8)"
             id="g86">
            <text
               style="font-weight:200;font-size:12px;font-family:Roboto, sans-serif;text-anchor:middle;visibility:hidden"
               x="0"
               y="0"
               dx="0em"
               dy="0.94999999em"
               fill="#212121"
               stroke="none"
               stroke-width="1px"
               id="text78">-50</text>
            <text
               style="font-weight:200;font-size:12px;font-family:Roboto, sans-serif;text-anchor:middle;visibility:inherit"
               x="34.808498"
               y="0"
               dx="0em"
               dy="0.94999999em"
               fill="#212121"
               stroke="none"
               stroke-width="1px"
               id="text79">0</text>
            <text
               style="font-weight:200;font-size:12px;font-family:Roboto, sans-serif;text-anchor:middle;visibility:inherit"
               x="69.616997"
               y="0"
               dx="0em"
               dy="0.94999999em"
               fill="#212121"
               stroke="none"
               stroke-width="1px"
               id="text80">50</text>
            <text
               style="font-weight:200;font-size:12px;font-family:Roboto, sans-serif;text-anchor:middle;visibility:inherit"
               x="104.4255"
               y="0"
               dx="0em"
               dy="0.94999999em"
               fill="#212121"
               stroke="none"
               stroke-width="1px"
               id="text81">100</text>
            <text
               style="font-weight:200;font-size:12px;font-family:Roboto, sans-serif;text-anchor:middle;visibility:inherit"
               x="139.23399"
               y="0"
               dx="0em"
               dy="0.94999999em"
               fill="#212121"
               stroke="none"
               stroke-width="1px"
               id="text82">150</text>
            <text
               style="font-weight:200;font-size:12px;font-family:Roboto, sans-serif;text-anchor:middle;visibility:inherit"
               x="174.0425"
               y="0"
               dx="0em"
               dy="0.94999999em"
               fill="#212121"
               stroke="none"
               stroke-width="1px"
               id="text83">200</text>
            <text
               style="font-weight:200;font-size:12px;font-family:Roboto, sans-serif;text-anchor:middle;visibility:inherit"
               x="208.851"
               y="0"
               dx="0em"
               dy="0.94999999em"
               fill="#212121"
               stroke="none"
               stroke-width="1px"
               id="text84">250</text>
            <text
               style="font-weight:200;font-size:12px;font-family:Roboto, sans-serif;text-anchor:middle;visibility:inherit"
               x="243.6595"
               y="0"
               dx="0em"
               dy="0.94999999em"
               fill="#212121"
               stroke="none"
               stroke-width="1px"
               id="text85">300</text>
            <text
               style="font-weight:200;font-size:12px;font-family:Roboto, sans-serif;text-anchor:middle;visibility:hidden"
               x="278.46799"
               y="0"
               dx="0em"
               dy="0.94999999em"
               fill="#212121"
               stroke="none"
               stroke-width="1px"
               id="text86">350</text>
          </g>
          <line
             x1="0"
             y1="0"
             x2="278.46799"
             y2="0"
             fill="#000000"
             stroke="#cccccc"
             stroke-width="1px"
             id="line86" />
        </g>
      </g>
    </g>
  </g>
</svg>
