<?xml version="1.0" encoding="UTF-8" standalone="no"?>
<svg
   viewBox="0 0 310.27997 195.532"
   version="1.1"
   id="svg75"
   sodipodi:docname="2024-08-yolo-model-recall.svg"
   width="310.27997"
   height="195.532"
   inkscape:version="1.3.2 (091e20ef0f, 2023-11-25, custom)"
   xmlns:inkscape="http://www.inkscape.org/namespaces/inkscape"
   xmlns:sodipodi="http://sodipodi.sourceforge.net/DTD/sodipodi-0.dtd"
   xmlns="http://www.w3.org/2000/svg"
   xmlns:svg="http://www.w3.org/2000/svg">
  <defs
     id="defs75" />
  <sodipodi:namedview
     id="namedview75"
     pagecolor="#ffffff"
     bordercolor="#000000"
     borderopacity="0.25"
     inkscape:showpageshadow="2"
     inkscape:pageopacity="0.0"
     inkscape:pagecheckerboard="0"
     inkscape:deskcolor="#d1d1d1"
     inkscape:zoom="0.71515152"
     inkscape:cx="146.82203"
     inkscape:cy="100.67797"
     inkscape:window-width="935"
     inkscape:window-height="325"
     inkscape:window-x="967"
     inkscape:window-y="709"
     inkscape:window-maximized="1"
     inkscape:current-layer="svg75" />
  <g
     id="g75"
     transform="translate(-18.720038)">
    <g
       id="g74">
      <g
         id="g15">
        <g
           id="g14">
          <g
             id="g7">
            <line
               x1="51.532001"
               y1="163.00684"
               x2="46.532001"
               y2="163.00684"
               style="visibility:inherit"
               fill="#000000"
               stroke="#cccccc"
               stroke-width="1px"
               id="line1" />
            <line
               x1="51.532001"
               y1="138.90443"
               x2="46.532001"
               y2="138.90443"
               style="visibility:inherit"
               fill="#000000"
               stroke="#cccccc"
               stroke-width="1px"
               id="line2" />
            <line
               x1="51.532001"
               y1="114.80204"
               x2="46.532001"
               y2="114.80204"
               style="visibility:inherit"
               fill="#000000"
               stroke="#cccccc"
               stroke-width="1px"
               id="line3" />
            <line
               x1="51.532001"
               y1="90.699638"
               x2="46.532001"
               y2="90.699638"
               style="visibility:inherit"
               fill="#000000"
               stroke="#cccccc"
               stroke-width="1px"
               id="line4" />
            <line
               x1="51.532001"
               y1="66.597237"
               x2="46.532001"
               y2="66.597237"
               style="visibility:inherit"
               fill="#000000"
               stroke="#cccccc"
               stroke-width="1px"
               id="line5" />
            <line
               x1="51.532001"
               y1="42.494835"
               x2="46.532001"
               y2="42.494835"
               style="visibility:inherit"
               fill="#000000"
               stroke="#cccccc"
               stroke-width="1px"
               id="line6" />
            <line
               x1="51.532001"
               y1="18.392431"
               x2="46.532001"
               y2="18.392431"
               style="visibility:inherit"
               fill="#000000"
               stroke="#cccccc"
               stroke-width="1px"
               id="line7" />
          </g>
          <g
             transform="translate(41.532001)"
             id="g13">
            <text
               style="font-weight:200;font-size:12px;font-family:Roboto, sans-serif;text-anchor:end;visibility:inherit"
               x="0"
               y="163.00684"
               dx="0em"
               dy="0.30000001em"
               fill="#212121"
               stroke="none"
               stroke-width="1px"
               id="text7">0.82</text>
            <text
               style="font-weight:200;font-size:12px;font-family:Roboto, sans-serif;text-anchor:end;visibility:hidden"
               x="0"
               y="138.90443"
               dx="0em"
               dy="0.30000001em"
               fill="#212121"
               stroke="none"
               stroke-width="1px"
               id="text8">0.83</text>
            <text
               style="font-weight:200;font-size:12px;font-family:Roboto, sans-serif;text-anchor:end;visibility:inherit"
               x="0"
               y="114.80204"
               dx="0em"
               dy="0.30000001em"
               fill="#212121"
               stroke="none"
               stroke-width="1px"
               id="text9">0.84</text>
            <text
               style="font-weight:200;font-size:12px;font-family:Roboto, sans-serif;text-anchor:end;visibility:hidden"
               x="0"
               y="90.699638"
               dx="0em"
               dy="0.30000001em"
               fill="#212121"
               stroke="none"
               stroke-width="1px"
               id="text10">0.85</text>
            <text
               style="font-weight:200;font-size:12px;font-family:Roboto, sans-serif;text-anchor:end;visibility:inherit"
               x="0"
               y="66.597237"
               dx="0em"
               dy="0.30000001em"
               fill="#212121"
               stroke="none"
               stroke-width="1px"
               id="text11">0.86</text>
            <text
               style="font-weight:200;font-size:12px;font-family:Roboto, sans-serif;text-anchor:end;visibility:hidden"
               x="0"
               y="42.494835"
               dx="0em"
               dy="0.30000001em"
               fill="#212121"
               stroke="none"
               stroke-width="1px"
               id="text12">0.87</text>
            <text
               style="font-weight:200;font-size:12px;font-family:Roboto, sans-serif;text-anchor:end;visibility:inherit"
               x="0"
               y="18.392431"
               dx="0em"
               dy="0.30000001em"
               fill="#212121"
               stroke="none"
               stroke-width="1px"
               id="text13">0.88</text>
          </g>
          <line
             x1="51.532001"
             y1="0"
             x2="51.532001"
             y2="176.89999"
             fill="#000000"
             stroke="#cccccc"
             stroke-width="1px"
             id="line13" />
        </g>
      </g>
      <g
         transform="translate(51)"
         clip-path="url(#clip_0)"
         id="g57">
        <clipPath
           id="clip_0">
          <rect
             width="278"
             height="176"
             id="rect15"
             x="0"
             y="0" />
        </clipPath>
        <g
           id="g31">
          <g
             id="g30">
            <g
               id="g22">
              <line
                 x1="32.963196"
                 y1="0"
                 x2="32.963196"
                 y2="176.89999"
                 fill="#000000"
                 stroke="#424242"
                 stroke-width="1px"
                 opacity="0.25"
                 id="line15" />
              <line
                 x1="66.889854"
                 y1="0"
                 x2="66.889854"
                 y2="176.89999"
                 fill="#000000"
                 stroke="#424242"
                 stroke-width="1px"
                 opacity="0.25"
                 id="line16" />
              <line
                 x1="100.81652"
                 y1="0"
                 x2="100.81652"
                 y2="176.89999"
                 fill="#000000"
                 stroke="#424242"
                 stroke-width="1px"
                 opacity="0.25"
                 id="line17" />
              <line
                 x1="134.74318"
                 y1="0"
                 x2="134.74318"
                 y2="176.89999"
                 fill="#000000"
                 stroke="#424242"
                 stroke-width="1px"
                 opacity="0.25"
                 id="line18" />
              <line
                 x1="168.66985"
                 y1="0"
                 x2="168.66985"
                 y2="176.89999"
                 fill="#000000"
                 stroke="#424242"
                 stroke-width="1px"
                 opacity="0.25"
                 id="line19" />
              <line
                 x1="202.5965"
                 y1="0"
                 x2="202.5965"
                 y2="176.89999"
                 fill="#000000"
                 stroke="#424242"
                 stroke-width="1px"
                 opacity="0.25"
                 id="line20" />
              <line
                 x1="236.52316"
                 y1="0"
                 x2="236.52316"
                 y2="176.89999"
                 fill="#000000"
                 stroke="#424242"
                 stroke-width="1px"
                 opacity="0.25"
                 id="line21" />
              <line
                 x1="270.44983"
                 y1="0"
                 x2="270.44983"
                 y2="176.89999"
                 fill="#000000"
                 stroke="#424242"
                 stroke-width="1px"
                 opacity="0.25"
                 id="line22" />
            </g>
            <g
               id="g29">
              <line
                 x1="0"
                 y1="163.00684"
                 x2="278.46799"
                 y2="163.00684"
                 fill="#000000"
                 stroke="#424242"
                 stroke-width="1px"
                 opacity="0.25"
                 id="line23" />
              <line
                 x1="0"
                 y1="138.90443"
                 x2="278.46799"
                 y2="138.90443"
                 fill="#000000"
                 stroke="#424242"
                 stroke-width="1px"
                 opacity="0.25"
                 id="line24" />
              <line
                 x1="0"
                 y1="114.80204"
                 x2="278.46799"
                 y2="114.80204"
                 fill="#000000"
                 stroke="#424242"
                 stroke-width="1px"
                 opacity="0.25"
                 id="line25" />
              <line
                 x1="0"
                 y1="90.699638"
                 x2="278.46799"
                 y2="90.699638"
                 fill="#000000"
                 stroke="#424242"
                 stroke-width="1px"
                 opacity="0.25"
                 id="line26" />
              <line
                 x1="0"
                 y1="66.597237"
                 x2="278.46799"
                 y2="66.597237"
                 fill="#000000"
                 stroke="#424242"
                 stroke-width="1px"
                 opacity="0.25"
                 id="line27" />
              <line
                 x1="0"
                 y1="42.494835"
                 x2="278.46799"
                 y2="42.494835"
                 fill="#000000"
                 stroke="#424242"
                 stroke-width="1px"
                 opacity="0.25"
                 id="line28" />
              <line
                 x1="0"
                 y1="18.392431"
                 x2="278.46799"
                 y2="18.392431"
                 fill="#000000"
                 stroke="#424242"
                 stroke-width="1px"
                 opacity="0.25"
                 id="line29" />
            </g>
          </g>
        </g>
        <g
           id="g33">
          <g
             id="g32">
            <line
               x1="0"
               y1="2139.4038"
               x2="278.46799"
               y2="2139.4038"
               fill="#000000"
               stroke="#999999"
               stroke-width="1.5px"
               id="line31" />
          </g>
        </g>
        <g
           id="g35">
          <g
             id="g34">
            <line
               x1="-442.01007"
               y1="0"
               x2="-442.01007"
               y2="176.89999"
               fill="#000000"
               stroke="#999999"
               stroke-width="1.5px"
               id="line33" />
          </g>
        </g>
        <g
           id="g56">
          <g
             id="g45">
            <g
               id="g44">
              <g
                 id="g43">
                <g
                   id="g36">
                  <path
                     style="fill:none"
                     stroke="#bbbbbb"
                     stroke-width="2px"
                     d="m -0.96346385,147.61487 6.78533215,-8.96317 6.7853327,-5.05434 6.785332,-5.43176 6.785332,-5.1167 6.785332,-1.03236 6.785332,-3.1156 6.785332,-4.68581 6.785333,10.42838 6.785332,6.61699 6.785332,0.16458 6.785332,1.97793 6.785332,-7.23915 6.785333,-0.28152 6.785332,1.97295 6.785333,1.57836 6.78533,1.99539 6.78533,-5.726 6.78534,7.87052 6.78533,-2.17801 6.78533,-2.79326 6.78533,-2.35994 6.78533,-3.66192 6.78534,1.1679 6.78533,1.69113 6.78533,-0.29088 6.78533,-1.54387 6.78534,9.75559 6.78533,1.5957 6.78533,0.15822 6.78533,2.05957 6.78533,12.52748 6.78534,11.13071 6.78533,-1.35344 6.78533,-2.3457 6.78533,-1.99707 6.78533,-6.41698 6.78534,-5.13359"
                     fill="none"
                     id="path35" />
                </g>
                <g
                   id="g37">
                  <path
                     style="fill:none"
                     stroke="#ff7043"
                     stroke-width="2px"
                     d="m -0.96346385,144.01347 6.78533215,-5.16741 6.7853327,-4.18215 6.785332,0.94934 6.785332,2.95761 6.785332,-0.11165 6.785332,-0.0363 6.785332,-2.00061 6.785333,2.79579 6.785332,1.50393 6.785332,0.88499 6.785332,1.71546 6.785332,-5.17865 6.785333,1.71878 6.785332,12.8333 6.785333,-5.32762 6.78533,2.07203 6.78533,-2.07344 6.78534,4.24634 6.78533,-4.10841 6.78533,1.31199 6.78533,-6.27752 6.78533,-5.75474 6.78534,0.52521 6.78533,-7.63485 6.78533,1.87482 6.78533,0.83947 6.78534,-2.992 6.78533,1.54954 6.78533,-1.9708 6.78533,-1.57664 6.78533,11.1948 6.78534,6.5167 6.78533,-1.25575 6.78533,-2.35432 6.78533,0.0206 6.78533,-4.81639 6.78534,-3.85311"
                     fill="none"
                     id="path36" />
                </g>
                <g
                   id="g38">
                  <path
                     style="fill:none"
                     stroke="#cc3311"
                     stroke-width="2px"
                     d="m -0.96346385,38.930423 6.78533215,-3.345962 6.7853327,-1.211334 6.785332,-5.4907 6.785332,0.129073 6.785332,0.103258 6.785332,5.944313 6.785332,-4.769826 6.785333,-1.005526 6.785332,-2.149322 6.785332,-1.714659 6.785332,-3.57469 6.785332,4.467387 6.785333,-0.822363 6.785332,0.07481 6.785333,-3.60372 6.78533,-2.569621 6.78533,-1.63632 6.78534,3.819918 6.78533,-4.271176 6.78533,4.642901 6.78533,-3.333225 6.78533,-0.208128 6.78534,3.791112 6.78533,6.040847 6.78533,-2.672804 6.78533,3.723463 6.78534,3.711472 6.78533,1.503774 6.78533,-0.995118 6.78533,-0.49722 6.78533,0.768755 6.78534,-2.315835 6.78533,-4.171307 6.78533,-2.064463 6.78533,-2.495151 6.78533,-1.571399 6.78534,-1.25712"
                     fill="none"
                     id="path37" />
                </g>
                <g
                   id="g39">
                  <path
                     style="fill:none"
                     stroke="#0077bb"
                     stroke-width="2px"
                     d="m -0.96346385,35.863931 6.78533215,-2.732663 6.7853327,-2.18613 6.785332,-2.481606 6.785332,0.699721 6.785332,-0.659824 6.785332,-2.725995 6.785332,7.34448 6.785333,1.479311 6.785332,-1.014687 6.785332,-2.277183 6.785332,-9.148886 6.785332,-2.18048 6.785333,5.129618 6.785332,3.814475 6.785333,-2.077394 6.78533,-2.654961 6.78533,2.532617 6.78534,3.491528 6.78533,-4.533917 6.78533,-2.1617 6.78533,-0.263927 6.78533,-3.142008 6.78534,-3.275242 6.78533,-0.961938 6.78533,2.73013 6.78533,0.251081 6.78534,4.520019 6.78533,1.229884 6.78533,-0.481526 6.78533,0.347481 6.78533,0.943224 6.78534,3.347986 6.78533,2.263839 6.78533,-2.49843 6.78533,0.932095 6.78533,-4.757709 6.78534,-3.806167"
                     fill="none"
                     id="path38" />
                </g>
                <g
                   id="g40">
                  <path
                     style="fill:none"
                     stroke="#ee3377"
                     stroke-width="2px"
                     d="m -0.96346385,26.935136 6.78533215,1.068066 6.7853327,-1.893219 6.785332,-3.592208 6.785332,8.507388 6.785332,-2.497611 6.785332,-3.820234 6.785332,-0.491714 6.785333,-1.111621 6.785332,1.029274 6.785332,1.078907 6.785332,-4.092335 6.785332,-0.516544 6.785333,-2.847579 6.785332,6.750689 6.785333,-0.605764 6.78533,3.439244 6.78533,3.368422 6.78534,4.420485 6.78533,-3.318334 6.78533,-6.318237 6.78533,3.737954 6.78533,2.185342 6.78534,-4.041113 6.78533,-1.034754 6.78533,-0.0951 6.78533,3.992413 6.78534,4.25444 6.78533,-3.571675 6.78533,4.850589 6.78533,-3.350242 6.78533,-5.707458 6.78534,1.686211 6.78533,-3.977683 6.78533,-4.107672 6.78533,-1.820704 6.78533,1.482004 6.78534,1.185604"
                     fill="none"
                     id="path39" />
                </g>
                <g
                   id="g41">
                  <path
                     style="fill:none"
                     stroke="#33bbee"
                     stroke-width="2px"
                     d="m -0.96346385,38.323875 6.78533215,-1.744765 6.7853327,-4.423077 6.785332,0.915679 6.785332,3.610371 6.785332,1.49998 6.785332,4.863554 6.785332,-0.481323 6.785333,-6.598678 6.785332,-0.246364 6.785332,-0.50559 6.785332,-0.404472 6.785332,3.339993 6.785333,-2.67391 6.785332,0.878482 6.785333,0.100212 6.78533,8.140011 6.78533,3.610104 6.78534,-4.048613 6.78533,-4.897117 6.78533,-1.946113 6.78533,-0.824187 6.78533,-5.807632 6.78534,-0.963257 6.78533,-1.869674 6.78533,-0.396671 6.78533,3.288395 6.78534,0.360261 6.78533,-3.977907 6.78533,-4.647758 6.78533,-0.78734 6.78533,-1.362603 6.78534,-2.227709 6.78533,-2.842676 6.78533,-2.274142 6.78533,0.378824 6.78533,10.559915 6.78534,8.447932"
                     fill="none"
                     id="path40" />
                </g>
                <g
                   id="g42">
                  <path
                     style="fill:none"
                     stroke="#ff7043"
                     stroke-width="2px"
                     d="m -0.96346385,120.3196 6.78533215,0.58366 6.7853327,4.43417 6.785332,-3.04707 6.785332,6.35489 6.785332,1.42036 6.785332,4.79984 6.785332,3.83987 6.785333,0.0928 6.785332,4.93334 6.785332,-4.52775 6.785332,0.0414 6.785332,-1.25397 6.785333,3.34489 6.785332,7.73259 6.785333,-4.12974 6.78533,-1.10566 6.78533,3.51175 6.78534,-2.31958 6.78533,-0.58788 6.78533,-7.91795 6.78533,-0.88722 6.78533,-1.44249 6.78534,-0.42129 6.78533,-1.80246 6.78533,3.73525 6.78533,0.009 6.78534,2.05602 6.78533,-1.86932 6.78533,-2.22819 6.78533,-5.35932 6.78533,0.75475 6.78534,2.06923 6.78533,-2.41311 6.78533,-1.56412 6.78533,-1.21274 6.78533,1.96212 6.78534,1.56969"
                     fill="none"
                     id="path41" />
                </g>
              </g>
            </g>
          </g>
          <g
             opacity="0.2"
             id="g55">
            <g
               id="g54">
              <g
                 id="g53">
                <g
                   id="g46">
                  <path
                     style="fill:none"
                     stroke="#bbbbbb"
                     stroke-width="2px"
                     d="M -0.96346385,176.04629 5.8218683,102.79904 12.607201,113.38 l 6.785332,-6.94144 6.785332,-3.85645 6.785332,15.30498 6.785332,-11.44853 6.785332,-10.96669 6.785333,70.88517 6.785332,-8.62859 6.785332,-25.64502 6.785332,9.23126 6.785332,-44.107389 6.785333,27.548959 6.785332,10.99083 h 6.785333 l 6.78533,3.66351 6.78533,-36.61156 6.78534,62.25657 6.78533,-42.3721 6.78533,-5.25427 6.78533,-0.62665 6.78533,-8.86981 6.78534,20.48714 6.78533,3.78404 6.78533,-8.21887 6.78533,-6.55585 6.78534,54.9534 6.78533,-31.04382 6.78533,-5.59173 6.78533,9.66497 6.78533,54.39915 6.78534,5.54361 6.78533,-51.29003 6.78533,-6.31478 6.78533,-0.60252 6.78533,-24.09663 h 6.78534"
                     fill="none"
                     id="path45" />
                </g>
                <g
                   id="g47">
                  <path
                     style="fill:none"
                     stroke="#ff7043"
                     stroke-width="2px"
                     d="m -0.96346385,130.17934 6.78533215,-12.00292 6.7853327,-0.24106 6.785332,21.47524 6.785332,10.99068 6.785332,-12.38865 6.785332,0.2652 6.785332,-9.85791 6.785333,21.98136 6.785332,-3.66351 6.785332,-1.59077 6.785332,5.03735 6.785332,-32.75511 6.785333,29.30853 6.785332,57.29134 6.785333,-77.97127 6.78533,31.67061 6.78533,-18.65531 6.78534,29.52545 6.78533,-37.5274 6.78533,22.9936 6.78533,-36.63555 6.78533,-3.66366 6.78534,25.64502 6.78533,-40.275074 6.78533,39.913474 6.78533,-3.30191 6.78534,-18.31785 6.78533,19.71567 6.78533,-16.05216 h 6.78533 l 6.78533,62.28057 6.78534,-12.19571 6.78533,-32.34554 6.78533,-6.74864 6.78533,9.52045 6.78533,-24.16444 h 6.78534"
                     fill="none"
                     id="path46" />
                </g>
                <g
                   id="g48">
                  <path
                     style="fill:none"
                     stroke="#cc3311"
                     stroke-width="2px"
                     d="M -0.96346385,36.854815 5.8218683,22.200623 12.607201,29.52779 19.392533,6.9196353 26.177865,29.52779 h 6.785332 l 6.785332,29.308528 6.785332,-47.626375 6.785333,14.051675 6.785332,-6.724508 6.785332,0.02399 6.785332,-11.0148152 6.785332,36.6356962 6.785333,-21.98136 6.785332,3.663512 6.785333,-18.3178482 6.78533,1.5667724 6.78533,2.0968838 6.78534,25.644872 6.78533,-36.63555245 6.78533,40.29920745 6.78533,-35.2377252 6.78533,12.2922532 6.78534,19.78808 6.78533,15.039779 6.78533,-37.527402 6.78533,29.308528 6.78534,3.663512 6.78533,-7.327025 6.78533,-10.99068 6.78533,1.494367 6.78533,5.832658 6.78534,-14.654192 6.78533,-11.593197 6.78533,6.362912 6.78533,-4.217902 6.78533,2.123605 h 6.78534"
                     fill="none"
                     id="path47" />
                </g>
                <g
                   id="g49">
                  <path
                     style="fill:none"
                     stroke="#0077bb"
                     stroke-width="2px"
                     d="M -0.96346385,25.864135 5.8218683,22.200623 h 6.7853327 l 6.785332,-3.663513 6.785332,13.425025 6.785332,-6.098 6.785332,-10.99068 6.785332,47.626375 6.785333,-21.98136 6.785332,-10.99068 6.785332,-7.327167 6.785332,-36.635696 6.785332,25.693142 6.785333,34.37001 6.785332,-1.446096 6.785333,-25.644873 6.78533,-4.965229 6.78533,23.282934 6.78534,7.327168 6.78533,-36.6356962 6.78533,7.3271682 6.78533,7.327168 6.78533,-14.6543362 6.78534,-3.8081793 6.78533,8.2912805 6.78533,17.498402 6.78533,-9.665115 6.78534,21.595773 6.78533,-11.930658 6.78533,-7.327167 6.78533,3.663512 6.78533,3.326195 6.78534,12.967031 6.78533,-2.072748 6.78533,-21.547503 6.78533,14.654193 6.78533,-27.5169257 h 6.78534"
                     fill="none"
                     id="path48" />
                </g>
                <g
                   id="g50">
                  <path
                     style="fill:none"
                     stroke="#ee3377"
                     stroke-width="2px"
                     d="M -0.96346385,22.200623 5.8218683,32.27546 12.607201,18.53711 19.392533,8.1489468 26.177865,65.054707 32.963197,18.53711 l 6.785332,-9.1107251 6.785332,12.8223641 6.785333,-3.59125 6.785332,9.592853 6.785332,1.277438 L 73.67519,4.7504902 80.460522,18.53711 87.245855,6.3653892 94.031187,51.50915 l 6.785333,-30.031576 6.78533,19.619278 6.78533,3.085131 6.78534,8.628741 6.78533,-34.273614 6.78533,-18.31784745 6.78533,43.96272045 6.78533,-4.025109 6.78534,-28.946931 6.78533,10.99068 6.78533,3.663512 6.78533,20.342469 6.78534,5.302546 6.78533,-34.876129 6.78533,38.539642 6.78533,-36.153568 6.78533,-15.1363203 6.78534,31.2608873 6.78533,-26.6332628 6.78533,-4.6276245 6.78533,7.3271683 6.78533,14.692837 h 6.78534"
                     fill="none"
                     id="path49" />
                </g>
                <g
                   id="g51">
                  <path
                     style="fill:none"
                     stroke="#33bbee"
                     stroke-width="2px"
                     d="m -0.96346385,25.864135 6.78533215,3.735917 6.7853327,-15.13632 6.785332,22.270694 6.785332,14.389137 6.785332,-6.94158 6.785332,18.317847 6.785332,-21.860828 6.785333,-31.0680936 6.785332,25.1628876 6.785332,-1.542493 h 6.785332 l 6.785332,18.317847 6.785333,-26.729516 6.785332,15.08805 6.785333,-3.012869 6.78533,40.299208 6.78533,-14.509525 6.78534,-34.68348 6.78533,-8.291137 6.78533,9.857909 6.78533,3.663513 6.78533,-25.7414131 6.78534,18.4142451 6.78533,-5.49534 6.78533,5.49534 6.78533,18.028657 6.78534,-11.352276 6.78533,-21.330573 6.78533,-7.3271683 6.78533,14.6543353 6.78533,-3.663655 6.78534,-5.6881341 6.78533,-5.3025462 h 6.78533 l 6.78533,10.9906803 6.78533,51.284285 h 6.78534"
                     fill="none"
                     id="path50" />
                </g>
                <g
                   id="g52">
                  <path
                     style="fill:none"
                     stroke="#ff7043"
                     stroke-width="2px"
                     d="m -0.96346385,103.18463 6.78533215,20.05327 6.7853327,19.83621 6.785332,-32.97204 6.785332,43.96272 6.785332,-18.3177 6.785332,18.3177 h 6.785332 l 6.785333,-14.89526 6.785332,24.29532 6.785332,-42.3721 6.785332,18.31785 6.785332,-6.43532 6.785333,21.7403 6.785332,25.28342 6.785333,-51.57908 6.78533,10.99068 6.78533,21.98136 6.78534,-25.64487 6.78533,6.33892 6.78533,-37.23821 6.78533,27.23563 6.78533,-3.66351 6.78534,3.66351 6.78533,-7.32717 6.78533,25.88608 6.78533,-14.89525 6.78534,10.24349 6.78533,-17.57066 6.78533,-3.66366 6.78533,-17.88384 6.78533,25.21101 6.78534,7.32717 6.78533,-20.34247 6.78533,1.83183 6.78533,0.19279 6.78533,14.66152 h 6.78534"
                     fill="none"
                     id="path51" />
                </g>
              </g>
            </g>
          </g>
        </g>
      </g>
      <g
         transform="translate(51,176)"
         clip-path="url(#clip_1)"
         id="g73">
        <clipPath
           id="clip_1">
          <rect
             width="278"
             height="23"
             id="rect57"
             x="0"
             y="0" />
        </clipPath>
        <g
           id="g72">
          <g
             id="g64">
            <line
               x1="32.963196"
               y1="0"
               x2="32.963196"
               y2="5"
               style="visibility:inherit"
               fill="#000000"
               stroke="#cccccc"
               stroke-width="1px"
               id="line57" />
            <line
               x1="66.889854"
               y1="0"
               x2="66.889854"
               y2="5"
               style="visibility:inherit"
               fill="#000000"
               stroke="#cccccc"
               stroke-width="1px"
               id="line58" />
            <line
               x1="100.81652"
               y1="0"
               x2="100.81652"
               y2="5"
               style="visibility:inherit"
               fill="#000000"
               stroke="#cccccc"
               stroke-width="1px"
               id="line59" />
            <line
               x1="134.74318"
               y1="0"
               x2="134.74318"
               y2="5"
               style="visibility:inherit"
               fill="#000000"
               stroke="#cccccc"
               stroke-width="1px"
               id="line60" />
            <line
               x1="168.66985"
               y1="0"
               x2="168.66985"
               y2="5"
               style="visibility:inherit"
               fill="#000000"
               stroke="#cccccc"
               stroke-width="1px"
               id="line61" />
            <line
               x1="202.5965"
               y1="0"
               x2="202.5965"
               y2="5"
               style="visibility:inherit"
               fill="#000000"
               stroke="#cccccc"
               stroke-width="1px"
               id="line62" />
            <line
               x1="236.52316"
               y1="0"
               x2="236.52316"
               y2="5"
               style="visibility:inherit"
               fill="#000000"
               stroke="#cccccc"
               stroke-width="1px"
               id="line63" />
            <line
               x1="270.44983"
               y1="0"
               x2="270.44983"
               y2="5"
               style="visibility:inherit"
               fill="#000000"
               stroke="#cccccc"
               stroke-width="1px"
               id="line64" />
          </g>
          <g
             transform="translate(0,8)"
             id="g71">
            <text
               style="font-weight:200;font-size:12px;font-family:Roboto, sans-serif;text-anchor:middle;visibility:inherit"
               x="32.963196"
               y="0"
               dx="0em"
               dy="0.94999999em"
               fill="#212121"
               stroke="none"
               stroke-width="1px"
               id="text64">70</text>
            <text
               style="font-weight:200;font-size:12px;font-family:Roboto, sans-serif;text-anchor:middle;visibility:inherit"
               x="66.889854"
               y="0"
               dx="0em"
               dy="0.94999999em"
               fill="#212121"
               stroke="none"
               stroke-width="1px"
               id="text65">75</text>
            <text
               style="font-weight:200;font-size:12px;font-family:Roboto, sans-serif;text-anchor:middle;visibility:inherit"
               x="100.81652"
               y="0"
               dx="0em"
               dy="0.94999999em"
               fill="#212121"
               stroke="none"
               stroke-width="1px"
               id="text66">80</text>
            <text
               style="font-weight:200;font-size:12px;font-family:Roboto, sans-serif;text-anchor:middle;visibility:inherit"
               x="134.74318"
               y="0"
               dx="0em"
               dy="0.94999999em"
               fill="#212121"
               stroke="none"
               stroke-width="1px"
               id="text67">85</text>
            <text
               style="font-weight:200;font-size:12px;font-family:Roboto, sans-serif;text-anchor:middle;visibility:inherit"
               x="168.66985"
               y="0"
               dx="0em"
               dy="0.94999999em"
               fill="#212121"
               stroke="none"
               stroke-width="1px"
               id="text68">90</text>
            <text
               style="font-weight:200;font-size:12px;font-family:Roboto, sans-serif;text-anchor:middle;visibility:inherit"
               x="202.5965"
               y="0"
               dx="0em"
               dy="0.94999999em"
               fill="#212121"
               stroke="none"
               stroke-width="1px"
               id="text69">95</text>
            <text
               style="font-weight:200;font-size:12px;font-family:Roboto, sans-serif;text-anchor:middle;visibility:inherit"
               x="236.52316"
               y="0"
               dx="0em"
               dy="0.94999999em"
               fill="#212121"
               stroke="none"
               stroke-width="1px"
               id="text70">100</text>
            <text
               style="font-weight:200;font-size:12px;font-family:Roboto, sans-serif;text-anchor:middle;visibility:hidden"
               x="270.44983"
               y="0"
               dx="0em"
               dy="0.94999999em"
               fill="#212121"
               stroke="none"
               stroke-width="1px"
               id="text71">105</text>
          </g>
          <line
             x1="0"
             y1="0"
             x2="278.46799"
             y2="0"
             fill="#000000"
             stroke="#cccccc"
             stroke-width="1px"
             id="line71" />
        </g>
      </g>
    </g>
  </g>
</svg>
