<?xml version="1.0" encoding="UTF-8" standalone="no"?>
<svg
   viewBox="0 0 310.27997 195.532"
   version="1.1"
   id="svg81"
   sodipodi:docname="2024-08-yolo-model-recall.svg"
   width="310.27997"
   height="195.532"
   inkscape:version="1.3.2 (091e20ef0f, 2023-11-25, custom)"
   xmlns:inkscape="http://www.inkscape.org/namespaces/inkscape"
   xmlns:sodipodi="http://sodipodi.sourceforge.net/DTD/sodipodi-0.dtd"
   xmlns="http://www.w3.org/2000/svg"
   xmlns:svg="http://www.w3.org/2000/svg">
  <defs
     id="defs81" />
  <sodipodi:namedview
     id="namedview81"
     pagecolor="#ffffff"
     bordercolor="#000000"
     borderopacity="0.25"
     inkscape:showpageshadow="2"
     inkscape:pageopacity="0.0"
     inkscape:pagecheckerboard="0"
     inkscape:deskcolor="#d1d1d1"
     inkscape:zoom="1.485"
     inkscape:cx="146.12795"
     inkscape:cy="100"
     inkscape:window-width="1890"
     inkscape:window-height="501"
     inkscape:window-x="12"
     inkscape:window-y="533"
     inkscape:window-maximized="1"
     inkscape:current-layer="svg81" />
  <g
     id="g81"
     transform="translate(-18.720038)">
    <g
       id="g80">
      <g
         id="g15">
        <g
           id="g14">
          <g
             id="g7">
            <line
               x1="51.532001"
               y1="165.0927"
               x2="46.532001"
               y2="165.0927"
               style="visibility:inherit"
               fill="#000000"
               stroke="#cccccc"
               stroke-width="1px"
               id="line1" />
            <line
               x1="51.532001"
               y1="141.02205"
               x2="46.532001"
               y2="141.02205"
               style="visibility:inherit"
               fill="#000000"
               stroke="#cccccc"
               stroke-width="1px"
               id="line2" />
            <line
               x1="51.532001"
               y1="116.95141"
               x2="46.532001"
               y2="116.95141"
               style="visibility:inherit"
               fill="#000000"
               stroke="#cccccc"
               stroke-width="1px"
               id="line3" />
            <line
               x1="51.532001"
               y1="92.88076"
               x2="46.532001"
               y2="92.88076"
               style="visibility:inherit"
               fill="#000000"
               stroke="#cccccc"
               stroke-width="1px"
               id="line4" />
            <line
               x1="51.532001"
               y1="68.810112"
               x2="46.532001"
               y2="68.810112"
               style="visibility:inherit"
               fill="#000000"
               stroke="#cccccc"
               stroke-width="1px"
               id="line5" />
            <line
               x1="51.532001"
               y1="44.739468"
               x2="46.532001"
               y2="44.739468"
               style="visibility:inherit"
               fill="#000000"
               stroke="#cccccc"
               stroke-width="1px"
               id="line6" />
            <line
               x1="51.532001"
               y1="20.668819"
               x2="46.532001"
               y2="20.668819"
               style="visibility:inherit"
               fill="#000000"
               stroke="#cccccc"
               stroke-width="1px"
               id="line7" />
          </g>
          <g
             transform="translate(41.532001)"
             id="g13">
            <text
               style="font-weight:200;font-size:12px;font-family:Roboto, sans-serif;text-anchor:end;visibility:inherit"
               x="0"
               y="165.0927"
               dx="0em"
               dy="0.30000001em"
               fill="#212121"
               stroke="none"
               stroke-width="1px"
               id="text7">0.66</text>
            <text
               style="font-weight:200;font-size:12px;font-family:Roboto, sans-serif;text-anchor:end;visibility:hidden"
               x="0"
               y="141.02205"
               dx="0em"
               dy="0.30000001em"
               fill="#212121"
               stroke="none"
               stroke-width="1px"
               id="text8">0.68</text>
            <text
               style="font-weight:200;font-size:12px;font-family:Roboto, sans-serif;text-anchor:end;visibility:inherit"
               x="0"
               y="116.95141"
               dx="0em"
               dy="0.30000001em"
               fill="#212121"
               stroke="none"
               stroke-width="1px"
               id="text9">0.7</text>
            <text
               style="font-weight:200;font-size:12px;font-family:Roboto, sans-serif;text-anchor:end;visibility:hidden"
               x="0"
               y="92.88076"
               dx="0em"
               dy="0.30000001em"
               fill="#212121"
               stroke="none"
               stroke-width="1px"
               id="text10">0.72</text>
            <text
               style="font-weight:200;font-size:12px;font-family:Roboto, sans-serif;text-anchor:end;visibility:inherit"
               x="0"
               y="68.810112"
               dx="0em"
               dy="0.30000001em"
               fill="#212121"
               stroke="none"
               stroke-width="1px"
               id="text11">0.74</text>
            <text
               style="font-weight:200;font-size:12px;font-family:Roboto, sans-serif;text-anchor:end;visibility:hidden"
               x="0"
               y="44.739468"
               dx="0em"
               dy="0.30000001em"
               fill="#212121"
               stroke="none"
               stroke-width="1px"
               id="text12">0.76</text>
            <text
               style="font-weight:200;font-size:12px;font-family:Roboto, sans-serif;text-anchor:end;visibility:inherit"
               x="0"
               y="20.668819"
               dx="0em"
               dy="0.30000001em"
               fill="#212121"
               stroke="none"
               stroke-width="1px"
               id="text13">0.78</text>
          </g>
          <line
             x1="51.532001"
             y1="0"
             x2="51.532001"
             y2="176.895"
             fill="#000000"
             stroke="#cccccc"
             stroke-width="1px"
             id="line13" />
        </g>
      </g>
      <g
         transform="translate(51)"
         clip-path="url(#clip_0)"
         id="g55">
        <clipPath
           id="clip_0">
          <rect
             width="278"
             height="176"
             id="rect15"
             x="0"
             y="0" />
        </clipPath>
        <g
           id="g35">
          <g
             id="g34">
            <g
               id="g26">
              <line
                 x1="0.32925305"
                 y1="0"
                 x2="0.32925305"
                 y2="176.895"
                 fill="#000000"
                 stroke="#424242"
                 stroke-width="1px"
                 opacity="0.25"
                 id="line15" />
              <line
                 x1="23.742426"
                 y1="0"
                 x2="23.742426"
                 y2="176.895"
                 fill="#000000"
                 stroke="#424242"
                 stroke-width="1px"
                 opacity="0.25"
                 id="line16" />
              <line
                 x1="47.155598"
                 y1="0"
                 x2="47.155598"
                 y2="176.895"
                 fill="#000000"
                 stroke="#424242"
                 stroke-width="1px"
                 opacity="0.25"
                 id="line17" />
              <line
                 x1="70.568771"
                 y1="0"
                 x2="70.568771"
                 y2="176.895"
                 fill="#000000"
                 stroke="#424242"
                 stroke-width="1px"
                 opacity="0.25"
                 id="line18" />
              <line
                 x1="93.981941"
                 y1="0"
                 x2="93.981941"
                 y2="176.895"
                 fill="#000000"
                 stroke="#424242"
                 stroke-width="1px"
                 opacity="0.25"
                 id="line19" />
              <line
                 x1="117.39511"
                 y1="0"
                 x2="117.39511"
                 y2="176.895"
                 fill="#000000"
                 stroke="#424242"
                 stroke-width="1px"
                 opacity="0.25"
                 id="line20" />
              <line
                 x1="140.80829"
                 y1="0"
                 x2="140.80829"
                 y2="176.895"
                 fill="#000000"
                 stroke="#424242"
                 stroke-width="1px"
                 opacity="0.25"
                 id="line21" />
              <line
                 x1="164.22145"
                 y1="0"
                 x2="164.22145"
                 y2="176.895"
                 fill="#000000"
                 stroke="#424242"
                 stroke-width="1px"
                 opacity="0.25"
                 id="line22" />
              <line
                 x1="187.63463"
                 y1="0"
                 x2="187.63463"
                 y2="176.895"
                 fill="#000000"
                 stroke="#424242"
                 stroke-width="1px"
                 opacity="0.25"
                 id="line23" />
              <line
                 x1="211.04781"
                 y1="0"
                 x2="211.04781"
                 y2="176.895"
                 fill="#000000"
                 stroke="#424242"
                 stroke-width="1px"
                 opacity="0.25"
                 id="line24" />
              <line
                 x1="234.46097"
                 y1="0"
                 x2="234.46097"
                 y2="176.895"
                 fill="#000000"
                 stroke="#424242"
                 stroke-width="1px"
                 opacity="0.25"
                 id="line25" />
              <line
                 x1="257.87415"
                 y1="0"
                 x2="257.87415"
                 y2="176.895"
                 fill="#000000"
                 stroke="#424242"
                 stroke-width="1px"
                 opacity="0.25"
                 id="line26" />
            </g>
            <g
               id="g33">
              <line
                 x1="0"
                 y1="165.0927"
                 x2="278.46799"
                 y2="165.0927"
                 fill="#000000"
                 stroke="#424242"
                 stroke-width="1px"
                 opacity="0.25"
                 id="line27" />
              <line
                 x1="0"
                 y1="141.02205"
                 x2="278.46799"
                 y2="141.02205"
                 fill="#000000"
                 stroke="#424242"
                 stroke-width="1px"
                 opacity="0.25"
                 id="line28" />
              <line
                 x1="0"
                 y1="116.95141"
                 x2="278.46799"
                 y2="116.95141"
                 fill="#000000"
                 stroke="#424242"
                 stroke-width="1px"
                 opacity="0.25"
                 id="line29" />
              <line
                 x1="0"
                 y1="92.88076"
                 x2="278.46799"
                 y2="92.88076"
                 fill="#000000"
                 stroke="#424242"
                 stroke-width="1px"
                 opacity="0.25"
                 id="line30" />
              <line
                 x1="0"
                 y1="68.810112"
                 x2="278.46799"
                 y2="68.810112"
                 fill="#000000"
                 stroke="#424242"
                 stroke-width="1px"
                 opacity="0.25"
                 id="line31" />
              <line
                 x1="0"
                 y1="44.739468"
                 x2="278.46799"
                 y2="44.739468"
                 fill="#000000"
                 stroke="#424242"
                 stroke-width="1px"
                 opacity="0.25"
                 id="line32" />
              <line
                 x1="0"
                 y1="20.668819"
                 x2="278.46799"
                 y2="20.668819"
                 fill="#000000"
                 stroke="#424242"
                 stroke-width="1px"
                 opacity="0.25"
                 id="line33" />
            </g>
          </g>
        </g>
        <g
           id="g37">
          <g
             id="g36">
            <line
               x1="0"
               y1="959.42407"
               x2="278.46799"
               y2="959.42407"
               fill="#000000"
               stroke="#999999"
               stroke-width="1.5px"
               id="line35" />
          </g>
        </g>
        <g
           id="g39">
          <g
             id="g38">
            <line
               x1="-210.3893"
               y1="0"
               x2="-210.3893"
               y2="176.895"
               fill="#000000"
               stroke="#999999"
               stroke-width="1.5px"
               id="line37" />
          </g>
        </g>
        <g
           id="g54">
          <g
             id="g46">
            <g
               id="g45">
              <g
                 id="g44">
                <g
                   id="g40">
                  <path
                     style="fill:none"
                     stroke="#33bbee"
                     stroke-width="2px"
                     d="m -4.3533814,110.684 4.68263445,-5.81397 4.68263445,-2.09838 4.6826344,-11.333028 4.6826341,-5.95811 4.682635,5.693462 4.682634,11.878186 4.682635,-8.18929 4.682634,-10.931768 4.682635,10.104669 4.682634,1.151896 4.682634,-9.057834 4.682635,-4.365473 4.682634,12.856072 4.682635,-12.364656 4.682634,-13.071032 4.682635,-12.132059 4.682634,14.748963 4.682634,-19.798933 4.682635,-11.808448 4.682634,3.493804 4.682635,4.640916 4.682634,14.863931 4.682634,12.71553 4.68263,2.817017 4.68264,15.648855 4.68263,4.996715 4.68264,3.497695 4.68263,-9.387139 4.68264,-4.599628 4.68263,-4.079044 4.68264,1.950357 4.68263,3.336645 4.68263,0.364256 4.68264,-5.662776 4.68263,-9.885337 4.68264,-12.837492 4.68263,2.762625 4.68264,-5.868649 4.68263,-6.426063 4.68264,-6.126619 4.68263,11.493285 4.68263,-1.396408 4.68264,4.806691 4.68263,7.022214 4.68264,-2.659483 4.68263,-4.150766 4.68264,8.933613 4.68263,3.791115 4.68264,7.08759 4.68263,4.961312 4.68263,7.419302 4.68264,-11.653537 4.68263,-9.067355 4.68264,-8.318521 4.68263,-7.797975 4.68264,8.353425"
                     fill="none"
                     id="path39" />
                </g>
                <g
                   id="g41">
                  <path
                     style="fill:none"
                     stroke="#0077bb"
                     stroke-width="2px"
                     d="m -4.3533814,97.656048 4.68263445,5.987182 4.68263445,-1.73034 4.6826344,10.62791 4.6826341,-2.3199 4.682635,-15.539179 4.682634,-10.877423 4.682635,8.167721 4.682634,5.717405 4.682635,0.0558 4.682634,0.03906 4.682634,4.147036 4.682635,10.56821 4.682634,-4.28253 4.682635,22.52193 4.682634,-7.8985 4.682635,-7.4895 4.682634,2.65011 4.682634,-3.71246 4.682635,-22.529219 4.682634,-8.318173 4.682635,0.383888 4.682634,-17.488206 4.682634,2.706133 4.68263,0.760576 4.68264,2.503776 4.68263,9.645409 4.68264,-0.108345 4.68263,-0.317757 4.68264,4.904629 4.68263,0.0032 4.68264,-10.378253 4.68263,-9.23615 4.68263,-7.451002 4.68264,-6.205015 4.68263,-4.292957 4.68264,-1.564445 4.68263,1.360094 4.68264,2.927076 4.68263,0.07394 4.68264,0.412837 4.68263,-7.275222 4.68263,-1.835908 4.68264,-1.685896 4.68263,5.142027 4.68264,3.400825 4.68263,10.468322 4.68264,-1.03431 4.68263,9.613107 4.68264,2.782792 4.68263,-9.891195 4.68263,-2.90523 4.68264,-0.130874 4.68263,-0.09161 4.68264,9.933613 4.68263,-0.910357 4.68264,-8.69153"
                     fill="none"
                     id="path40" />
                </g>
                <g
                   id="g42">
                  <path
                     style="fill:none"
                     stroke="#cc3311"
                     stroke-width="2px"
                     d="m -4.3533814,30.661725 4.68263445,0.605501 4.68263445,-7.638607 4.6826344,6.492125 4.6826341,12.60333 4.682635,10.714292 4.682634,-3.9853 4.682635,3.258033 4.682634,9.602914 4.682635,-13.00626 4.682634,8.652524 4.682634,4.085394 4.682635,16.681144 4.682634,9.690966 4.682635,-10.973251 4.682634,-12.501405 4.682635,8.969811 4.682634,-8.593171 4.682634,-13.879104 4.682635,4.066268 4.682634,2.846388 4.682635,-5.900295 4.682634,-6.10158 4.682634,-2.299732 4.68263,3.177841 4.68264,7.127689 4.68263,-0.755089 4.68264,1.594469 4.68263,-6.910219 4.68264,1.066163 4.68263,4.692697 4.68264,-4.607878 4.68263,-7.171898 4.68263,-2.023531 4.68264,-0.466886 4.68263,-3.374149 4.68264,2.877063 4.68263,-2.149067 4.68264,-1.504348 4.68263,-3.219395 4.68264,-4.889319 4.68263,-3.371971 4.68263,-5.501604 4.68264,-1.879728 4.68263,0.666388 4.68264,2.430636 4.68263,1.553424 4.68264,-0.735955 4.68263,-4.461552 4.68264,-3.123087 4.68263,-0.214766 4.68263,3.796026 4.68264,2.657218 4.68263,-2.086309 4.68264,2.485945 4.68263,3.715172 4.68264,-0.804751"
                     fill="none"
                     id="path41" />
                </g>
                <g
                   id="g43">
                  <path
                     style="fill:none"
                     stroke="#ff7043"
                     stroke-width="2px"
                     d="m -4.3533814,57.916769 4.68263445,10.420601 4.68263445,-8.577778 4.6826344,-1.747536 4.6826341,2.553394 4.682635,2.267592 4.682634,8.700187 4.682635,2.392895 4.682634,5.072585 4.682635,6.883397 4.682634,-1.066904 4.682634,-3.30312 4.682635,-4.016398 4.682634,-2.811478 4.682635,3.047094 4.682634,5.635246 4.682635,-8.974049 4.682634,7.488982 4.682634,-1.570907 4.682635,-8.764927 4.682634,-5.283352 4.682635,-1.387569 4.682634,-3.282076 4.682634,-10.417695 4.68263,0.827855 4.68264,10.833596 4.68263,7.511293 4.68264,-2.288247 4.68263,0.01939 4.68264,-0.834906 4.68263,1.968259 4.68264,2.229878 4.68263,0.708818 4.68263,5.605155 4.68264,9.913588 4.68263,4.357937 4.68264,-6.095088 4.68263,-11.043646 4.68264,-4.582118 4.68263,-0.654789 4.68264,-1.306832 4.68263,-1.766901 4.68263,-4.645214 4.68264,3.561545 4.68263,-0.359289 4.68264,-1.818521 4.68263,-1.110483 4.68264,-1.629433 4.68263,-2.844796 4.68264,-2.843474 4.68263,-0.622008 4.68263,3.308789 4.68264,2.316153 4.68263,5.878192 4.68264,4.779083 4.68263,1.828914 4.68264,-3.470829"
                     fill="none"
                     id="path42" />
                </g>
              </g>
            </g>
          </g>
          <g
             opacity="0.2"
             id="g53">
            <g
               id="g52">
              <g
                 id="g51">
                <g
                   id="g47">
                  <path
                     style="fill:none"
                     stroke="#33bbee"
                     stroke-width="2px"
                     d="m -4.3533814,139.97498 4.68263445,-48.670871 4.68263445,6.571316 4.6826344,-32.880537 4.6826341,6.583367 4.682635,32.880465 4.682634,26.30922 4.682635,-55.013423 4.682634,-17.330872 4.682635,59.189685 4.682634,-19.737905 4.682634,-32.880537 4.682635,6.583367 4.682634,53.039675 4.682635,-71.213016 4.682634,-14.719247 4.682635,-9.941119 4.682634,77.471352 4.682634,-100.4106975 4.682635,6.8360215 4.682634,39.199054 4.682635,7.317514 4.682634,38.717633 4.682634,7.702595 4.68263,-20.279515 4.68264,45.589805 4.68263,-19.85827 h 4.68264 l 4.68263,-39.451785 4.68264,6.571244 4.68263,-2.864352 4.68264,16.018962 4.68263,6.571316 4.68263,-6.571316 4.68264,-19.725854 4.68263,-19.737977 4.68264,-19.725854 4.68263,39.162898 4.68264,-26.008288 4.68263,-7.726697 4.68264,-5.427913 4.68263,52.60639 4.68263,-31.472356 4.68264,19.280588 4.68263,12.191768 4.68264,-25.250109 4.68263,-7.630427 4.68264,39.463831 4.68263,-8.208046 4.68264,14.779362 h 4.68263 l 4.68263,13.154615 4.68264,-56.156831 4.68263,-3.032931 4.68264,-6.571244 4.68263,-6.583367 4.68264,46.040025"
                     fill="none"
                     id="path46" />
                </g>
                <g
                   id="g48">
                  <path
                     style="fill:none"
                     stroke="#0077bb"
                     stroke-width="2px"
                     d="M -4.3533814,101.9674 0.32925305,117.61333 5.0118875,97.875425 9.6945219,137.33926 14.377156,104.80779 19.059791,58.423645 h 4.682634 l 4.682635,52.606395 h 4.682634 l 4.682635,-13.154615 h 4.682634 l 4.682634,13.732305 4.682635,25.55097 4.682634,-38.934279 4.682635,85.065689 4.682634,-78.87952 4.682635,-6.535165 4.682634,26.309225 4.682634,-18.5585 4.682635,-66.434958 4.682634,24.840926 4.682635,20.688696 4.682634,-59.189757 4.682634,49.826257 4.68263,-3.779059 4.68264,6.571244 4.68263,26.309221 4.68264,-22.867107 4.68263,-0.806386 4.68264,17.090198 4.68263,-11.43359 4.68264,-34.601557 4.68263,-6.571244 4.68263,-3.285657 4.68264,-3.29771 4.68263,0.168508 4.68264,4.802088 4.68263,8.184015 4.68264,6.583367 4.68263,-6.583367 4.68264,1.203588 4.68263,-25.214025 4.68263,10.855826 4.68264,-1.33587 4.68263,21.073848 4.68264,-0.661981 4.68263,26.95915 4.68264,-27.873786 4.68263,34.457081 4.68264,-13.15461 4.68263,-39.463832 4.68263,13.395357 4.68264,6.342621 h 4.68263 l 4.68264,33.325802 4.68263,-26.212951 4.68264,-26.847601"
                     fill="none"
                     id="path47" />
                </g>
                <g
                   id="g49">
                  <path
                     style="fill:none"
                     stroke="#cc3311"
                     stroke-width="2px"
                     d="M -4.3533814,38.685667 0.32925305,32.680063 5.0118875,5.8052025 9.6945219,45.269034 l 4.6826341,26.862809 4.682635,6.306537 4.682634,-38.284346 4.682635,20.15914 4.682634,24.40764 4.682635,-65.761001 4.682634,59.189686 4.682634,-6.571244 4.682635,46.071235 4.682634,-6.61945 4.682635,-59.189762 4.682634,-16.067097 4.682635,59.069312 4.682634,-49.573459 4.682634,-26.212951 4.682635,45.938805 h 4.682634 l 4.682635,-26.309221 4.682634,-6.571243 4.682634,6.571243 4.68263,15.958847 4.68264,16.343999 4.68263,-19.148235 4.68264,7.076768 4.68263,-26.754487 4.68264,19.677719 4.68263,13.15461 4.68264,-26.309221 4.68263,-13.15461 4.68263,9.989326 4.68264,3.165284 4.68263,-10.157762 4.68264,17.463225 4.68263,-13.876706 h 4.68264 l 4.68263,-7.221173 4.68264,-8.785809 4.68263,0.168508 4.68263,-10.4707475 4.68264,6.5713155 4.68263,6.607327 4.68264,6.547212 4.68263,-0.493401 4.68264,-6.077843 4.68263,-13.1546105 h 4.68264 l 4.68263,6.5713155 4.68263,13.154539 h 4.68264 l 4.68263,-13.154539 4.68264,13.154539 4.68263,6.583367 4.68264,-11.351237"
                     fill="none"
                     id="path48" />
                </g>
                <g
                   id="g50">
                  <path
                     style="fill:none"
                     stroke="#ff7043"
                     stroke-width="2px"
                     d="M -4.3533814,56.77479 0.32925305,92.652103 5.0118875,39.744779 9.6945219,53.93447 l 4.6826341,12.5889 4.682635,1.60072 4.682634,23.709576 4.682635,-12.324122 4.682634,11.325196 4.682635,11.10862 4.682634,-19.6176 4.682634,-8.520959 4.682635,-5.680711 h 4.682634 l 4.682635,16.717097 4.682634,11.674264 4.682635,-43.062402 4.682634,45.902722 4.682634,-22.71065 4.682635,-25.550971 4.682634,2.84032 4.682635,7.702594 4.682634,-7.702594 4.682634,-27.067472 4.68263,27.067472 4.68264,34.180323 4.68263,-0.240746 4.68264,-25.153839 4.68263,5.403882 4.68264,-2.828269 4.68263,8.50898 4.68264,2.84032 4.68263,-2.84032 4.68263,17.029939 4.68264,19.9666 4.68263,-8.60525 4.68264,-30.485482 4.68263,-22.590277 4.68264,10.494779 4.68263,8.50898 4.68264,-2.828269 4.68263,-2.840391 4.68263,-11.36128 4.68264,22.710651 4.68263,-9.507905 4.68264,-5.223394 4.68263,0.541608 4.68264,-2.84032 4.68263,-5.68064 4.68264,-2.840391 4.68263,4.561413 4.68263,12.480649 h 4.68264 l 4.68263,14.18962 4.68264,2.214494 4.68263,-5.054814 4.68264,-15.836896"
                     fill="none"
                     id="path49" />
                </g>
              </g>
            </g>
          </g>
        </g>
      </g>
      <g
         transform="translate(51,176)"
         clip-path="url(#clip_1)"
         id="g79">
        <clipPath
           id="clip_1">
          <rect
             width="278"
             height="23"
             id="rect55"
             x="0"
             y="0" />
        </clipPath>
        <g
           id="g78">
          <g
             id="g66">
            <line
               x1="0.32925305"
               y1="0"
               x2="0.32925305"
               y2="5"
               style="visibility:inherit"
               fill="#000000"
               stroke="#cccccc"
               stroke-width="1px"
               id="line55" />
            <line
               x1="23.742426"
               y1="0"
               x2="23.742426"
               y2="5"
               style="visibility:inherit"
               fill="#000000"
               stroke="#cccccc"
               stroke-width="1px"
               id="line56" />
            <line
               x1="47.155598"
               y1="0"
               x2="47.155598"
               y2="5"
               style="visibility:inherit"
               fill="#000000"
               stroke="#cccccc"
               stroke-width="1px"
               id="line57" />
            <line
               x1="70.568771"
               y1="0"
               x2="70.568771"
               y2="5"
               style="visibility:inherit"
               fill="#000000"
               stroke="#cccccc"
               stroke-width="1px"
               id="line58" />
            <line
               x1="93.981941"
               y1="0"
               x2="93.981941"
               y2="5"
               style="visibility:inherit"
               fill="#000000"
               stroke="#cccccc"
               stroke-width="1px"
               id="line59" />
            <line
               x1="117.39511"
               y1="0"
               x2="117.39511"
               y2="5"
               style="visibility:inherit"
               fill="#000000"
               stroke="#cccccc"
               stroke-width="1px"
               id="line60" />
            <line
               x1="140.80829"
               y1="0"
               x2="140.80829"
               y2="5"
               style="visibility:inherit"
               fill="#000000"
               stroke="#cccccc"
               stroke-width="1px"
               id="line61" />
            <line
               x1="164.22145"
               y1="0"
               x2="164.22145"
               y2="5"
               style="visibility:inherit"
               fill="#000000"
               stroke="#cccccc"
               stroke-width="1px"
               id="line62" />
            <line
               x1="187.63463"
               y1="0"
               x2="187.63463"
               y2="5"
               style="visibility:inherit"
               fill="#000000"
               stroke="#cccccc"
               stroke-width="1px"
               id="line63" />
            <line
               x1="211.04781"
               y1="0"
               x2="211.04781"
               y2="5"
               style="visibility:inherit"
               fill="#000000"
               stroke="#cccccc"
               stroke-width="1px"
               id="line64" />
            <line
               x1="234.46097"
               y1="0"
               x2="234.46097"
               y2="5"
               style="visibility:inherit"
               fill="#000000"
               stroke="#cccccc"
               stroke-width="1px"
               id="line65" />
            <line
               x1="257.87415"
               y1="0"
               x2="257.87415"
               y2="5"
               style="visibility:inherit"
               fill="#000000"
               stroke="#cccccc"
               stroke-width="1px"
               id="line66" />
          </g>
          <g
             transform="translate(0,8)"
             id="g77">
            <text
               style="font-weight:200;font-size:12px;font-family:Roboto, sans-serif;text-anchor:middle;visibility:hidden"
               x="0.32925305"
               y="0"
               dx="0em"
               dy="0.94999999em"
               fill="#212121"
               stroke="none"
               stroke-width="1px"
               id="text66">45</text>
            <text
               style="font-weight:200;font-size:12px;font-family:Roboto, sans-serif;text-anchor:middle;visibility:inherit"
               x="23.742426"
               y="0"
               dx="0em"
               dy="0.94999999em"
               fill="#212121"
               stroke="none"
               stroke-width="1px"
               id="text67">50</text>
            <text
               style="font-weight:200;font-size:12px;font-family:Roboto, sans-serif;text-anchor:middle;visibility:inherit"
               x="47.155598"
               y="0"
               dx="0em"
               dy="0.94999999em"
               fill="#212121"
               stroke="none"
               stroke-width="1px"
               id="text68">55</text>
            <text
               style="font-weight:200;font-size:12px;font-family:Roboto, sans-serif;text-anchor:middle;visibility:inherit"
               x="70.568771"
               y="0"
               dx="0em"
               dy="0.94999999em"
               fill="#212121"
               stroke="none"
               stroke-width="1px"
               id="text69">60</text>
            <text
               style="font-weight:200;font-size:12px;font-family:Roboto, sans-serif;text-anchor:middle;visibility:inherit"
               x="93.981941"
               y="0"
               dx="0em"
               dy="0.94999999em"
               fill="#212121"
               stroke="none"
               stroke-width="1px"
               id="text70">65</text>
            <text
               style="font-weight:200;font-size:12px;font-family:Roboto, sans-serif;text-anchor:middle;visibility:inherit"
               x="117.39511"
               y="0"
               dx="0em"
               dy="0.94999999em"
               fill="#212121"
               stroke="none"
               stroke-width="1px"
               id="text71">70</text>
            <text
               style="font-weight:200;font-size:12px;font-family:Roboto, sans-serif;text-anchor:middle;visibility:inherit"
               x="140.80829"
               y="0"
               dx="0em"
               dy="0.94999999em"
               fill="#212121"
               stroke="none"
               stroke-width="1px"
               id="text72">75</text>
            <text
               style="font-weight:200;font-size:12px;font-family:Roboto, sans-serif;text-anchor:middle;visibility:inherit"
               x="164.22145"
               y="0"
               dx="0em"
               dy="0.94999999em"
               fill="#212121"
               stroke="none"
               stroke-width="1px"
               id="text73">80</text>
            <text
               style="font-weight:200;font-size:12px;font-family:Roboto, sans-serif;text-anchor:middle;visibility:inherit"
               x="187.63463"
               y="0"
               dx="0em"
               dy="0.94999999em"
               fill="#212121"
               stroke="none"
               stroke-width="1px"
               id="text74">85</text>
            <text
               style="font-weight:200;font-size:12px;font-family:Roboto, sans-serif;text-anchor:middle;visibility:inherit"
               x="211.04781"
               y="0"
               dx="0em"
               dy="0.94999999em"
               fill="#212121"
               stroke="none"
               stroke-width="1px"
               id="text75">90</text>
            <text
               style="font-weight:200;font-size:12px;font-family:Roboto, sans-serif;text-anchor:middle;visibility:inherit"
               x="234.46097"
               y="0"
               dx="0em"
               dy="0.94999999em"
               fill="#212121"
               stroke="none"
               stroke-width="1px"
               id="text76">95</text>
            <text
               style="font-weight:200;font-size:12px;font-family:Roboto, sans-serif;text-anchor:middle;visibility:inherit"
               x="257.87415"
               y="0"
               dx="0em"
               dy="0.94999999em"
               fill="#212121"
               stroke="none"
               stroke-width="1px"
               id="text77">100</text>
          </g>
          <line
             x1="0"
             y1="0"
             x2="278.46799"
             y2="0"
             fill="#000000"
             stroke="#cccccc"
             stroke-width="1px"
             id="line77" />
        </g>
      </g>
    </g>
  </g>
</svg>
