<?xml version="1.0" encoding="UTF-8" standalone="no"?>
<svg
   viewBox="0 0 310.27997 200.632"
   version="1.1"
   id="svg108"
   sodipodi:docname="2024-08-yolo-model-precision.svg"
   width="310.27997"
   height="200.632"
   inkscape:version="1.3.2 (091e20ef0f, 2023-11-25, custom)"
   xmlns:inkscape="http://www.inkscape.org/namespaces/inkscape"
   xmlns:sodipodi="http://sodipodi.sourceforge.net/DTD/sodipodi-0.dtd"
   xmlns="http://www.w3.org/2000/svg"
   xmlns:svg="http://www.w3.org/2000/svg">
  <defs
     id="defs108" />
  <sodipodi:namedview
     id="namedview108"
     pagecolor="#ffffff"
     bordercolor="#000000"
     borderopacity="0.25"
     inkscape:showpageshadow="2"
     inkscape:pageopacity="0.0"
     inkscape:pagecheckerboard="0"
     inkscape:deskcolor="#d1d1d1"
     inkscape:zoom="1.485"
     inkscape:cx="146.12795"
     inkscape:cy="105.05051"
     inkscape:window-width="1920"
     inkscape:window-height="1080"
     inkscape:window-x="0"
     inkscape:window-y="0"
     inkscape:window-maximized="1"
     inkscape:current-layer="svg108" />
  <g
     id="g108"
     transform="translate(-18.720038,5.0999999)">
    <g
       id="g107">
      <g
         id="g29">
        <g
           id="g28">
          <g
             id="g14">
            <line
               x1="51.532001"
               y1="176.10127"
               x2="46.532001"
               y2="176.10127"
               style="visibility:inherit"
               fill="#000000"
               stroke="#cccccc"
               stroke-width="1px"
               id="line1" />
            <line
               x1="51.532001"
               y1="162.55502"
               x2="46.532001"
               y2="162.55502"
               style="visibility:inherit"
               fill="#000000"
               stroke="#cccccc"
               stroke-width="1px"
               id="line2" />
            <line
               x1="51.532001"
               y1="149.00876"
               x2="46.532001"
               y2="149.00876"
               style="visibility:inherit"
               fill="#000000"
               stroke="#cccccc"
               stroke-width="1px"
               id="line3" />
            <line
               x1="51.532001"
               y1="135.46251"
               x2="46.532001"
               y2="135.46251"
               style="visibility:inherit"
               fill="#000000"
               stroke="#cccccc"
               stroke-width="1px"
               id="line4" />
            <line
               x1="51.532001"
               y1="121.91626"
               x2="46.532001"
               y2="121.91626"
               style="visibility:inherit"
               fill="#000000"
               stroke="#cccccc"
               stroke-width="1px"
               id="line5" />
            <line
               x1="51.532001"
               y1="108.37001"
               x2="46.532001"
               y2="108.37001"
               style="visibility:inherit"
               fill="#000000"
               stroke="#cccccc"
               stroke-width="1px"
               id="line6" />
            <line
               x1="51.532001"
               y1="94.823761"
               x2="46.532001"
               y2="94.823761"
               style="visibility:inherit"
               fill="#000000"
               stroke="#cccccc"
               stroke-width="1px"
               id="line7" />
            <line
               x1="51.532001"
               y1="81.277512"
               x2="46.532001"
               y2="81.277512"
               style="visibility:inherit"
               fill="#000000"
               stroke="#cccccc"
               stroke-width="1px"
               id="line8" />
            <line
               x1="51.532001"
               y1="67.731255"
               x2="46.532001"
               y2="67.731255"
               style="visibility:inherit"
               fill="#000000"
               stroke="#cccccc"
               stroke-width="1px"
               id="line9" />
            <line
               x1="51.532001"
               y1="54.185005"
               x2="46.532001"
               y2="54.185005"
               style="visibility:inherit"
               fill="#000000"
               stroke="#cccccc"
               stroke-width="1px"
               id="line10" />
            <line
               x1="51.532001"
               y1="40.638756"
               x2="46.532001"
               y2="40.638756"
               style="visibility:inherit"
               fill="#000000"
               stroke="#cccccc"
               stroke-width="1px"
               id="line11" />
            <line
               x1="51.532001"
               y1="27.092503"
               x2="46.532001"
               y2="27.092503"
               style="visibility:inherit"
               fill="#000000"
               stroke="#cccccc"
               stroke-width="1px"
               id="line12" />
            <line
               x1="51.532001"
               y1="13.546251"
               x2="46.532001"
               y2="13.546251"
               style="visibility:inherit"
               fill="#000000"
               stroke="#cccccc"
               stroke-width="1px"
               id="line13" />
            <line
               x1="51.532001"
               y1="0"
               x2="46.532001"
               y2="0"
               style="visibility:inherit"
               fill="#000000"
               stroke="#cccccc"
               stroke-width="1px"
               id="line14" />
          </g>
          <g
             transform="translate(41.532001)"
             id="g27">
            <text
               style="font-weight:200;font-size:12px;font-family:Roboto, sans-serif;text-anchor:end;visibility:hidden"
               x="0"
               y="176.10127"
               dx="0em"
               dy="0.30000001em"
               fill="#212121"
               stroke="none"
               stroke-width="1px"
               id="text14">0.77</text>
            <text
               style="font-weight:200;font-size:12px;font-family:Roboto, sans-serif;text-anchor:end;visibility:inherit"
               x="0"
               y="162.55502"
               dx="0em"
               dy="0.30000001em"
               fill="#212121"
               stroke="none"
               stroke-width="1px"
               id="text15">0.78</text>
            <text
               style="font-weight:200;font-size:12px;font-family:Roboto, sans-serif;text-anchor:end;visibility:hidden"
               x="0"
               y="149.00876"
               dx="0em"
               dy="0.30000001em"
               fill="#212121"
               stroke="none"
               stroke-width="1px"
               id="text16">0.79</text>
            <text
               style="font-weight:200;font-size:12px;font-family:Roboto, sans-serif;text-anchor:end;visibility:inherit"
               x="0"
               y="135.46251"
               dx="0em"
               dy="0.30000001em"
               fill="#212121"
               stroke="none"
               stroke-width="1px"
               id="text17">0.8</text>
            <text
               style="font-weight:200;font-size:12px;font-family:Roboto, sans-serif;text-anchor:end;visibility:hidden"
               x="0"
               y="121.91626"
               dx="0em"
               dy="0.30000001em"
               fill="#212121"
               stroke="none"
               stroke-width="1px"
               id="text18">0.81</text>
            <text
               style="font-weight:200;font-size:12px;font-family:Roboto, sans-serif;text-anchor:end;visibility:inherit"
               x="0"
               y="108.37001"
               dx="0em"
               dy="0.30000001em"
               fill="#212121"
               stroke="none"
               stroke-width="1px"
               id="text19">0.82</text>
            <text
               style="font-weight:200;font-size:12px;font-family:Roboto, sans-serif;text-anchor:end;visibility:hidden"
               x="0"
               y="94.823761"
               dx="0em"
               dy="0.30000001em"
               fill="#212121"
               stroke="none"
               stroke-width="1px"
               id="text20">0.83</text>
            <text
               style="font-weight:200;font-size:12px;font-family:Roboto, sans-serif;text-anchor:end;visibility:inherit"
               x="0"
               y="81.277512"
               dx="0em"
               dy="0.30000001em"
               fill="#212121"
               stroke="none"
               stroke-width="1px"
               id="text21">0.84</text>
            <text
               style="font-weight:200;font-size:12px;font-family:Roboto, sans-serif;text-anchor:end;visibility:hidden"
               x="0"
               y="67.731255"
               dx="0em"
               dy="0.30000001em"
               fill="#212121"
               stroke="none"
               stroke-width="1px"
               id="text22">0.85</text>
            <text
               style="font-weight:200;font-size:12px;font-family:Roboto, sans-serif;text-anchor:end;visibility:inherit"
               x="0"
               y="54.185005"
               dx="0em"
               dy="0.30000001em"
               fill="#212121"
               stroke="none"
               stroke-width="1px"
               id="text23">0.86</text>
            <text
               style="font-weight:200;font-size:12px;font-family:Roboto, sans-serif;text-anchor:end;visibility:hidden"
               x="0"
               y="40.638756"
               dx="0em"
               dy="0.30000001em"
               fill="#212121"
               stroke="none"
               stroke-width="1px"
               id="text24">0.87</text>
            <text
               style="font-weight:200;font-size:12px;font-family:Roboto, sans-serif;text-anchor:end;visibility:inherit"
               x="0"
               y="27.092503"
               dx="0em"
               dy="0.30000001em"
               fill="#212121"
               stroke="none"
               stroke-width="1px"
               id="text25">0.88</text>
            <text
               style="font-weight:200;font-size:12px;font-family:Roboto, sans-serif;text-anchor:end;visibility:hidden"
               x="0"
               y="13.546251"
               dx="0em"
               dy="0.30000001em"
               fill="#212121"
               stroke="none"
               stroke-width="1px"
               id="text26">0.89</text>
            <text
               style="font-weight:200;font-size:12px;font-family:Roboto, sans-serif;text-anchor:end;visibility:hidden"
               x="0"
               y="0"
               dx="0em"
               dy="0.30000001em"
               fill="#212121"
               stroke="none"
               stroke-width="1px"
               id="text27">0.9</text>
          </g>
          <line
             x1="51.532001"
             y1="0"
             x2="51.532001"
             y2="176.895"
             fill="#000000"
             stroke="#cccccc"
             stroke-width="1px"
             id="line27" />
        </g>
      </g>
      <g
         transform="translate(51)"
         clip-path="url(#clip_0)"
         id="g78">
        <clipPath
           id="clip_0">
          <rect
             width="278"
             height="176"
             id="rect29"
             x="0"
             y="0" />
        </clipPath>
        <g
           id="g58">
          <g
             id="g57">
            <g
               id="g42">
              <line
                 x1="6.8026996"
                 y1="0"
                 x2="6.8026996"
                 y2="176.895"
                 fill="#000000"
                 stroke="#424242"
                 stroke-width="1px"
                 opacity="0.25"
                 id="line29" />
              <line
                 x1="26.747253"
                 y1="0"
                 x2="26.747253"
                 y2="176.895"
                 fill="#000000"
                 stroke="#424242"
                 stroke-width="1px"
                 opacity="0.25"
                 id="line30" />
              <line
                 x1="46.691807"
                 y1="0"
                 x2="46.691807"
                 y2="176.895"
                 fill="#000000"
                 stroke="#424242"
                 stroke-width="1px"
                 opacity="0.25"
                 id="line31" />
              <line
                 x1="66.63636"
                 y1="0"
                 x2="66.63636"
                 y2="176.895"
                 fill="#000000"
                 stroke="#424242"
                 stroke-width="1px"
                 opacity="0.25"
                 id="line32" />
              <line
                 x1="86.580917"
                 y1="0"
                 x2="86.580917"
                 y2="176.895"
                 fill="#000000"
                 stroke="#424242"
                 stroke-width="1px"
                 opacity="0.25"
                 id="line33" />
              <line
                 x1="106.52547"
                 y1="0"
                 x2="106.52547"
                 y2="176.895"
                 fill="#000000"
                 stroke="#424242"
                 stroke-width="1px"
                 opacity="0.25"
                 id="line34" />
              <line
                 x1="126.47002"
                 y1="0"
                 x2="126.47002"
                 y2="176.895"
                 fill="#000000"
                 stroke="#424242"
                 stroke-width="1px"
                 opacity="0.25"
                 id="line35" />
              <line
                 x1="146.41458"
                 y1="0"
                 x2="146.41458"
                 y2="176.895"
                 fill="#000000"
                 stroke="#424242"
                 stroke-width="1px"
                 opacity="0.25"
                 id="line36" />
              <line
                 x1="166.35913"
                 y1="0"
                 x2="166.35913"
                 y2="176.895"
                 fill="#000000"
                 stroke="#424242"
                 stroke-width="1px"
                 opacity="0.25"
                 id="line37" />
              <line
                 x1="186.30368"
                 y1="0"
                 x2="186.30368"
                 y2="176.895"
                 fill="#000000"
                 stroke="#424242"
                 stroke-width="1px"
                 opacity="0.25"
                 id="line38" />
              <line
                 x1="206.24825"
                 y1="0"
                 x2="206.24825"
                 y2="176.895"
                 fill="#000000"
                 stroke="#424242"
                 stroke-width="1px"
                 opacity="0.25"
                 id="line39" />
              <line
                 x1="226.19279"
                 y1="0"
                 x2="226.19279"
                 y2="176.895"
                 fill="#000000"
                 stroke="#424242"
                 stroke-width="1px"
                 opacity="0.25"
                 id="line40" />
              <line
                 x1="246.13734"
                 y1="0"
                 x2="246.13734"
                 y2="176.895"
                 fill="#000000"
                 stroke="#424242"
                 stroke-width="1px"
                 opacity="0.25"
                 id="line41" />
              <line
                 x1="266.08191"
                 y1="0"
                 x2="266.08191"
                 y2="176.895"
                 fill="#000000"
                 stroke="#424242"
                 stroke-width="1px"
                 opacity="0.25"
                 id="line42" />
            </g>
            <g
               id="g56">
              <line
                 x1="0"
                 y1="176.10127"
                 x2="278.46799"
                 y2="176.10127"
                 fill="#000000"
                 stroke="#424242"
                 stroke-width="1px"
                 opacity="0.25"
                 id="line43" />
              <line
                 x1="0"
                 y1="162.55502"
                 x2="278.46799"
                 y2="162.55502"
                 fill="#000000"
                 stroke="#424242"
                 stroke-width="1px"
                 opacity="0.25"
                 id="line44" />
              <line
                 x1="0"
                 y1="149.00876"
                 x2="278.46799"
                 y2="149.00876"
                 fill="#000000"
                 stroke="#424242"
                 stroke-width="1px"
                 opacity="0.25"
                 id="line45" />
              <line
                 x1="0"
                 y1="135.46251"
                 x2="278.46799"
                 y2="135.46251"
                 fill="#000000"
                 stroke="#424242"
                 stroke-width="1px"
                 opacity="0.25"
                 id="line46" />
              <line
                 x1="0"
                 y1="121.91626"
                 x2="278.46799"
                 y2="121.91626"
                 fill="#000000"
                 stroke="#424242"
                 stroke-width="1px"
                 opacity="0.25"
                 id="line47" />
              <line
                 x1="0"
                 y1="108.37001"
                 x2="278.46799"
                 y2="108.37001"
                 fill="#000000"
                 stroke="#424242"
                 stroke-width="1px"
                 opacity="0.25"
                 id="line48" />
              <line
                 x1="0"
                 y1="94.823761"
                 x2="278.46799"
                 y2="94.823761"
                 fill="#000000"
                 stroke="#424242"
                 stroke-width="1px"
                 opacity="0.25"
                 id="line49" />
              <line
                 x1="0"
                 y1="81.277512"
                 x2="278.46799"
                 y2="81.277512"
                 fill="#000000"
                 stroke="#424242"
                 stroke-width="1px"
                 opacity="0.25"
                 id="line50" />
              <line
                 x1="0"
                 y1="67.731255"
                 x2="278.46799"
                 y2="67.731255"
                 fill="#000000"
                 stroke="#424242"
                 stroke-width="1px"
                 opacity="0.25"
                 id="line51" />
              <line
                 x1="0"
                 y1="54.185005"
                 x2="278.46799"
                 y2="54.185005"
                 fill="#000000"
                 stroke="#424242"
                 stroke-width="1px"
                 opacity="0.25"
                 id="line52" />
              <line
                 x1="0"
                 y1="40.638756"
                 x2="278.46799"
                 y2="40.638756"
                 fill="#000000"
                 stroke="#424242"
                 stroke-width="1px"
                 opacity="0.25"
                 id="line53" />
              <line
                 x1="0"
                 y1="27.092503"
                 x2="278.46799"
                 y2="27.092503"
                 fill="#000000"
                 stroke="#424242"
                 stroke-width="1px"
                 opacity="0.25"
                 id="line54" />
              <line
                 x1="0"
                 y1="13.546251"
                 x2="278.46799"
                 y2="13.546251"
                 fill="#000000"
                 stroke="#424242"
                 stroke-width="1px"
                 opacity="0.25"
                 id="line55" />
              <line
                 x1="0"
                 y1="0"
                 x2="278.46799"
                 y2="0"
                 fill="#000000"
                 stroke="#424242"
                 stroke-width="1px"
                 opacity="0.25"
                 id="line56" />
            </g>
          </g>
        </g>
        <g
           id="g60">
          <g
             id="g59">
            <line
               x1="0"
               y1="1219.1626"
               x2="278.46799"
               y2="1219.1626"
               fill="#000000"
               stroke="#999999"
               stroke-width="1.5px"
               id="line58" />
          </g>
        </g>
        <g
           id="g62">
          <g
             id="g61">
            <line
               x1="-132.80917"
               y1="0"
               x2="-132.80917"
               y2="176.895"
               fill="#000000"
               stroke="#999999"
               stroke-width="1.5px"
               id="line60" />
          </g>
        </g>
        <g
           id="g77">
          <g
             id="g69">
            <g
               id="g68">
              <g
                 id="g67">
                <g
                   id="g63">
                  <path
                     style="fill:none"
                     stroke="#33bbee"
                     stroke-width="2px"
                     d="m -1.1751218,94.992075 3.9889108,3.948392 3.9889108,10.822553 3.9889112,-30.336239 3.98891,-3.724061 3.988911,-10.807745 3.988911,-5.326204 3.988911,4.00114 3.988911,15.642648 3.98891,7.267992 3.988911,2.251007 3.988911,0.653211 3.988911,6.760304 3.988911,-0.737756 3.988911,-12.6471 3.98891,-3.350495 3.988911,-3.442581 3.988911,-16.157892 3.988911,21.549956 3.988911,-6.018716 3.98891,0.598521 3.988911,-0.24345 3.988911,-5.737927 3.988911,16.867703 3.988911,-31.586667 3.98891,13.460442 3.988912,15.700998 3.98891,12.766601 3.98891,-25.171468 3.98891,9.534774 3.98891,10.685384 3.98891,14.29082 3.98891,-1.54595 3.98891,-15.630826 3.98892,-6.276263 3.98891,-17.084855 3.98891,-7.172169 3.98891,-11.319528 3.98891,-0.01129 3.98891,23.538194 3.98891,15.176298 3.98891,11.643422 3.98891,-19.853772 3.98891,-8.070025 3.98891,2.62096 3.98891,-6.805136 3.98892,-1.813212 3.98891,5.029762 3.98891,12.550772 3.98891,-3.109446 3.98891,-0.567311 3.98891,10.656617 3.98891,-5.280601 3.98891,0.99329 3.98891,8.063111 3.98891,-6.206092 3.98891,4.61659 3.98891,4.438576 3.98892,-1.668043 3.98891,-2.313649 3.98891,-3.639307 3.98891,-14.48312 3.98891,-7.582 3.98891,14.487733 3.98891,7.804685 3.98891,-2.294658 3.98891,-2.837615 3.98891,-3.435689"
                     fill="none"
                     id="path62" />
                </g>
                <g
                   id="g64">
                  <path
                     style="fill:none"
                     stroke="#0077bb"
                     stroke-width="2px"
                     d="m -1.1751218,66.920739 3.9889108,-8.506413 3.9889108,-14.504901 3.9889112,7.349763 3.98891,13.796832 3.988911,4.651076 3.988911,29.512475 3.988911,9.962579 3.988911,-0.0201 3.98891,-20.971506 3.988911,15.148806 3.988911,-8.463539 3.988911,-0.982804 3.988911,19.867133 3.988911,-19.02667 3.98891,24.75173 3.988911,18.3056 3.988911,-14.64163 3.988911,-4.41341 3.988911,3.06332 3.98891,-12.6238 3.988911,1.2458 3.988911,-1.24928 3.988911,-14.947703 3.988911,12.891713 3.98891,13.91304 3.988912,-11.40522 3.98891,-10.295996 3.98891,3.891256 3.98891,-1.63667 3.98891,2.59311 3.98891,11.21492 3.98891,-0.97225 3.98891,-7.66229 3.98892,-2.60832 3.98891,3.1809 3.98891,-1.86571 3.98891,3.20083 3.98891,-4.86305 3.98891,8.7184 3.98891,9.58155 3.98891,1.67194 3.98891,-16.69036 3.98891,-6.33519 3.98891,-11.209116 3.98891,-3.652481 3.98892,-2.743662 3.98891,2.45624 3.98891,4.889184 3.98891,15.544965 3.98891,8.7967 3.98891,-16.965763 3.98891,-6.970939 3.98891,-6.119127 3.98891,-8.798357 3.98891,-2.334734 3.98891,-0.05348 3.98891,-3.85341 3.98892,17.219657 3.98891,12.472351 3.98891,10.266802 3.98891,2.61488 3.98891,-5.76902 3.98891,-0.14512 3.98891,1.78812 3.98891,-1.9466 3.98891,12.58867 3.98891,-12.5724"
                     fill="none"
                     id="path63" />
                </g>
                <g
                   id="g65">
                  <path
                     style="fill:none"
                     stroke="#cc3311"
                     stroke-width="2px"
                     d="m -1.1751218,85.511886 3.9889108,-4.61084 3.9889108,-5.084777 3.9889112,-6.35935 3.98891,6.447799 3.988911,-8.214636 3.988911,9.570608 3.988911,12.356319 3.988911,-13.571858 3.98891,-17.940974 3.988911,6.927619 3.988911,-3.103669 3.988911,-0.07562 3.988911,10.907351 3.988911,-8.543144 3.98891,-0.713412 3.988911,8.481766 3.988911,-13.601889 3.988911,14.97573 3.988911,2.127672 3.98891,10.994798 3.988911,-17.146132 3.988911,-5.227792 3.988911,10.921718 3.988911,5.271898 3.98891,14.053211 3.988912,6.468298 3.98891,-17.222063 3.98891,-4.976175 3.98891,-16.560854 3.98891,2.261146 3.98891,14.440902 3.98891,3.317902 3.98891,2.822388 3.98892,2.796576 3.98891,-10.920819 3.98891,-0.211752 3.98891,7.065163 3.98891,11.252739 3.98891,-3.790473 3.98891,-0.763629 3.98891,10.088449 3.98891,-2.244389 3.98891,-5.785289 3.98891,-0.818918 3.98891,-2.015939 3.98892,-2.402734 3.98891,1.398497 3.98891,3.071852 3.98891,0.17119 3.98891,-1.282195 3.98891,-3.413076 3.98891,-8.509352 3.98891,-8.683405 3.98891,0.639194 3.98891,-5.493952 3.98891,1.372262 3.98891,-6.078064 3.98892,0.170919 3.98891,-4.97645 3.98891,-2.943036 3.98891,2.276032 3.98891,-0.150173 3.98891,-1.360869 3.98891,-1.992944 3.98891,2.782608 3.98891,4.467411 3.98891,0.274397"
                     fill="none"
                     id="path64" />
                </g>
                <g
                   id="g66">
                  <path
                     style="fill:none"
                     stroke="#ff7043"
                     stroke-width="2px"
                     d="m -1.1751218,51.705201 3.9889108,4.828156 3.9889108,-2.02121 3.9889112,10.366375 3.98891,-14.286214 3.988911,12.501385 3.988911,10.514682 3.988911,-2.21422 3.988911,-3.66725 3.98891,-10.617598 3.988911,-3.140873 3.988911,-7.627935 3.988911,2.637817 3.988911,-5.748909 3.988911,4.668403 3.98891,8.258316 3.988911,-2.058407 3.988911,9.816053 3.988911,-1.435317 3.988911,6.062362 3.98891,7.072101 3.988911,-10.723892 3.988911,-8.957535 3.988911,-5.380265 3.988911,1.179534 3.98891,-5.375793 3.988912,0.455236 3.98891,5.05309 3.98891,11.538925 3.98891,3.391606 3.98891,-0.33648 3.98891,2.332833 3.98891,0.779574 3.98891,-2.908585 3.98892,-4.185812 3.98891,-0.341377 3.98891,6.238858 3.98891,1.534684 3.98891,-8.979765 3.98891,0.988497 3.98891,-5.607038 3.98891,-4.680817 3.98891,-3.414737 3.98891,0.243066 3.98891,2.100493 3.98891,-1.614135 3.98892,6.128185 3.98891,10.97887 3.98891,-2.81584 3.98891,-3.840489 3.98891,-1.538255 3.98891,-2.799876 3.98891,-4.386047 3.98891,1.005846 3.98891,2.321508 3.98891,0.686309 3.98891,-2.665032 3.98891,0.690663 3.98892,0.934561 3.98891,-0.487757 3.98891,1.666114 3.98891,-1.129803 3.98891,-0.628305 3.98891,3.209538 3.98891,0.04 3.98891,-9.956938 3.98891,-1.150405 3.98891,0.269303"
                     fill="none"
                     id="path65" />
                </g>
              </g>
            </g>
          </g>
          <g
             opacity="0.2"
             id="g76">
            <g
               id="g75">
              <g
                 id="g74">
                <g
                   id="g70">
                  <path
                     style="fill:none"
                     stroke="#33bbee"
                     stroke-width="2px"
                     d="m -1.1751218,127.83594 3.9889108,-19.68263 3.9889108,26.8622 3.9889112,-126.3730208 3.98891,58.3707788 3.988911,-27.336318 3.988911,7.464028 3.988911,25.764918 3.988911,42.806154 3.98891,-12.27286 3.988911,-9.455285 3.988911,-3.074976 3.988911,21.010181 3.988911,-18.233224 3.988911,-40.435568 3.98891,18.341583 3.988911,-3.657449 3.988911,-45.826951 3.988911,109.534939 3.988911,-70.345622 3.98891,16.038743 3.988911,-2.20805 3.988911,-18.558376 3.988911,69.614175 3.988911,-144.646863 3.98891,118.570363 3.988912,20.92896 3.98891,5.91968 3.98891,-113.693633 3.98891,90.516003 3.98891,13.37014 3.98891,22.70351 3.98891,-38.49841 3.98891,-48.495552 3.98892,15.551061 3.98891,-42.304906 3.98891,15.957435 3.98891,-20.996702 3.98891,26.3746 3.98891,78.486994 3.98891,-4.3348 3.98891,3.40005 3.98891,-93.347226 3.98891,19.425383 3.98891,27.566594 3.98891,-28.799362 3.98892,9.834611 3.98891,20.996702 3.98891,30.099788 3.98891,-39.649945 3.98891,5.364333 3.98891,36.845782 3.98891,-42.46744 3.98891,15.632368 3.98891,24.559362 3.98891,-39.500902 3.98891,29.869512 3.98891,4.02321 3.98892,-15.916818 3.98891,-3.820064 3.98891,-6.732506 3.98891,-39.785354 3.98891,8.520618 3.98891,65.983774 3.98891,-7.78909 3.98891,-25.859794 3.98891,-4.104517 3.98891,-4.831195"
                     fill="none"
                     id="path69" />
                </g>
                <g
                   id="g71">
                  <path
                     style="fill:none"
                     stroke="#0077bb"
                     stroke-width="2px"
                     d="m -1.1751218,18.260309 3.9889108,20.305874 3.9889108,-28.501344 3.9889112,58.34373 3.98891,28.839975 3.988911,-16.688957 3.988911,87.522333 3.988911,-35.65378 3.988911,-23.31311 3.98891,-69.858019 3.988911,99.429509 3.988911,-63.559009 3.988911,16.472246 3.988911,68.516973 3.988911,-109.778855 3.98891,126.901315 3.988911,3.26464 3.988911,-91.518498 3.988911,19.452428 3.988911,20.50902 3.98891,-49.227071 3.988911,33.608191 3.988911,-7.07114 3.988911,-46.910667 3.988911,77.850337 3.98891,16.29615 3.988912,-70.481183 3.98891,-7.707788 3.98891,36.994831 3.98891,-14.535166 3.98891,12.462606 3.98891,31.33247 3.98891,-29.40896 3.98891,-23.272413 3.98892,9.184316 3.98891,16.689037 3.98891,-13.64111 3.98891,15.02277 3.98891,-23.678791 3.98891,40.408441 3.98891,11.59559 3.98891,-16.78383 3.98891,-59.53572 3.98891,17.826854 3.98891,-22.581586 3.98891,13.979661 3.98892,-0.623085 3.98891,14.589343 3.98891,10.566053 3.98891,40.40844 3.98891,-6.94922 3.98891,-77.078201 3.98891,16.350326 3.98891,-4.131566 3.98891,-15.049896 3.98891,12.747055 3.98891,5.269462 3.98891,-12.719926 3.98892,66.390146 3.98891,1.39531 3.98891,5.12049 3.98891,-15.23956 3.98891,-25.331495 3.98891,12.977335 3.98891,6.299 3.98891,-10.66093 3.98891,46.5043 3.98891,-71.281579"
                     fill="none"
                     id="path70" />
                </g>
                <g
                   id="g72">
                  <path
                     style="fill:none"
                     stroke="#cc3311"
                     stroke-width="2px"
                     d="M -1.1751218,92.358327 2.813789,70.142503 6.8026998,63.951856 10.791611,54.61849 l 3.98891,36.331052 3.988911,-42.426908 3.988911,51.069445 3.988911,18.856311 3.988911,-74.070886 3.98891,-28.135582 3.988911,64.954315 3.988911,-26.510005 3.988911,6.989831 3.988911,36.534279 3.988911,-53.927629 3.98891,17.555964 3.988911,29.937178 3.988911,-65.130414 3.988911,81.656839 3.988911,-27.85113 3.98891,31.68476 3.988911,-82.808302 3.988911,22.581667 3.988911,48.603905 3.988911,-7.911012 3.98891,34.542942 3.988912,-11.22983 3.98891,-72.499574 3.98891,23.597562 3.98891,-43.591772 3.98891,46.179147 3.98891,42.860327 3.98891,-22.63576 3.98891,1.666191 3.98892,2.736345 3.98891,-42.928073 3.98891,24.776071 3.98891,24.044626 3.98891,21.02375 3.98891,-38.891294 3.98891,6.299003 3.98891,35.409951 3.98891,-31.02098 3.98891,-14.047404 3.98891,10.769281 3.98891,-4.808991 3.98892,-3.305253 3.98891,10.268035 3.98891,6.976347 3.98891,-6.597021 3.98891,-4.673425 3.98891,-8.385132 3.98891,-20.400665 3.98891,-9.089525 3.98891,22.391923 3.98891,-19.804628 3.98891,17.393431 3.98891,-23.462158 3.98892,14.751877 3.98891,-16.986976 3.98891,1.801596 3.98891,14.453858 3.98891,-5.811321 3.98891,-4.185824 3.98891,-3.467786 3.98891,13.925564 3.98891,8.398616 3.98891,-9.509302"
                     fill="none"
                     id="path71" />
                </g>
                <g
                   id="g73">
                  <path
                     style="fill:none"
                     stroke="#ff7043"
                     stroke-width="2px"
                     d="m -1.1751218,70.142503 3.9889108,-2.343536 3.9889108,-18.002952 3.9889112,39.270624 3.98891,-71.808741 3.988911,75.005638 3.988911,5.879064 3.988911,-31.914952 3.988911,-7.057654 3.98891,-26.835071 3.988911,14.304809 3.988911,-18.097743 3.988911,26.591231 3.988911,-25.317931 3.988911,28.975461 3.98891,16.634779 3.988911,-26.13076 3.988911,37.523126 3.988911,-27.688514 3.988911,23.556949 3.98891,9.428157 3.988911,-52.247874 3.988911,-4.83604 3.988911,2.966702 3.988911,16.48573 3.98891,-20.671554 3.988912,14.060968 3.98891,15.781418 3.98891,26.672538 3.98891,-15.618803 3.98891,-9.035348 3.98891,8.561231 3.98891,-2.8447 3.98891,-11.514287 3.98892,-7.16601 3.98891,8.628973 3.98891,21.592739 3.98891,-9.441721 3.98891,-33.513481 3.98891,24.247777 3.98891,-20.996621 3.98891,-2.519634 3.98891,-0.460552 3.98891,8.777942 3.98891,6.434488 3.98891,-10.2816 3.98892,24.193599 3.98891,22.297132 3.98891,-35.003492 3.98891,-6.231341 3.98891,3.833628 3.98891,-5.74366 3.98891,-8.087114 3.98891,13.586933 3.98891,5.391382 3.98891,-3.129154 3.98891,-10.484827 3.98891,8.520617 3.98892,1.503658 3.98891,-3.806499 3.98891,6.691812 3.98891,-7.65361 3.98891,0.541859 3.98891,12.164502 3.98891,-7.355592 3.98891,-33.283124 3.98891,19.398173 3.98891,3.581955"
                     fill="none"
                     id="path72" />
                </g>
              </g>
            </g>
          </g>
        </g>
      </g>
      <g
         transform="translate(51,176)"
         clip-path="url(#clip_1)"
         id="g106">
        <clipPath
           id="clip_1">
          <rect
             width="278"
             height="23"
             id="rect78"
             x="0"
             y="0" />
        </clipPath>
        <g
           id="g105">
          <g
             id="g91">
            <line
               x1="6.8026996"
               y1="0"
               x2="6.8026996"
               y2="5"
               style="visibility:inherit"
               fill="#000000"
               stroke="#cccccc"
               stroke-width="1px"
               id="line78" />
            <line
               x1="26.747253"
               y1="0"
               x2="26.747253"
               y2="5"
               style="visibility:inherit"
               fill="#000000"
               stroke="#cccccc"
               stroke-width="1px"
               id="line79" />
            <line
               x1="46.691807"
               y1="0"
               x2="46.691807"
               y2="5"
               style="visibility:inherit"
               fill="#000000"
               stroke="#cccccc"
               stroke-width="1px"
               id="line80" />
            <line
               x1="66.63636"
               y1="0"
               x2="66.63636"
               y2="5"
               style="visibility:inherit"
               fill="#000000"
               stroke="#cccccc"
               stroke-width="1px"
               id="line81" />
            <line
               x1="86.580917"
               y1="0"
               x2="86.580917"
               y2="5"
               style="visibility:inherit"
               fill="#000000"
               stroke="#cccccc"
               stroke-width="1px"
               id="line82" />
            <line
               x1="106.52547"
               y1="0"
               x2="106.52547"
               y2="5"
               style="visibility:inherit"
               fill="#000000"
               stroke="#cccccc"
               stroke-width="1px"
               id="line83" />
            <line
               x1="126.47002"
               y1="0"
               x2="126.47002"
               y2="5"
               style="visibility:inherit"
               fill="#000000"
               stroke="#cccccc"
               stroke-width="1px"
               id="line84" />
            <line
               x1="146.41458"
               y1="0"
               x2="146.41458"
               y2="5"
               style="visibility:inherit"
               fill="#000000"
               stroke="#cccccc"
               stroke-width="1px"
               id="line85" />
            <line
               x1="166.35913"
               y1="0"
               x2="166.35913"
               y2="5"
               style="visibility:inherit"
               fill="#000000"
               stroke="#cccccc"
               stroke-width="1px"
               id="line86" />
            <line
               x1="186.30368"
               y1="0"
               x2="186.30368"
               y2="5"
               style="visibility:inherit"
               fill="#000000"
               stroke="#cccccc"
               stroke-width="1px"
               id="line87" />
            <line
               x1="206.24825"
               y1="0"
               x2="206.24825"
               y2="5"
               style="visibility:inherit"
               fill="#000000"
               stroke="#cccccc"
               stroke-width="1px"
               id="line88" />
            <line
               x1="226.19279"
               y1="0"
               x2="226.19279"
               y2="5"
               style="visibility:inherit"
               fill="#000000"
               stroke="#cccccc"
               stroke-width="1px"
               id="line89" />
            <line
               x1="246.13734"
               y1="0"
               x2="246.13734"
               y2="5"
               style="visibility:inherit"
               fill="#000000"
               stroke="#cccccc"
               stroke-width="1px"
               id="line90" />
            <line
               x1="266.08191"
               y1="0"
               x2="266.08191"
               y2="5"
               style="visibility:inherit"
               fill="#000000"
               stroke="#cccccc"
               stroke-width="1px"
               id="line91" />
          </g>
          <g
             transform="translate(0,8)"
             id="g104">
            <text
               style="font-weight:200;font-size:12px;font-family:Roboto, sans-serif;text-anchor:middle;visibility:inherit"
               x="6.8026996"
               y="0"
               dx="0em"
               dy="0.94999999em"
               fill="#212121"
               stroke="none"
               stroke-width="1px"
               id="text91">35</text>
            <text
               style="font-weight:200;font-size:12px;font-family:Roboto, sans-serif;text-anchor:middle;visibility:hidden"
               x="26.747253"
               y="0"
               dx="0em"
               dy="0.94999999em"
               fill="#212121"
               stroke="none"
               stroke-width="1px"
               id="text92">40</text>
            <text
               style="font-weight:200;font-size:12px;font-family:Roboto, sans-serif;text-anchor:middle;visibility:inherit"
               x="46.691807"
               y="0"
               dx="0em"
               dy="0.94999999em"
               fill="#212121"
               stroke="none"
               stroke-width="1px"
               id="text93">45</text>
            <text
               style="font-weight:200;font-size:12px;font-family:Roboto, sans-serif;text-anchor:middle;visibility:hidden"
               x="66.63636"
               y="0"
               dx="0em"
               dy="0.94999999em"
               fill="#212121"
               stroke="none"
               stroke-width="1px"
               id="text94">50</text>
            <text
               style="font-weight:200;font-size:12px;font-family:Roboto, sans-serif;text-anchor:middle;visibility:inherit"
               x="86.580917"
               y="0"
               dx="0em"
               dy="0.94999999em"
               fill="#212121"
               stroke="none"
               stroke-width="1px"
               id="text95">55</text>
            <text
               style="font-weight:200;font-size:12px;font-family:Roboto, sans-serif;text-anchor:middle;visibility:hidden"
               x="106.52547"
               y="0"
               dx="0em"
               dy="0.94999999em"
               fill="#212121"
               stroke="none"
               stroke-width="1px"
               id="text96">60</text>
            <text
               style="font-weight:200;font-size:12px;font-family:Roboto, sans-serif;text-anchor:middle;visibility:inherit"
               x="126.47002"
               y="0"
               dx="0em"
               dy="0.94999999em"
               fill="#212121"
               stroke="none"
               stroke-width="1px"
               id="text97">65</text>
            <text
               style="font-weight:200;font-size:12px;font-family:Roboto, sans-serif;text-anchor:middle;visibility:hidden"
               x="146.41458"
               y="0"
               dx="0em"
               dy="0.94999999em"
               fill="#212121"
               stroke="none"
               stroke-width="1px"
               id="text98">70</text>
            <text
               style="font-weight:200;font-size:12px;font-family:Roboto, sans-serif;text-anchor:middle;visibility:inherit"
               x="166.35913"
               y="0"
               dx="0em"
               dy="0.94999999em"
               fill="#212121"
               stroke="none"
               stroke-width="1px"
               id="text99">75</text>
            <text
               style="font-weight:200;font-size:12px;font-family:Roboto, sans-serif;text-anchor:middle;visibility:hidden"
               x="186.30368"
               y="0"
               dx="0em"
               dy="0.94999999em"
               fill="#212121"
               stroke="none"
               stroke-width="1px"
               id="text100">80</text>
            <text
               style="font-weight:200;font-size:12px;font-family:Roboto, sans-serif;text-anchor:middle;visibility:inherit"
               x="206.24825"
               y="0"
               dx="0em"
               dy="0.94999999em"
               fill="#212121"
               stroke="none"
               stroke-width="1px"
               id="text101">85</text>
            <text
               style="font-weight:200;font-size:12px;font-family:Roboto, sans-serif;text-anchor:middle;visibility:hidden"
               x="226.19279"
               y="0"
               dx="0em"
               dy="0.94999999em"
               fill="#212121"
               stroke="none"
               stroke-width="1px"
               id="text102">90</text>
            <text
               style="font-weight:200;font-size:12px;font-family:Roboto, sans-serif;text-anchor:middle;visibility:inherit"
               x="246.13734"
               y="0"
               dx="0em"
               dy="0.94999999em"
               fill="#212121"
               stroke="none"
               stroke-width="1px"
               id="text103">95</text>
            <text
               style="font-weight:200;font-size:12px;font-family:Roboto, sans-serif;text-anchor:middle;visibility:hidden"
               x="266.08191"
               y="0"
               dx="0em"
               dy="0.94999999em"
               fill="#212121"
               stroke="none"
               stroke-width="1px"
               id="text104">100</text>
          </g>
          <line
             x1="0"
             y1="0"
             x2="278.46799"
             y2="0"
             fill="#000000"
             stroke="#cccccc"
             stroke-width="1px"
             id="line104" />
        </g>
      </g>
    </g>
  </g>
</svg>
