<?xml version="1.0" encoding="UTF-8" standalone="no"?>
<svg
   viewBox="0 0 306.74896 195.532"
   version="1.1"
   id="svg78"
   sodipodi:docname="2024-08-yolo-model-precision.svg"
   width="306.74896"
   height="195.532"
   inkscape:version="1.3.2 (091e20ef0f, 2023-11-25, custom)"
   xmlns:inkscape="http://www.inkscape.org/namespaces/inkscape"
   xmlns:sodipodi="http://sodipodi.sourceforge.net/DTD/sodipodi-0.dtd"
   xmlns="http://www.w3.org/2000/svg"
   xmlns:svg="http://www.w3.org/2000/svg">
  <defs
     id="defs78" />
  <sodipodi:namedview
     id="namedview78"
     pagecolor="#ffffff"
     bordercolor="#000000"
     borderopacity="0.25"
     inkscape:showpageshadow="2"
     inkscape:pageopacity="0.0"
     inkscape:pagecheckerboard="0"
     inkscape:deskcolor="#d1d1d1"
     inkscape:zoom="0.71515152"
     inkscape:cx="142.62712"
     inkscape:cy="100.67797"
     inkscape:window-width="935"
     inkscape:window-height="325"
     inkscape:window-x="967"
     inkscape:window-y="709"
     inkscape:window-maximized="1"
     inkscape:current-layer="svg78" />
  <g
     id="g78"
     transform="translate(-22.251049)">
    <g
       id="g77">
      <g
         id="g21">
        <g
           id="g20">
          <g
             id="g10">
            <line
               x1="61.915001"
               y1="160.34314"
               x2="56.915001"
               y2="160.34314"
               style="visibility:inherit"
               fill="#000000"
               stroke="#cccccc"
               stroke-width="1px"
               id="line1" />
            <line
               x1="61.915001"
               y1="143.59222"
               x2="56.915001"
               y2="143.59222"
               style="visibility:inherit"
               fill="#000000"
               stroke="#cccccc"
               stroke-width="1px"
               id="line2" />
            <line
               x1="61.915001"
               y1="126.84132"
               x2="56.915001"
               y2="126.84132"
               style="visibility:inherit"
               fill="#000000"
               stroke="#cccccc"
               stroke-width="1px"
               id="line3" />
            <line
               x1="61.915001"
               y1="110.09042"
               x2="56.915001"
               y2="110.09042"
               style="visibility:inherit"
               fill="#000000"
               stroke="#cccccc"
               stroke-width="1px"
               id="line4" />
            <line
               x1="61.915001"
               y1="93.339508"
               x2="56.915001"
               y2="93.339508"
               style="visibility:inherit"
               fill="#000000"
               stroke="#cccccc"
               stroke-width="1px"
               id="line5" />
            <line
               x1="61.915001"
               y1="76.588608"
               x2="56.915001"
               y2="76.588608"
               style="visibility:inherit"
               fill="#000000"
               stroke="#cccccc"
               stroke-width="1px"
               id="line6" />
            <line
               x1="61.915001"
               y1="59.8377"
               x2="56.915001"
               y2="59.8377"
               style="visibility:inherit"
               fill="#000000"
               stroke="#cccccc"
               stroke-width="1px"
               id="line7" />
            <line
               x1="61.915001"
               y1="43.086792"
               x2="56.915001"
               y2="43.086792"
               style="visibility:inherit"
               fill="#000000"
               stroke="#cccccc"
               stroke-width="1px"
               id="line8" />
            <line
               x1="61.915001"
               y1="26.335886"
               x2="56.915001"
               y2="26.335886"
               style="visibility:inherit"
               fill="#000000"
               stroke="#cccccc"
               stroke-width="1px"
               id="line9" />
            <line
               x1="61.915001"
               y1="9.5849791"
               x2="56.915001"
               y2="9.5849791"
               style="visibility:inherit"
               fill="#000000"
               stroke="#cccccc"
               stroke-width="1px"
               id="line10" />
          </g>
          <g
             transform="translate(51.915002)"
             id="g19">
            <text
               style="font-weight:200;font-size:12px;font-family:Roboto, sans-serif;text-anchor:end;visibility:inherit"
               x="0"
               y="160.34314"
               dx="0em"
               dy="0.30000001em"
               fill="#212121"
               stroke="none"
               stroke-width="1px"
               id="text10">0.91</text>
            <text
               style="font-weight:200;font-size:12px;font-family:Roboto, sans-serif;text-anchor:end;visibility:hidden"
               x="0"
               y="143.59222"
               dx="0em"
               dy="0.30000001em"
               fill="#212121"
               stroke="none"
               stroke-width="1px"
               id="text11">0.915</text>
            <text
               style="font-weight:200;font-size:12px;font-family:Roboto, sans-serif;text-anchor:end;visibility:inherit"
               x="0"
               y="126.84132"
               dx="0em"
               dy="0.30000001em"
               fill="#212121"
               stroke="none"
               stroke-width="1px"
               id="text12">0.92</text>
            <text
               style="font-weight:200;font-size:12px;font-family:Roboto, sans-serif;text-anchor:end;visibility:hidden"
               x="0"
               y="110.09042"
               dx="0em"
               dy="0.30000001em"
               fill="#212121"
               stroke="none"
               stroke-width="1px"
               id="text13">0.925</text>
            <text
               style="font-weight:200;font-size:12px;font-family:Roboto, sans-serif;text-anchor:end;visibility:inherit"
               x="0"
               y="93.339508"
               dx="0em"
               dy="0.30000001em"
               fill="#212121"
               stroke="none"
               stroke-width="1px"
               id="text14">0.93</text>
            <text
               style="font-weight:200;font-size:12px;font-family:Roboto, sans-serif;text-anchor:end;visibility:hidden"
               x="0"
               y="76.588608"
               dx="0em"
               dy="0.30000001em"
               fill="#212121"
               stroke="none"
               stroke-width="1px"
               id="text15">0.935</text>
            <text
               style="font-weight:200;font-size:12px;font-family:Roboto, sans-serif;text-anchor:end;visibility:inherit"
               x="0"
               y="59.8377"
               dx="0em"
               dy="0.30000001em"
               fill="#212121"
               stroke="none"
               stroke-width="1px"
               id="text16">0.94</text>
            <text
               style="font-weight:200;font-size:12px;font-family:Roboto, sans-serif;text-anchor:end;visibility:hidden"
               x="0"
               y="43.086792"
               dx="0em"
               dy="0.30000001em"
               fill="#212121"
               stroke="none"
               stroke-width="1px"
               id="text17">0.945</text>
            <text
               style="font-weight:200;font-size:12px;font-family:Roboto, sans-serif;text-anchor:end;visibility:inherit"
               x="0"
               y="26.335886"
               dx="0em"
               dy="0.30000001em"
               fill="#212121"
               stroke="none"
               stroke-width="1px"
               id="text18">0.95</text>
            <text
               style="font-weight:200;font-size:12px;font-family:Roboto, sans-serif;text-anchor:end;visibility:hidden"
               x="0"
               y="9.5849791"
               dx="0em"
               dy="0.30000001em"
               fill="#212121"
               stroke="none"
               stroke-width="1px"
               id="text19">0.955</text>
          </g>
          <line
             x1="61.915001"
             y1="0"
             x2="61.915001"
             y2="176.89999"
             fill="#000000"
             stroke="#cccccc"
             stroke-width="1px"
             id="line19" />
        </g>
      </g>
      <g
         transform="translate(61)"
         clip-path="url(#clip_0)"
         id="g64">
        <clipPath
           id="clip_0">
          <rect
             width="268"
             height="176"
             id="rect21"
             x="0"
             y="0" />
        </clipPath>
        <g
           id="g38">
          <g
             id="g37">
            <g
               id="g26">
              <line
                 x1="36.113239"
                 y1="0"
                 x2="36.113239"
                 y2="176.89999"
                 fill="#000000"
                 stroke="#424242"
                 stroke-width="1px"
                 opacity="0.25"
                 id="line21" />
              <line
                 x1="74.780151"
                 y1="0"
                 x2="74.780151"
                 y2="176.89999"
                 fill="#000000"
                 stroke="#424242"
                 stroke-width="1px"
                 opacity="0.25"
                 id="line22" />
              <line
                 x1="113.44706"
                 y1="0"
                 x2="113.44706"
                 y2="176.89999"
                 fill="#000000"
                 stroke="#424242"
                 stroke-width="1px"
                 opacity="0.25"
                 id="line23" />
              <line
                 x1="152.11397"
                 y1="0"
                 x2="152.11397"
                 y2="176.89999"
                 fill="#000000"
                 stroke="#424242"
                 stroke-width="1px"
                 opacity="0.25"
                 id="line24" />
              <line
                 x1="190.78088"
                 y1="0"
                 x2="190.78088"
                 y2="176.89999"
                 fill="#000000"
                 stroke="#424242"
                 stroke-width="1px"
                 opacity="0.25"
                 id="line25" />
              <line
                 x1="229.44778"
                 y1="0"
                 x2="229.44778"
                 y2="176.89999"
                 fill="#000000"
                 stroke="#424242"
                 stroke-width="1px"
                 opacity="0.25"
                 id="line26" />
            </g>
            <g
               id="g36">
              <line
                 x1="0"
                 y1="160.34314"
                 x2="268.08499"
                 y2="160.34314"
                 fill="#000000"
                 stroke="#424242"
                 stroke-width="1px"
                 opacity="0.25"
                 id="line27" />
              <line
                 x1="0"
                 y1="143.59222"
                 x2="268.08499"
                 y2="143.59222"
                 fill="#000000"
                 stroke="#424242"
                 stroke-width="1px"
                 opacity="0.25"
                 id="line28" />
              <line
                 x1="0"
                 y1="126.84132"
                 x2="268.08499"
                 y2="126.84132"
                 fill="#000000"
                 stroke="#424242"
                 stroke-width="1px"
                 opacity="0.25"
                 id="line29" />
              <line
                 x1="0"
                 y1="110.09042"
                 x2="268.08499"
                 y2="110.09042"
                 fill="#000000"
                 stroke="#424242"
                 stroke-width="1px"
                 opacity="0.25"
                 id="line30" />
              <line
                 x1="0"
                 y1="93.339508"
                 x2="268.08499"
                 y2="93.339508"
                 fill="#000000"
                 stroke="#424242"
                 stroke-width="1px"
                 opacity="0.25"
                 id="line31" />
              <line
                 x1="0"
                 y1="76.588608"
                 x2="268.08499"
                 y2="76.588608"
                 fill="#000000"
                 stroke="#424242"
                 stroke-width="1px"
                 opacity="0.25"
                 id="line32" />
              <line
                 x1="0"
                 y1="59.8377"
                 x2="268.08499"
                 y2="59.8377"
                 fill="#000000"
                 stroke="#424242"
                 stroke-width="1px"
                 opacity="0.25"
                 id="line33" />
              <line
                 x1="0"
                 y1="43.086792"
                 x2="268.08499"
                 y2="43.086792"
                 fill="#000000"
                 stroke="#424242"
                 stroke-width="1px"
                 opacity="0.25"
                 id="line34" />
              <line
                 x1="0"
                 y1="26.335886"
                 x2="268.08499"
                 y2="26.335886"
                 fill="#000000"
                 stroke="#424242"
                 stroke-width="1px"
                 opacity="0.25"
                 id="line35" />
              <line
                 x1="0"
                 y1="9.5849791"
                 x2="268.08499"
                 y2="9.5849791"
                 fill="#000000"
                 stroke="#424242"
                 stroke-width="1px"
                 opacity="0.25"
                 id="line36" />
            </g>
          </g>
        </g>
        <g
           id="g40">
          <g
             id="g39">
            <line
               x1="0"
               y1="3209.0081"
               x2="268.08499"
               y2="3209.0081"
               fill="#000000"
               stroke="#999999"
               stroke-width="1.5px"
               id="line38" />
          </g>
        </g>
        <g
           id="g42">
          <g
             id="g41">
            <line
               x1="-543.89044"
               y1="0"
               x2="-543.89044"
               y2="176.89999"
               fill="#000000"
               stroke="#999999"
               stroke-width="1.5px"
               id="line40" />
          </g>
        </g>
        <g
           id="g63">
          <g
             id="g52">
            <g
               id="g51">
              <g
                 id="g50">
                <g
                   id="g43">
                  <path
                     style="fill:none"
                     stroke="#bbbbbb"
                     stroke-width="2px"
                     d="m -2.5536732,101.20334 7.7333822,6.40738 7.733382,7.78592 7.733382,-3.92232 7.733382,-0.5716 7.733382,-8.64511 7.733383,1.32533 7.733382,-3.05375 7.733382,-2.865099 7.733382,8.555799 7.733382,-5.38351 7.733382,7.88113 7.733382,-3.31683 7.733382,-0.99846 7.733386,-5.857538 7.73338,1.089695 7.73338,-10.378175 7.73338,-5.24047 7.73339,7.680657 7.73338,0.06731 7.73338,1.983537 7.73338,-1.729841 7.73338,-12.318858 7.73339,-4.863326 7.73338,-2.825295 7.73338,2.15531 7.73338,-1.525449 7.73338,-2.61401 7.73339,8.749965 7.73338,4.058511 7.73338,3.233431 7.73338,-2.180928 7.73338,-1.744742"
                     fill="none"
                     id="path42" />
                </g>
                <g
                   id="g44">
                  <path
                     style="fill:none"
                     stroke="#ff7043"
                     stroke-width="2px"
                     d="m -2.5536732,107.75219 7.7333822,22.43813 7.733382,6.29857 7.733382,4.11422 7.733382,-1.72722 7.733382,-9.08719 7.733383,-9.29997 7.733382,-9.00112 7.733382,-1.88081 7.733382,11.97646 7.733382,8.39523 7.733382,-2.28912 7.733382,-10.17994 7.733382,-2.14713 7.733386,-10.02617 7.73338,-6.352519 7.73338,4.760809 7.73338,0.39145 7.73339,6.12906 7.73338,5.23829 7.73338,-2.42933 7.73338,-7.17645 7.73338,-1.0308 7.73339,3.84551 7.73338,1.05962 7.73338,3.22631 7.73338,-2.1494 7.73338,13.85882 7.73339,7.11373 7.73338,6.01931 7.73338,7.59608 7.73338,-14.06574 7.73338,-11.25259"
                     fill="none"
                     id="path43" />
                </g>
                <g
                   id="g45">
                  <path
                     style="fill:none"
                     stroke="#cc3311"
                     stroke-width="2px"
                     d="m -2.5536732,39.789496 7.7333822,-4.117913 7.733382,7.198471 7.733382,-1.611649 7.733382,-2.609285 7.733382,3.259454 7.733383,-3.261938 7.733382,-7.634818 7.733382,2.837136 7.733382,2.577906 7.733382,3.476103 7.733382,-4.388496 7.733382,-2.505736 7.733382,2.223331 7.733386,1.148814 7.73338,1.448379 7.73338,-1.950253 7.73338,2.768239 7.73339,-3.735343 7.73338,1.467486 7.73338,2.82895 7.73338,0.507678 7.73338,2.329161 7.73339,-7.215691 7.73338,-2.556364 7.73338,-3.606279 7.73338,-2.208287 7.73338,0.06929 7.73339,5.543011 7.73338,-1.662934 7.73338,-1.397323 7.73338,4.193001 7.73338,3.3544"
                     fill="none"
                     id="path44" />
                </g>
                <g
                   id="g46">
                  <path
                     style="fill:none"
                     stroke="#0077bb"
                     stroke-width="2px"
                     d="m -2.5536732,57.78056 7.7333822,7.426692 7.733382,-11.171371 7.733382,6.071731 7.733382,2.994671 7.733382,-2.797028 7.733383,-4.636374 7.733382,-1.296969 7.733382,-6.759667 7.733382,-4.663982 7.733382,2.580541 7.733382,4.851775 7.733382,1.945021 7.733382,3.579519 7.733386,-2.034332 7.73338,1.233601 7.73338,5.013796 7.73338,-7.258983 7.73339,3.20478 7.73338,-6.535245 7.73338,-3.164477 7.73338,-1.359024 7.73338,11.576451 7.73339,-2.23666 7.73338,-4.878197 7.73338,-2.750087 7.73338,-6.521802 7.73338,1.28191 7.73339,-5.319706 7.73338,-6.212291 7.73338,-0.895992 7.73338,0.84699 7.73338,0.677593"
                     fill="none"
                     id="path45" />
                </g>
                <g
                   id="g47">
                  <path
                     style="fill:none"
                     stroke="#ee3377"
                     stroke-width="2px"
                     d="m -2.5536732,55.255385 7.7333822,3.837836 7.733382,0.256089 7.733382,3.193258 7.733382,2.742191 7.733382,-8.881932 7.733383,-1.550949 7.733382,-2.078284 7.733382,2.257057 7.733382,-11.072449 7.733382,-8.1946 7.733382,-6.294371 7.733382,-0.231362 7.733382,-0.5603 7.733386,7.283975 7.73338,0.674593 7.73338,-2.890897 7.73338,-0.597412 7.73339,5.947698 7.73338,-4.568752 7.73338,-2.897832 7.73338,-1.138997 7.73338,-6.150888 7.73339,2.999091 7.73338,-7.309519 7.73338,8.015411 7.73338,5.139249 7.73338,-2.669351 7.73339,2.661984 7.73338,2.243488 7.73338,3.791495 7.73338,-5.066363 7.73338,-4.05309"
                     fill="none"
                     id="path46" />
                </g>
                <g
                   id="g48">
                  <path
                     style="fill:none"
                     stroke="#33bbee"
                     stroke-width="2px"
                     d="m -2.5536732,50.780778 7.7333822,-4.714765 7.733382,-4.113554 7.733382,6.505091 7.733382,-2.581739 7.733382,7.315116 7.733383,1.369573 7.733382,3.789187 7.733382,2.495313 7.733382,1.252537 7.733382,2.844616 7.733382,-1.362592 7.733382,-5.150497 7.733382,5.581724 7.733386,7.306317 7.73338,-1.672738 7.73338,6.313631 7.73338,-7.472106 7.73339,4.461479 7.73338,-5.630408 7.73338,4.815875 7.73338,-2.995064 7.73338,7.554001 7.73339,-2.627062 7.73338,-4.641101 7.73338,0.62227 7.73338,-3.401819 7.73338,-1.481881 7.73339,-3.517244 7.73338,-5.440309 7.73338,0.264302 7.73338,-5.367836 7.73338,-4.294269"
                     fill="none"
                     id="path47" />
                </g>
                <g
                   id="g49">
                  <path
                     style="fill:none"
                     stroke="#ff7043"
                     stroke-width="2px"
                     d="m -2.5536732,109.26913 7.7333822,-2.7102 7.733382,-1.03581 7.733382,11.96904 7.733382,-9.81558 7.733382,16.34253 7.733383,-1.04364 7.733382,-7.23375 7.733382,-4.24593 7.733382,-5.00483 7.733382,6.4018 7.733382,6.68263 7.733382,-2.99584 7.733382,11.22514 7.733386,-5.8746 7.73338,4.74113 7.73338,-9.2058 7.73338,-9.58243 7.73339,-7.01601 7.73338,-2.852264 7.73338,-0.794347 7.73338,-5.560222 7.73338,-2.833394 7.73339,3.79712 7.73338,-2.295806 7.73338,4.991031 7.73338,-0.476316 7.73338,1.803277 7.73339,-1.204022 7.73338,0.128907 7.73338,0.277372 7.73338,-5.072387 7.73338,-4.057909"
                     fill="none"
                     id="path48" />
                </g>
              </g>
            </g>
          </g>
          <g
             opacity="0.2"
             id="g62">
            <g
               id="g61">
              <g
                 id="g60">
                <g
                   id="g53">
                  <path
                     style="fill:none"
                     stroke="#bbbbbb"
                     stroke-width="2px"
                     d="m -2.5536732,111.39693 7.7333822,21.84329 7.733382,13.30011 7.733382,-50.755284 7.733382,12.831244 7.733382,-40.939096 7.733383,41.207076 7.733382,-20.57009 7.733382,-2.110485 7.733382,54.239415 7.733382,-61.140775 7.733382,60.939685 7.733382,-48.108638 7.733382,8.274998 7.733386,-25.293868 7.73338,28.878638 7.73338,-56.249648 7.73338,15.310353 7.73339,59.365155 7.73338,-30.38607 7.73338,9.64845 7.73338,-16.583358 7.73338,-54.674926 7.73339,24.958799 7.73338,5.326833 7.73338,22.077724 7.73338,-16.248479 7.73338,-6.968256 7.73339,54.205863 7.73338,-14.7073 7.73338,-0.0669 7.73338,-23.838359 h 7.73338"
                     fill="none"
                     id="path52" />
                </g>
                <g
                   id="g54">
                  <path
                     style="fill:none"
                     stroke="#ff7043"
                     stroke-width="2px"
                     d="m 5.179709,219.94284 7.733382,-58.2597 7.733382,-4.62313 7.733382,-25.09299 7.733382,-38.52709 7.733383,-10.151057 7.733382,-7.80574 7.733382,26.600417 7.733382,67.40553 7.733382,-5.92968 7.733382,-45.02648 7.733382,-41.743239 7.733382,29.984109 7.733386,-41.542355 7.73338,8.342098 7.73338,49.214107 7.73338,-17.08597 7.73339,29.07953 7.73338,1.67517 7.73338,-33.09982 7.73338,-26.1649 7.73338,23.55181 7.73339,23.35072 7.73338,-10.08396 7.73338,11.89312 7.73338,-23.65225 7.73338,77.89166 7.73339,-19.8666 7.73338,1.64163 7.73338,13.90316 7.73338,-100.713017 h 7.73338"
                     fill="none"
                     id="path53" />
                </g>
                <g
                   id="g55">
                  <path
                     style="fill:none"
                     stroke="#cc3311"
                     stroke-width="2px"
                     d="m -2.5536732,19.736091 7.7333822,-0.536157 7.733382,52.463998 7.733382,-36.852119 7.733382,-6.599834 7.733382,26.73441 7.733383,-29.347506 7.733382,-25.12633559 7.733382,44.72495359 7.733382,1.54098 7.733382,7.068897 7.733382,-35.846898 7.733382,5.025307 7.733382,21.139598 7.733386,-3.149254 7.73338,2.646643 7.73338,-15.544785 7.73338,21.642208 7.73339,-29.749674 7.73338,22.278808 7.73338,8.274804 7.73338,-8.777414 7.73338,9.615098 7.73339,-45.3951009 7.73338,16.0809429 7.73338,-7.80594 7.73338,3.383686 7.73338,9.179582 7.73339,27.437905 7.73338,-30.486717 7.73338,-0.334874 7.73338,26.554293 h 7.73338"
                     fill="none"
                     id="path54" />
                </g>
                <g
                   id="g56">
                  <path
                     style="fill:none"
                     stroke="#0077bb"
                     stroke-width="2px"
                     d="m -2.5536732,81.211935 7.7333822,13.70208 7.733382,-85.5636114 7.733382,75.0441334 7.733382,-9.313572 7.733382,-25.96382 7.733383,-11.993763 7.733382,12.060658 7.733382,-28.610464 7.733382,3.718759 7.733382,31.558633 7.733382,13.936711 7.733382,-9.681993 7.733382,10.117509 7.733386,-24.489736 7.73338,14.305332 7.73338,20.134576 7.73338,-56.350095 7.73339,45.059828 7.73338,-45.495344 7.73338,10.318593 7.73338,5.862792 7.73338,63.318349 7.73339,-57.489105 7.73338,-15.444342 7.73338,5.762349 7.73338,-21.60866 7.73338,32.496759 7.73339,-31.72617 7.73338,-9.7826348 7.73338,20.3692078 7.73338,7.818919 h 7.73338"
                     fill="none"
                     id="path55" />
                </g>
                <g
                   id="g57">
                  <path
                     style="fill:none"
                     stroke="#ee3377"
                     stroke-width="2px"
                     d="m -2.5536732,64.628382 7.7333822,9.816183 7.733382,-14.0709 7.733382,14.941931 7.733382,0.937927 7.733382,-55.378421 7.733383,27.772979 7.733382,-4.187622 7.733382,19.598418 7.733382,-64.39046659 7.733382,3.31679059 7.733382,1.3065478 7.733382,24.0206722 7.733382,-1.876053 7.733386,38.661077 7.73338,-25.762935 7.73338,-17.15286 7.73338,8.57653 7.73339,32.128138 7.73338,-46.634554 7.73338,3.785854 7.73338,5.896339 7.73338,-26.19845197 7.73339,39.59900497 7.73338,-48.5439557 7.73338,69.3151317 7.73338,-6.365403 7.73338,-33.903749 7.73339,23.987324 7.73338,0.569506 7.73338,9.983519 7.73338,-40.497792 h 7.73338"
                     fill="none"
                     id="path56" />
                </g>
                <g
                   id="g58">
                  <path
                     style="fill:none"
                     stroke="#33bbee"
                     stroke-width="2px"
                     d="m -2.5536732,15.1463 7.7333822,12.060657 7.733382,-1.708716 7.733382,48.979671 7.733382,-38.929057 7.733382,46.902534 7.733383,-22.412598 7.733382,13.467647 7.733382,-2.68019 7.733382,-3.71856 7.733382,9.21293 7.733382,-18.191428 7.733382,-20.302113 7.733382,48.510608 7.733386,14.204685 7.73338,-37.588957 7.73338,38.259107 7.73338,-62.615053 7.73339,52.19582 7.73338,-45.997954 7.73338,46.601007 7.73338,-34.238824 7.73338,49.750264 7.73339,-43.351314 7.73338,-12.697258 7.73338,21.675756 7.73338,-19.498176 7.73338,6.197866 7.73339,-11.658689 7.73338,-13.132573 7.73338,23.082745 7.73338,-27.896385 h 7.73338"
                     fill="none"
                     id="path57" />
                </g>
                <g
                   id="g59">
                  <path
                     style="fill:none"
                     stroke="#ff7043"
                     stroke-width="2px"
                     d="m -2.5536732,87.342706 7.7333822,8.375446 7.733382,5.661708 7.733382,63.9885 7.733382,-96.954124 7.733382,120.974994 7.733383,-70.58833 7.733382,-31.994152 7.733382,7.705298 7.733382,-8.040372 7.733382,52.028286 7.733382,7.80594 7.733382,-41.70969 7.733382,68.10902 7.733386,-74.27354 7.73338,47.20406 7.73338,-64.99352 7.73338,-11.088983 7.73339,3.249696 7.73338,13.802721 7.73338,7.437319 7.73338,-24.623726 7.73338,8.073919 7.73339,30.319184 7.73338,-26.667519 7.73338,34.138379 7.73338,-22.345701 7.73338,10.921651 7.73339,-13.23322 7.73338,5.460623 7.73338,0.871232 7.73338,-26.471424 h 7.73338"
                     fill="none"
                     id="path58" />
                </g>
              </g>
            </g>
          </g>
        </g>
      </g>
      <g
         transform="translate(61,176)"
         clip-path="url(#clip_1)"
         id="g76">
        <clipPath
           id="clip_1">
          <rect
             width="268"
             height="23"
             id="rect64"
             x="0"
             y="0" />
        </clipPath>
        <g
           id="g75">
          <g
             id="g69">
            <line
               x1="36.113239"
               y1="0"
               x2="36.113239"
               y2="5"
               style="visibility:inherit"
               fill="#000000"
               stroke="#cccccc"
               stroke-width="1px"
               id="line64" />
            <line
               x1="74.780151"
               y1="0"
               x2="74.780151"
               y2="5"
               style="visibility:inherit"
               fill="#000000"
               stroke="#cccccc"
               stroke-width="1px"
               id="line65" />
            <line
               x1="113.44706"
               y1="0"
               x2="113.44706"
               y2="5"
               style="visibility:inherit"
               fill="#000000"
               stroke="#cccccc"
               stroke-width="1px"
               id="line66" />
            <line
               x1="152.11397"
               y1="0"
               x2="152.11397"
               y2="5"
               style="visibility:inherit"
               fill="#000000"
               stroke="#cccccc"
               stroke-width="1px"
               id="line67" />
            <line
               x1="190.78088"
               y1="0"
               x2="190.78088"
               y2="5"
               style="visibility:inherit"
               fill="#000000"
               stroke="#cccccc"
               stroke-width="1px"
               id="line68" />
            <line
               x1="229.44778"
               y1="0"
               x2="229.44778"
               y2="5"
               style="visibility:inherit"
               fill="#000000"
               stroke="#cccccc"
               stroke-width="1px"
               id="line69" />
          </g>
          <g
             transform="translate(0,8)"
             id="g74">
            <text
               style="font-weight:200;font-size:12px;font-family:Roboto, sans-serif;text-anchor:middle;visibility:inherit"
               x="36.113239"
               y="0"
               dx="0em"
               dy="0.94999999em"
               fill="#212121"
               stroke="none"
               stroke-width="1px"
               id="text69">75</text>
            <text
               style="font-weight:200;font-size:12px;font-family:Roboto, sans-serif;text-anchor:middle;visibility:inherit"
               x="74.780151"
               y="0"
               dx="0em"
               dy="0.94999999em"
               fill="#212121"
               stroke="none"
               stroke-width="1px"
               id="text70">80</text>
            <text
               style="font-weight:200;font-size:12px;font-family:Roboto, sans-serif;text-anchor:middle;visibility:inherit"
               x="113.44706"
               y="0"
               dx="0em"
               dy="0.94999999em"
               fill="#212121"
               stroke="none"
               stroke-width="1px"
               id="text71">85</text>
            <text
               style="font-weight:200;font-size:12px;font-family:Roboto, sans-serif;text-anchor:middle;visibility:inherit"
               x="152.11397"
               y="0"
               dx="0em"
               dy="0.94999999em"
               fill="#212121"
               stroke="none"
               stroke-width="1px"
               id="text72">90</text>
            <text
               style="font-weight:200;font-size:12px;font-family:Roboto, sans-serif;text-anchor:middle;visibility:inherit"
               x="190.78088"
               y="0"
               dx="0em"
               dy="0.94999999em"
               fill="#212121"
               stroke="none"
               stroke-width="1px"
               id="text73">95</text>
            <text
               style="font-weight:200;font-size:12px;font-family:Roboto, sans-serif;text-anchor:middle;visibility:inherit"
               x="229.44778"
               y="0"
               dx="0em"
               dy="0.94999999em"
               fill="#212121"
               stroke="none"
               stroke-width="1px"
               id="text74">100</text>
          </g>
          <line
             x1="0"
             y1="0"
             x2="268.08499"
             y2="0"
             fill="#000000"
             stroke="#cccccc"
             stroke-width="1px"
             id="line74" />
        </g>
      </g>
    </g>
  </g>
</svg>
