<?xml version="1.0" encoding="UTF-8" standalone="no"?>
<svg
   viewBox="0 0 313.81097 200.62"
   version="1.1"
   id="svg78"
   sodipodi:docname="2024-08-pt-vs-new-precision.svg"
   width="313.81097"
   height="200.62"
   inkscape:version="1.3.2 (091e20ef0f, 2023-11-25, custom)"
   xmlns:inkscape="http://www.inkscape.org/namespaces/inkscape"
   xmlns:sodipodi="http://sodipodi.sourceforge.net/DTD/sodipodi-0.dtd"
   xmlns="http://www.w3.org/2000/svg"
   xmlns:svg="http://www.w3.org/2000/svg">
  <defs
     id="defs78" />
  <sodipodi:namedview
     id="namedview78"
     pagecolor="#ffffff"
     bordercolor="#000000"
     borderopacity="0.25"
     inkscape:showpageshadow="2"
     inkscape:pageopacity="0.0"
     inkscape:pagecheckerboard="0"
     inkscape:deskcolor="#d1d1d1"
     inkscape:zoom="1.485"
     inkscape:cx="149.83165"
     inkscape:cy="105.38721"
     inkscape:window-width="1890"
     inkscape:window-height="501"
     inkscape:window-x="12"
     inkscape:window-y="533"
     inkscape:window-maximized="1"
     inkscape:current-layer="svg78" />
  <g
     id="g78"
     transform="translate(-15.189028,5.0999999)">
    <g
       id="g77">
      <g
         id="g19">
        <g
           id="g18">
          <g
             id="g9">
            <line
               x1="41.149002"
               y1="176.896"
               x2="36.149002"
               y2="176.896"
               style="visibility:inherit"
               fill="#000000"
               stroke="#cccccc"
               stroke-width="1px"
               id="line1" />
            <line
               x1="41.149002"
               y1="154.784"
               x2="36.149002"
               y2="154.784"
               style="visibility:inherit"
               fill="#000000"
               stroke="#cccccc"
               stroke-width="1px"
               id="line2" />
            <line
               x1="41.149002"
               y1="132.672"
               x2="36.149002"
               y2="132.672"
               style="visibility:inherit"
               fill="#000000"
               stroke="#cccccc"
               stroke-width="1px"
               id="line3" />
            <line
               x1="41.149002"
               y1="110.56"
               x2="36.149002"
               y2="110.56"
               style="visibility:inherit"
               fill="#000000"
               stroke="#cccccc"
               stroke-width="1px"
               id="line4" />
            <line
               x1="41.149002"
               y1="88.447998"
               x2="36.149002"
               y2="88.447998"
               style="visibility:inherit"
               fill="#000000"
               stroke="#cccccc"
               stroke-width="1px"
               id="line5" />
            <line
               x1="41.149002"
               y1="66.335999"
               x2="36.149002"
               y2="66.335999"
               style="visibility:inherit"
               fill="#000000"
               stroke="#cccccc"
               stroke-width="1px"
               id="line6" />
            <line
               x1="41.149002"
               y1="44.223999"
               x2="36.149002"
               y2="44.223999"
               style="visibility:inherit"
               fill="#000000"
               stroke="#cccccc"
               stroke-width="1px"
               id="line7" />
            <line
               x1="41.149002"
               y1="22.112"
               x2="36.149002"
               y2="22.112"
               style="visibility:inherit"
               fill="#000000"
               stroke="#cccccc"
               stroke-width="1px"
               id="line8" />
            <line
               x1="41.149002"
               y1="0"
               x2="36.149002"
               y2="0"
               style="visibility:inherit"
               fill="#000000"
               stroke="#cccccc"
               stroke-width="1px"
               id="line9" />
          </g>
          <g
             transform="translate(31.149001)"
             id="g17">
            <text
               style="font-weight:200;font-size:12px;font-family:Roboto, sans-serif;text-anchor:end;visibility:hidden"
               x="0"
               y="176.896"
               dx="0em"
               dy="0.30000001em"
               fill="#212121"
               stroke="none"
               stroke-width="1px"
               id="text9">0.1</text>
            <text
               style="font-weight:200;font-size:12px;font-family:Roboto, sans-serif;text-anchor:end;visibility:inherit"
               x="0"
               y="154.784"
               dx="0em"
               dy="0.30000001em"
               fill="#212121"
               stroke="none"
               stroke-width="1px"
               id="text10">0.2</text>
            <text
               style="font-weight:200;font-size:12px;font-family:Roboto, sans-serif;text-anchor:end;visibility:hidden"
               x="0"
               y="132.672"
               dx="0em"
               dy="0.30000001em"
               fill="#212121"
               stroke="none"
               stroke-width="1px"
               id="text11">0.3</text>
            <text
               style="font-weight:200;font-size:12px;font-family:Roboto, sans-serif;text-anchor:end;visibility:inherit"
               x="0"
               y="110.56"
               dx="0em"
               dy="0.30000001em"
               fill="#212121"
               stroke="none"
               stroke-width="1px"
               id="text12">0.4</text>
            <text
               style="font-weight:200;font-size:12px;font-family:Roboto, sans-serif;text-anchor:end;visibility:hidden"
               x="0"
               y="88.447998"
               dx="0em"
               dy="0.30000001em"
               fill="#212121"
               stroke="none"
               stroke-width="1px"
               id="text13">0.5</text>
            <text
               style="font-weight:200;font-size:12px;font-family:Roboto, sans-serif;text-anchor:end;visibility:inherit"
               x="0"
               y="66.335999"
               dx="0em"
               dy="0.30000001em"
               fill="#212121"
               stroke="none"
               stroke-width="1px"
               id="text14">0.6</text>
            <text
               style="font-weight:200;font-size:12px;font-family:Roboto, sans-serif;text-anchor:end;visibility:hidden"
               x="0"
               y="44.223999"
               dx="0em"
               dy="0.30000001em"
               fill="#212121"
               stroke="none"
               stroke-width="1px"
               id="text15">0.7</text>
            <text
               style="font-weight:200;font-size:12px;font-family:Roboto, sans-serif;text-anchor:end;visibility:inherit"
               x="0"
               y="22.112"
               dx="0em"
               dy="0.30000001em"
               fill="#212121"
               stroke="none"
               stroke-width="1px"
               id="text16">0.8</text>
            <text
               style="font-weight:200;font-size:12px;font-family:Roboto, sans-serif;text-anchor:end;visibility:hidden"
               x="0"
               y="0"
               dx="0em"
               dy="0.30000001em"
               fill="#212121"
               stroke="none"
               stroke-width="1px"
               id="text17">0.9</text>
          </g>
          <line
             x1="41.149002"
             y1="0"
             x2="41.149002"
             y2="176.896"
             fill="#000000"
             stroke="#cccccc"
             stroke-width="1px"
             id="line17" />
        </g>
      </g>
      <g
         transform="translate(41)"
         clip-path="url(#clip_0)"
         id="g58">
        <clipPath
           id="clip_0">
          <rect
             width="288"
             height="176"
             id="rect19"
             x="0"
             y="0" />
        </clipPath>
        <g
           id="g38">
          <g
             id="g37">
            <g
               id="g27">
              <line
                 x1="0"
                 y1="0"
                 x2="0"
                 y2="176.896"
                 fill="#000000"
                 stroke="#424242"
                 stroke-width="1px"
                 opacity="0.25"
                 id="line19" />
              <line
                 x1="36.106377"
                 y1="0"
                 x2="36.106377"
                 y2="176.896"
                 fill="#000000"
                 stroke="#424242"
                 stroke-width="1px"
                 opacity="0.25"
                 id="line20" />
              <line
                 x1="72.212753"
                 y1="0"
                 x2="72.212753"
                 y2="176.896"
                 fill="#000000"
                 stroke="#424242"
                 stroke-width="1px"
                 opacity="0.25"
                 id="line21" />
              <line
                 x1="108.31912"
                 y1="0"
                 x2="108.31912"
                 y2="176.896"
                 fill="#000000"
                 stroke="#424242"
                 stroke-width="1px"
                 opacity="0.25"
                 id="line22" />
              <line
                 x1="144.42551"
                 y1="0"
                 x2="144.42551"
                 y2="176.896"
                 fill="#000000"
                 stroke="#424242"
                 stroke-width="1px"
                 opacity="0.25"
                 id="line23" />
              <line
                 x1="180.53188"
                 y1="0"
                 x2="180.53188"
                 y2="176.896"
                 fill="#000000"
                 stroke="#424242"
                 stroke-width="1px"
                 opacity="0.25"
                 id="line24" />
              <line
                 x1="216.63824"
                 y1="0"
                 x2="216.63824"
                 y2="176.896"
                 fill="#000000"
                 stroke="#424242"
                 stroke-width="1px"
                 opacity="0.25"
                 id="line25" />
              <line
                 x1="252.74463"
                 y1="0"
                 x2="252.74463"
                 y2="176.896"
                 fill="#000000"
                 stroke="#424242"
                 stroke-width="1px"
                 opacity="0.25"
                 id="line26" />
              <line
                 x1="288.85101"
                 y1="0"
                 x2="288.85101"
                 y2="176.896"
                 fill="#000000"
                 stroke="#424242"
                 stroke-width="1px"
                 opacity="0.25"
                 id="line27" />
            </g>
            <g
               id="g36">
              <line
                 x1="0"
                 y1="176.896"
                 x2="288.85101"
                 y2="176.896"
                 fill="#000000"
                 stroke="#424242"
                 stroke-width="1px"
                 opacity="0.25"
                 id="line28" />
              <line
                 x1="0"
                 y1="154.784"
                 x2="288.85101"
                 y2="154.784"
                 fill="#000000"
                 stroke="#424242"
                 stroke-width="1px"
                 opacity="0.25"
                 id="line29" />
              <line
                 x1="0"
                 y1="132.672"
                 x2="288.85101"
                 y2="132.672"
                 fill="#000000"
                 stroke="#424242"
                 stroke-width="1px"
                 opacity="0.25"
                 id="line30" />
              <line
                 x1="0"
                 y1="110.56"
                 x2="288.85101"
                 y2="110.56"
                 fill="#000000"
                 stroke="#424242"
                 stroke-width="1px"
                 opacity="0.25"
                 id="line31" />
              <line
                 x1="0"
                 y1="88.447998"
                 x2="288.85101"
                 y2="88.447998"
                 fill="#000000"
                 stroke="#424242"
                 stroke-width="1px"
                 opacity="0.25"
                 id="line32" />
              <line
                 x1="0"
                 y1="66.335999"
                 x2="288.85101"
                 y2="66.335999"
                 fill="#000000"
                 stroke="#424242"
                 stroke-width="1px"
                 opacity="0.25"
                 id="line33" />
              <line
                 x1="0"
                 y1="44.223999"
                 x2="288.85101"
                 y2="44.223999"
                 fill="#000000"
                 stroke="#424242"
                 stroke-width="1px"
                 opacity="0.25"
                 id="line34" />
              <line
                 x1="0"
                 y1="22.112"
                 x2="288.85101"
                 y2="22.112"
                 fill="#000000"
                 stroke="#424242"
                 stroke-width="1px"
                 opacity="0.25"
                 id="line35" />
              <line
                 x1="0"
                 y1="0"
                 x2="288.85101"
                 y2="0"
                 fill="#000000"
                 stroke="#424242"
                 stroke-width="1px"
                 opacity="0.25"
                 id="line36" />
            </g>
          </g>
        </g>
        <g
           id="g40">
          <g
             id="g39">
            <line
               x1="0"
               y1="199.008"
               x2="288.85101"
               y2="199.008"
               fill="#000000"
               stroke="#999999"
               stroke-width="1.5px"
               id="line38" />
          </g>
        </g>
        <g
           id="g42">
          <g
             id="g41">
            <line
               x1="36.106377"
               y1="0"
               x2="36.106377"
               y2="176.896"
               fill="#000000"
               stroke="#999999"
               stroke-width="1.5px"
               id="line40" />
          </g>
        </g>
        <g
           id="g57">
          <g
             id="g49">
            <g
               id="g48">
              <g
                 id="g47">
                <g
                   id="g43">
                  <path
                     style="fill:none"
                     stroke="#33bbee"
                     stroke-width="2px"
                     d="m 36.828502,26.162921 0.722128,31.495635 0.722127,42.217042 0.722128,28.761002 0.722127,17.15567 0.722128,11.33231 0.722127,7.94344 0.722128,5.9581 0.722127,4.5668 0.722128,3.59399 5.054892,3.51913 0.722128,-16.57272 0.722127,-13.47192 0.722128,-15.4853 0.722127,-13.60887 0.722128,-8.05073 0.722127,-0.43976 0.722128,-3.03186 0.722127,-7.87145 0.722128,-8.369452 0.722127,-7.733785 0.722128,-7.200404 0.722127,-5.799113 0.722128,-5.66677 0.722127,-4.884361 0.722128,-4.437801 0.722127,-3.930375 0.722128,-3.916635 0.722127,-3.982285 0.722128,-2.434051 0.722127,-1.833793 0.722128,-2.149761 0.722127,-2.589053 0.722128,-2.330477 0.722127,-1.471155 0.722128,-1.076337 0.722127,-2.113375 0.722128,-1.887174 0.722127,-1.057871 0.722128,-1.323178 0.722127,-0.32259 0.722128,-1.231667 0.722127,-0.10045 0.722128,-0.777318 0.722127,-1.247087 0.722128,-1.5687 0.722127,-0.69922 0.722128,-1.373393 0.722127,-0.461326 0.722128,-0.6504 0.722127,-0.716026 0.722128,-0.243191 0.722127,-0.467805 0.722128,-0.668506 0.722127,-0.398109 0.722128,0.130991 0.722127,-0.326071 0.722128,-0.34585 0.722127,0.05427 0.722128,-0.527959 0.722127,0.283364 0.722128,-0.837754 0.722127,-0.153319 0.722128,0.287292 0.722127,-0.09591 0.722128,0.09201 0.722127,0.547806 0.722128,-0.230825 0.722127,-0.554789 0.722128,-0.542184 0.722127,-0.177385 0.722128,-0.119824 0.722127,0.507912 0.722128,0.555739 0.722127,-0.07334 0.722128,-0.133453 0.722127,-0.01019 0.722128,-0.599424 0.722127,-0.250424 0.722128,0.88942 0.722127,0.313281 0.722128,0.239487 0.722125,0.338266 0.72213,0.158042 0.72213,-0.29318 0.72212,-0.224054 0.72213,0.02877 0.72213,0.01594 0.72213,0.873661 0.72212,0.192557 0.72213,-0.252814 0.72213,-0.222225 0.72213,-0.235159 0.72212,0.329453 0.72213,-0.268248 0.72213,-0.614017 0.72213,-0.408219 0.72212,-0.346831 0.72213,0.270292 0.72213,-0.327677 0.72213,0.220085 0.72212,-0.689951 0.72213,-0.02503 0.72213,0.300091 0.72213,-0.03197 0.72212,0.09948 0.72213,0.06985 0.72213,0.184259 0.72213,-0.109684 0.72212,0.142528 0.72213,-0.190803 0.72213,0.598663 0.72213,-0.194219 0.72212,-0.420684 0.72213,-0.357387 0.72213,-0.356143 0.72213,0.345265 0.72212,-0.238967 0.72213,0.09118 0.72213,-0.114955 0.72213,0.123632 0.72212,0.467935 0.72213,-0.09363 0.72213,-0.344522 0.72213,0.02692 0.72212,-0.422658 0.72213,0.441953 0.72213,0.447068 0.72213,0.571518 0.72212,0.148854 0.72213,0.217995 0.72213,0.210568 0.72213,-0.0062 0.72212,-0.118554 0.72213,0.125919 0.72213,-0.066 0.72213,-0.191853 0.72212,0.473225 0.72213,-0.0082 0.72213,-0.243939 0.72213,-0.49108 0.72212,-0.661766 0.72213,-0.45363 0.72213,-0.329549 0.72213,0.02403 0.72212,-0.05223 0.72213,-0.485706 0.72213,-0.310655 0.72213,-0.138515 0.72212,0.0054 0.72213,-0.03675 0.72213,-0.201348 0.72213,0.09054 0.72212,0.412284 0.72213,-0.248301 0.72213,-0.07864 0.72213,0.353555 0.72212,0.186192 0.72213,-0.09888 0.72213,0.06646 0.72213,0.209953 0.72212,0.567515 0.72213,0.03757 0.72213,0.265323 0.72213,0.338736 0.72212,-0.182485 0.72213,-0.315042 0.72213,-0.596864 0.72213,-0.260335 0.72212,-0.311915 0.72213,-0.140754 0.72213,0.336126 0.72213,-0.257806 0.72212,0.01784 0.72213,0.05807 0.72213,-0.03243 0.72213,0.0188 0.72212,-0.258818 0.72213,0.231638 0.72213,-0.239073 0.72213,0.405518 0.72212,0.256617 0.72213,0.711671 0.72213,0.08549 0.72213,0.167381 0.72212,0.05357 0.72213,-4.33e-4 0.72213,-0.324771 0.72213,-0.07958 0.72212,0.27001 0.72213,-0.0095 0.72213,-0.28142 0.72213,0.05784 0.72212,-0.106047 0.72213,-0.0037 0.72213,0.09244 0.72213,-3.91e-4 0.72212,-0.390187 0.72213,-0.372396 0.72213,-0.408125 0.72213,-0.16897 0.72212,0.03654 0.72213,-0.463968 0.72213,-0.04476 0.72213,0.169114 0.72212,-0.159797 0.72213,-0.176764 0.72213,0.117754 0.72213,-0.100104 0.72212,-0.07837 0.72213,0.13444 0.72213,-0.0957 0.72213,-0.126375 0.72212,0.07421 0.72213,0.02942 0.72213,0.235882 0.72213,0.184433 0.72212,0.162451 0.72213,0.01685 0.72213,0.545855 0.72213,-0.0021 0.72212,-0.003 0.72213,-0.08049 0.72213,0.06023 0.72213,-0.149222 0.72212,0.07488 0.72213,-0.08761 0.72213,0.08345 0.72213,0.08704 0.72212,-0.09767 0.72213,-0.186302 0.72213,-0.06485 0.72213,-0.05483 0.72212,0.107871 0.72213,-0.02674 0.72213,-0.109642 0.72213,-0.06772 0.72212,-0.0709 0.72213,0.408282 0.72213,0.328315 0.72213,0.02218 0.72212,-0.252457 0.72213,-0.122402 0.72213,-0.103086 0.72213,-0.04037 0.72212,-0.251041 0.72213,-0.08553 0.72213,0.148789 0.72213,0.0063 0.72212,0.0072 0.72213,0.222107 0.72213,0.204319 0.72213,0.133693 0.72212,-0.102564 0.72213,-0.146483 0.72213,-0.315585 0.72213,0.03483 0.72212,0.136378 0.72213,-0.262452 0.72213,-0.04582 0.72213,0.09364 0.72212,0.178698 0.72213,0.109528 0.72213,0.141252 0.72213,0.223312 0.72212,0.120053 0.72213,0.01893 0.72213,0.05729 0.72213,-0.173985 0.72212,0.03822 0.72213,0.09808 0.72213,0.06107 0.72213,-0.05515 0.72212,0.04102 0.72213,0.08999 0.72213,0.02682 0.72213,-0.05746 0.72212,-0.09903 0.72213,-0.112789 0.72213,0.0148 0.72213,0.06285 0.72212,-0.0091 0.72213,0.01259 0.72213,0.0602 0.72213,0.08934 0.72212,0.01606 0.72213,-0.0077 0.72213,-0.02127 0.72213,0.09297 0.72212,0.130768 0.72213,0.124989 0.72213,0.183026 0.72213,0.129566 0.72212,-0.04981"
                     fill="none"
                     id="path42" />
                </g>
                <g
                   id="g44">
                  <path
                     style="fill:none"
                     stroke="#0077bb"
                     stroke-width="2px"
                     d="m 45.494032,178.47882 0.722128,-5.35282 0.722127,-3.18938 0.722128,-2.27626 0.722127,0.26956 0.722128,-3.39162 0.722127,3.60517 0.722128,0.17955 0.722127,-8.02513 0.722128,-5.94264 0.722127,-4.27117 0.722128,-5.37149 0.722127,-3.40021 0.722128,-4.56371 0.722127,-3.41843 0.722128,-4.52795 0.722127,-4.0901 0.722128,-3.16165 0.722127,-5.88392 0.722128,-4.81858 0.722127,-4.44004 0.722128,-4.3834 0.722127,-4.564732 0.722128,-1.696295 0.722127,-1.106005 0.722128,-1.766081 0.722127,-1.998475 0.722128,-2.649874 0.722127,-3.069817 0.722128,-3.054874 0.722127,-1.049803 0.722128,-4.059939 0.722127,-3.288822 0.722128,-2.511599 0.722127,-1.325578 0.722128,-1.572879 0.722127,-2.595254 0.722128,-1.388707 0.722127,-2.065094 0.722128,-1.791476 0.722127,-2.098535 0.722128,-2.502646 0.722127,-0.03215 0.722128,0.05157 0.722127,-0.725016 0.722128,-0.56508 0.722127,-0.08914 0.722128,-1.699265 0.722127,-1.317911 0.722128,-0.662445 0.722127,-1.37981 0.722128,-1.424345 0.722127,-0.146705 0.722128,0.07848 0.722127,0.264043 0.722128,0.342046 0.722127,-0.770477 0.722128,-1.270591 0.722127,-0.953331 0.722128,-1.293061 0.722127,-0.413026 0.722128,-0.911886 0.722127,-0.266293 0.722128,0.409115 0.722127,0.386979 0.722128,-1.112853 0.722127,-0.798917 0.722128,-0.38436 0.722127,-1.06668 0.722128,-0.82595 0.722127,-0.5162 0.722128,0.703338 0.722127,2.396644 0.722128,2.058068 0.722127,-0.968463 0.722128,-0.787565 0.722125,-1.116131 0.72213,-0.469792 0.72213,-0.489588 0.72212,-0.816329 0.72213,-0.436822 0.72213,-0.61891 0.72213,-0.940232 0.72212,-1.512904 0.72213,-0.879985 0.72213,-0.515793 0.72213,-0.32888 0.72212,-0.219703 0.72213,-1.039334 0.72213,-0.721568 0.72213,-0.843997 0.72212,0.06785 0.72213,-0.194774 0.72213,-0.481994 0.72213,-0.55718 0.72212,-0.295153 0.72213,-0.401628 0.72213,0.294163 0.72213,-0.51891 0.72212,-0.37083 0.72213,0.205789 0.72213,-0.07372 0.72213,0.524265 0.72212,0.02163 0.72213,-0.305355 0.72213,-0.382947 0.72213,-0.598721 0.72212,-0.645649 0.72213,0.0323 0.72213,-0.425327 0.72213,-0.09247 0.72212,-0.280236 0.72213,-0.09411 0.72213,0.425867 0.72213,0.01998 0.72212,0.570782 0.72213,-0.214887 0.72213,0.06553 0.72213,0.921569 0.72212,-0.299184 0.72213,-0.374962 0.72213,0.621974 0.72213,-0.185618 0.72212,-0.566178 0.72213,-0.410278 0.72213,-0.19567 0.72213,-0.238681 0.72212,0.04965 0.72213,0.06856 0.72213,0.264695 0.72213,-0.717454 0.72212,0.551655 0.72213,-0.108716 0.72213,-0.04456 0.72213,0.389095 0.72212,-0.705884 0.72213,-0.180451 0.72213,0.05871 0.72213,-0.375246 0.72212,-0.446291 0.72213,-0.01183 0.72213,0.387814 0.72213,-0.282487 0.72212,0.06749 0.72213,-0.355848 0.72213,-0.426621 0.72213,0.367627 0.72212,-0.313921 0.72213,0.173642 0.72213,0.529085 0.72213,-0.242463 0.72212,-0.01257 0.72213,-0.354053 0.72213,-0.910587 0.72213,-0.209457 0.72212,0.159752 0.72213,0.364235 0.72213,0.424881 0.72213,0.59113 0.72212,0.125821 0.72213,-0.221538 0.72213,0.182933 0.72213,-0.422212 0.72212,-0.631626 0.72213,-0.441983 0.72213,0.453307 0.72213,1.533255 0.72212,-0.294612 0.72213,-0.852666 0.72213,0.381317 0.72213,0.0962 0.72212,-0.206408 0.72213,0.136847 0.72213,-0.19105 0.72213,-0.387758 0.72212,-0.290606 0.72213,-0.459448 0.72213,0.02454 0.72213,0.427174 0.72212,0.384677 0.72213,0.465615 0.72213,-0.790694 0.72213,-0.484314 0.72212,0.32654 0.72213,0.2218 0.72213,0.0013 0.72213,0.0352 0.72212,0.316705 0.72213,0.57249 0.72213,0.111477 0.72213,0.04151 0.72212,0.375452 0.72213,-0.59323 0.72213,-0.0045 0.72213,0.326262 0.72212,-0.404883 0.72213,-0.601876 0.72213,0.283752 0.72213,0.08511 0.72212,0.286888 0.72213,0.712601 0.72213,0.10601 0.72213,0.01978 0.72212,0.331134 0.72213,-0.548205 0.72213,-0.346341 0.72213,0.287971 0.72212,0.101516 0.72213,-0.376306 0.72213,-0.143425 0.72213,-0.397523 0.72212,0.314877 0.72213,-0.04918 0.72213,-0.186438 0.72213,0.0093 0.72212,0.563181 0.72213,-0.432897 0.72213,0.522733 0.72213,-0.284443 0.72212,-0.0095 0.72213,0.02886 0.72213,0.290659 0.72213,0.09841 0.72212,-0.563076 0.72213,-0.277909 0.72213,0.07802 0.72213,0.223679 0.72212,-0.712578 0.72213,0.28053 0.72213,-0.240179 0.72213,-0.387971 0.72212,0.06786 0.72213,-0.332079 0.72213,-0.667478 0.72213,0.10818 0.72212,0.207037 0.72213,0.499441 0.72213,-0.275778 0.72213,0.197136 0.72212,-0.298208 0.72213,-0.169987 0.72213,-0.2421 0.72213,-0.159736 0.72212,-0.499544 0.72213,-0.247265 0.72213,-0.137186 0.72213,0.09212 0.72212,-0.232405 0.72213,0.173594 0.72213,-0.159746 0.72213,0.06143 0.72212,0.381437 0.72213,-0.14118 0.72213,-0.160673 0.72213,-0.158315 0.72212,0.464933 0.72213,0.08986 0.72213,0.325207 0.72213,0.0855 0.72212,-0.413275 0.72213,-0.07454 0.72213,-0.04298 0.72213,-0.06456 0.72212,0.145992 0.72213,0.104638 0.72213,0.05548 0.72213,0.03777 0.72212,-0.169439 0.72213,0.149555 0.72213,-0.129419 0.72213,0.130957 0.72212,-0.06036 0.72213,-0.221493 0.72213,-0.03173 0.72213,-0.22005 0.72212,-0.351502 0.72213,-0.07334 0.72213,0.238253 0.72213,0.295801 0.72212,0.352899 0.72213,0.196215 0.72213,-0.03369 0.72213,0.114953 0.72212,-0.0064 0.72213,0.04904 0.72213,0.04104 0.72213,0.04291 0.72212,-0.442244"
                     fill="none"
                     id="path43" />
                </g>
                <g
                   id="g45">
                  <path
                     style="fill:none"
                     stroke="#cc3311"
                     stroke-width="2px"
                     d="m 36.828502,77.938167 0.722128,-16.978524 0.722127,12.953407 0.722128,8.805792 0.722127,-10.842461 0.722128,-6.323 0.722127,14.356793 0.722128,17.256528 0.722127,15.142148 0.722128,13.29056 0.722127,10.69253 0.722128,8.73481 0.722127,7.20085 0.722128,6.04818 0.722127,5.11844 0.722128,4.36842 0.722127,3.71568 0.722128,-3.90356 0.722127,-2.63415 0.722128,2.86279 0.722127,2.22541 0.722128,2.35086 0.722127,1.26443 0.722128,-0.72695 0.722127,-5.61003 0.722128,-14.98912 0.722127,-11.56388 0.722128,-10.32143 0.722127,-10.35877 0.722128,-9.93752 0.722127,-10.00563 0.722128,-7.845734 0.722127,-7.060135 0.722128,-7.067968 0.722127,-6.413354 0.722128,-5.116682 0.722127,-5.238532 0.722128,-4.037577 0.722127,-4.106081 0.722128,-1.434952 0.722127,-1.024054 0.722128,-3.817456 0.722127,-2.573052 0.722128,-3.182134 0.722127,-2.449793 0.722128,-1.973837 0.722127,-0.0741 0.722128,1.172263 0.722127,0.213854 0.722128,-0.883309 0.722127,-1.573856 0.722128,-1.332255 0.722127,-1.396617 0.722128,-1.912691 0.722127,-1.550294 0.722128,-1.126963 0.722127,-1.09902 0.722128,-1.177859 0.722127,-0.630188 0.722128,-0.316392 0.722127,-0.24035 0.722128,-1.070122 0.722127,-0.536378 0.722128,-0.64997 0.722127,-0.507353 0.722128,-0.506758 0.722127,-0.172935 0.722128,-0.819265 0.722127,-0.80714 0.722128,-0.436029 0.722127,-0.733975 0.722128,-0.661384 0.722127,-0.483024 0.722128,-0.756983 0.722127,-0.122248 0.722128,0.346529 0.722127,0.271819 0.722128,-0.255686 0.722127,-0.01225 0.722128,-0.638478 0.722127,-0.217425 0.722128,-0.04219 0.722127,0.140503 0.722128,-0.407854 0.722127,0.788665 0.722128,-0.122171 0.722127,-0.731585 0.722128,0.01983 0.722125,-0.684493 0.72213,0.232691 0.72213,0.05153 0.72212,0.107628 0.72213,-0.163407 0.72213,-0.14397 0.72213,-0.513896 0.72212,-0.393731 0.72213,0.10714 0.72213,-0.612509 0.72213,-0.423222 0.72212,-0.131688 0.72213,-0.06302 0.72213,0.362759 0.72213,0.11 0.72212,0.06672 0.72213,0.255076 0.72213,0.143108 0.72213,0.122164 0.72212,0.167218 0.72213,0.355696 0.72213,-0.142903 0.72213,-0.303521 0.72212,0.328062 0.72213,-0.320567 0.72213,-0.11095 0.72213,0.37246 0.72212,-0.01792 0.72213,0.0095 0.72213,0.279445 0.72213,-0.399479 0.72212,0.335893 0.72213,-0.596993 0.72213,0.240608 0.72213,0.163921 0.72212,0.20502 0.72213,-0.0017 0.72213,-0.358166 0.72213,0.01552 0.72212,0.184233 0.72213,-0.41441 0.72213,0.118582 0.72213,-0.174321 0.72212,0.29088 0.72213,0.02166 0.72213,-0.332976 0.72213,-0.327981 0.72212,-0.211158 0.72213,-0.258588 0.72213,0.757003 0.72213,-0.300471 0.72212,-0.483583 0.72213,-0.02991 0.72213,-0.113157 0.72213,-0.346842 0.72212,0.10399 0.72213,0.04561 0.72213,0.221702 0.72213,-0.235412 0.72212,0.144797 0.72213,0.05403 0.72213,0.129778 0.72213,0.367772 0.72212,0.264216 0.72213,0.08036 0.72213,0.02743 0.72213,-0.297702 0.72212,-0.132164 0.72213,-0.244765 0.72213,-0.366227 0.72213,-0.167746 0.72212,-0.161142 0.72213,-0.364158 0.72213,-0.224922 0.72213,0.09498 0.72212,-0.238461 0.72213,0.144484 0.72213,-0.0044 0.72213,-0.257369 0.72212,0.244881 0.72213,-0.166566 0.72213,0.158552 0.72213,-0.003 0.72212,0.213979 0.72213,0.08755 0.72213,0.03391 0.72213,-0.161195 0.72212,0.08577 0.72213,-0.219987 0.72213,-0.25902 0.72213,-0.102435 0.72212,-0.372571 0.72213,-0.187386 0.72213,0.214776 0.72213,-0.07492 0.72212,0.148606 0.72213,0.156741 0.72213,-0.296971 0.72213,-0.04195 0.72212,-0.0654 0.72213,-0.0038 0.72213,-0.0859 0.72213,-0.269461 0.72212,-0.252465 0.72213,-0.0054 0.72213,-0.0186 0.72213,-0.04748 0.72212,-0.12189 0.72213,0.248735 0.72213,0.61657 0.72213,0.448112 0.72212,-0.120754 0.72213,0.505593 0.72213,-0.172947 0.72213,0.157233 0.72212,0.177331 0.72213,0.162694 0.72213,0.03741 0.72213,-0.02205 0.72212,0.141129 0.72213,-0.01561 0.72213,0.005 0.72213,-0.01874 0.72212,-0.09758 0.72213,-0.01728 0.72213,-0.203286 0.72213,-0.317619 0.72212,-0.04152 0.72213,-0.184413 0.72213,-0.04834 0.72213,0.07391 0.72212,-0.06129 0.72213,-0.20972 0.72213,0.03436 0.72213,0.279907 0.72212,-0.0064 0.72213,0.181129 0.72213,-0.154291 0.72213,-0.03604 0.72212,-0.01475 0.72213,-0.162306 0.72213,-0.334692 0.72213,-0.302329 0.72212,-0.150922 0.72213,-0.01908 0.72213,-0.294897 0.72213,0.319456 0.72212,0.354951 0.72213,0.199167 0.72213,-0.07769 0.72213,-0.159255 0.72212,-0.101095 0.72213,0.0178 0.72213,0.134988 0.72213,-0.184099 0.72212,0.09744 0.72213,0.0092 0.72213,-0.163308 0.72213,0.05491 0.72212,0.467331 0.72213,0.02767 0.72213,0.131482 0.72213,0.164548 0.72212,0.254672 0.72213,0.0048 0.72213,-0.160221 0.72213,-0.199479 0.72212,-0.354659 0.72213,-0.327154 0.72213,-0.203557 0.72213,0.08679 0.72212,-0.129083 0.72213,0.264152 0.72213,0.491584 0.72213,0.523134 0.72212,0.06418 0.72213,-0.04439 0.72213,0.06264 0.72213,0.177775 0.72212,-0.04852 0.72213,0.16706 0.72213,-0.17823 0.72213,-0.142497 0.72212,-0.209618 0.72213,-0.154604 0.72213,-0.200837 0.72213,-0.08235 0.72212,-0.04338 0.72213,-0.123292 0.72213,-0.176193 0.72213,-0.106832 0.72212,0.114137 0.72213,-0.179869 0.72213,-0.365975 0.72213,-0.300411 0.72212,-0.2511321 0.72213,-0.3096028 0.72213,-0.4042392 0.72213,0.1217647 0.72212,0.2159477 0.72213,-0.2054332 0.72213,0.1888029 0.72213,0.1922558 0.72212,-0.041235 0.72213,-0.078019 0.72213,0.087442 0.72213,-0.060828 0.72212,-0.056515 0.72213,-0.090886 0.72213,-0.1441533 0.72213,-0.1111637 0.72212,-0.043373"
                     fill="none"
                     id="path44" />
                </g>
                <g
                   id="g46">
                  <path
                     style="fill:none"
                     stroke="#ff7043"
                     stroke-width="2px"
                     d="m 51.99318,179.25233 0.722127,-4.64057 0.722128,-7.37608 0.722127,-6.60903 0.722128,-5.98816 0.722127,-6.1884 0.722128,-6.4781 0.722127,-4.57622 0.722128,-5.40517 0.722127,-5.84517 0.722128,-6.0695 0.722127,-3.46969 0.722128,-4.48009 0.722127,-3.4086 0.722128,-3.61126 0.722127,-3.24632 0.722128,-3.798162 0.722127,-3.19453 0.722128,-3.870216 0.722127,-3.763957 0.722128,-3.510423 0.722127,-3.465811 0.722128,-3.074331 0.722127,-3.07147 0.722128,-2.144957 0.722127,-0.509787 0.722128,-0.391804 0.722127,-1.997414 0.722128,-3.077738 0.722127,-2.226889 0.722128,-2.8278 0.722127,-2.331246 0.722128,-0.586625 0.722127,-1.049689 0.722128,-0.66784 0.722127,-1.453458 0.722128,-2.664138 0.722127,-1.970976 0.722128,-0.350098 0.722127,-1.330445 0.722128,-0.831833 0.722127,0.589782 0.722128,-1.058636 0.722127,-1.001455 0.722128,-0.409089 0.722127,0.697946 0.722128,-0.363789 0.722127,-1.189662 0.722128,-1.726128 0.722127,-0.975196 0.722128,0.56464 0.722127,-0.07679 0.722128,-0.320396 0.722127,0.473487 0.722128,-0.0037 0.722127,1.268515 0.722128,0.203125 0.722127,-1.085185 0.722128,-0.437631 0.722127,-0.927738 0.722128,-0.940644 0.722127,-0.08887 0.722128,-1.769136 0.722127,-0.3418 0.722128,0.338132 0.722127,-0.565665 0.722128,-1.037614 0.722125,-1.170895 0.72213,0.595895 0.72213,0.0739 0.72212,0.142361 0.72213,-0.322545 0.72213,-0.975352 0.72213,-0.442843 0.72212,-0.998479 0.72213,0.287951 0.72213,0.0015 0.72213,-0.996778 0.72212,-0.673759 0.72213,-7.18e-4 0.72213,-0.296068 0.72213,0.378118 0.72212,-0.282602 0.72213,-0.18911 0.72213,0.111735 0.72213,-0.817541 0.72212,0.256391 0.72213,-0.347262 0.72213,-0.773575 0.72213,-0.676978 0.72212,-0.446754 0.72213,-0.186706 0.72213,1.3179 0.72213,1.185224 0.72212,-1.151807 0.72213,-0.843366 0.72213,-0.897451 0.72213,-0.158272 0.72212,0.01676 0.72213,-0.883992 0.72213,-0.947279 0.72213,0.387049 0.72212,0.336405 0.72213,0.919689 0.72213,0.691069 0.72213,0.04749 0.72212,-1.085636 0.72213,-0.754182 0.72213,-0.415411 0.72213,-0.234341 0.72212,-0.487751 0.72213,0.108961 0.72213,-0.119739 0.72213,-0.273606 0.72212,0.40208 0.72213,0.462703 0.72213,0.349874 0.72213,-0.380977 0.72212,-0.184115 0.72213,0.04768 0.72213,-0.08689 0.72213,-0.741559 0.72212,-0.581389 0.72213,-0.236899 0.72213,1.075259 0.72213,0.712117 0.72212,-0.30571 0.72213,0.129511 0.72213,0.05044 0.72213,-0.28053 0.72212,-0.57863 0.72213,-0.601918 0.72213,-0.477157 0.72213,-0.0856 0.72212,-9.1e-5 0.72213,-0.422421 0.72213,0.152498 0.72213,0.777392 0.72212,0.776602 0.72213,-0.329929 0.72213,-0.06963 0.72213,0.261942 0.72212,-0.01279 0.72213,0.107229 0.72213,0.100487 0.72213,-0.745617 0.72212,-0.200069 0.72213,0.01275 0.72213,-0.03297 0.72213,0.33761 0.72212,0.187318 0.72213,0.52636 0.72213,0.267861 0.72213,0.263408 0.72212,-0.05702 0.72213,0.189037 0.72213,-0.192725 0.72213,-0.06378 0.72212,0.269196 0.72213,-0.07901 0.72213,-0.162654 0.72213,-0.386083 0.72212,-0.309663 0.72213,-0.705237 0.72213,-0.464229 0.72213,-0.302161 0.72212,-0.158289 0.72213,-0.43832 0.72213,-0.406427 0.72213,-0.552632 0.72212,-0.06088 0.72213,0.578277 0.72213,0.27987 0.72213,0.369077 0.72212,0.22758 0.72213,-0.122436 0.72213,-0.338609 0.72213,-0.01265 0.72212,0.49675 0.72213,0.191902 0.72213,0.120529 0.72213,-0.298165 0.72212,-0.142531 0.72213,0.04862 0.72213,-0.09157 0.72213,0.323343 0.72212,0.16298 0.72213,0.567253 0.72213,0.357954 0.72213,-0.212952 0.72212,0.355174 0.72213,0.270568 0.72213,0.118356 0.72213,-0.143787 0.72212,-0.45357 0.72213,-0.37991 0.72213,-0.9741 0.72213,-0.142351 0.72212,-0.15067 0.72213,-0.6245 0.72213,0.108386 0.72213,0.431439 0.72212,-0.60785 0.72213,-0.246122 0.72213,-0.01012 0.72213,-0.350074 0.72212,0.145748 0.72213,0.105744 0.72213,0.100255 0.72213,0.213837 0.72212,0.331095 0.72213,0.217276 0.72213,-0.113356 0.72213,0.56952 0.72212,0.240813 0.72213,0.08494 0.72213,-0.05047 0.72213,0.559559 0.72212,0.336436 0.72213,-0.237405 0.72213,-0.142684 0.72213,0.497354 0.72212,-0.397944 0.72213,-0.07489 0.72213,0.0792 0.72213,-0.141219 0.72212,-0.174416 0.72213,-0.05813 0.72213,0.147793 0.72213,7.83e-4 0.72212,0.205241 0.72213,0.09339 0.72213,0.01374 0.72213,-0.131806 0.72212,-0.200881 0.72213,0.133639 0.72213,0.420114 0.72213,0.0011 0.72212,0.188271 0.72213,0.262979 0.72213,-0.225017 0.72213,-0.277697 0.72212,0.07335 0.72213,-0.06047 0.72213,0.240556 0.72213,0.641935 0.72212,-0.008 0.72213,-0.01362 0.72213,0.01074 0.72213,0.04593 0.72212,0.155435 0.72213,0.100091 0.72213,0.08102 0.72213,-0.06086 0.72212,-0.140352 0.72213,-0.690613 0.72213,0.223347 0.72213,0.21052 0.72212,-0.05929 0.72213,-0.166797 0.72213,-0.193457 0.72213,-0.01557 0.72212,-0.232478 0.72213,-0.208124 0.72213,-0.104614 0.72213,-0.110515 0.72212,-0.224839 0.72213,-0.146411 0.72213,-0.01325 0.72213,-0.04863 0.72212,-0.0033 0.72213,-0.05604 0.72213,0.154099 0.72213,-0.03157 0.72212,0.08944 0.72213,0.117644 0.72213,-0.0076 0.72213,-0.150968 0.72212,-0.06955"
                     fill="none"
                     id="path45" />
                </g>
              </g>
            </g>
          </g>
          <g
             opacity="0.2"
             id="g56">
            <g
               id="g55">
              <g
                 id="g54">
                <g
                   id="g50">
                  <path
                     style="fill:none"
                     stroke="#33bbee"
                     stroke-width="2px"
                     d="m 36.828502,26.162921 0.722128,59.841706 0.722127,86.062113 0.722128,26.71793 8.66553,0.11277 0.722127,-73.62854 0.722128,-83.415307 0.722127,7.759107 0.722128,-32.977837 0.722127,-0.656735 0.722128,35.009935 0.722127,60.520547 0.722128,-24.33205 0.722127,-48.195315 0.722128,-13.09473 0.722127,-2.923209 0.722128,-3.12884 0.722127,5.775656 0.722128,-4.804939 0.722127,1.618595 0.722128,-0.758443 0.722127,0.327267 0.722128,-3.918256 0.722127,-4.665629 0.722128,11.051574 0.722127,3.391988 0.722128,-4.972994 0.722127,-6.50977 0.722128,-0.08402 0.722127,6.113968 0.722128,2.410199 0.722127,-11.347869 0.722128,0.103923 0.722127,6.315183 0.722128,-3.69934 0.722127,8.601572 0.722128,-9.357801 0.722127,10.007894 0.722128,-6.834823 0.722127,-5.457232 0.722128,-4.4555697 0.722127,7.0868857 0.722128,-7.4207822 0.722127,7.7148762 0.722128,-2.348294 0.722127,-1.306815 0.722128,4.000063 0.722127,-2.48539 0.722128,-2.472131 0.722127,2.029884 0.722128,4.884544 0.722127,-4.433453 0.722128,-0.524055 0.722127,3.650694 0.722128,-5.762397 0.722127,7.577793 0.722128,-10.918907 0.722127,6.001188 0.722128,4.249926 0.722127,-3.542343 0.722128,1.782236 0.722127,4.647941 0.722128,-7.235053 0.722127,-3.469366 0.722128,-0.4289752 0.722127,3.1045232 0.722128,0.398016 0.722127,6.155985 0.722128,0.98619 0.722127,-5.733639 0.722128,-0.674422 0.722127,1.098969 0.722128,-5.9016937 0.722127,2.8900357 0.722128,11.146666 0.722127,-4.871272 0.722128,-0.424548 0.722125,1.227209 0.72213,-1.463812 0.72213,-4.353848 0.72212,0.398016 0.72213,2.304063 0.72213,-0.09951 0.72213,8.592728 0.72212,-5.937069 0.72213,-4.260983 0.72213,0.05306 0.72213,-0.35157 0.72212,5.4108 0.72213,-5.647404 0.72213,-3.725871 0.72213,1.443911 0.72212,0.205644 0.72213,5.824303 0.72213,-5.709323 0.72213,5.149881 0.72212,-8.8801797 0.72213,5.9591847 0.72213,3.226146 0.72213,-3.020502 0.72212,1.282498 0.72213,-0.196801 0.72213,1.21395 0.72213,-2.755154 0.72212,2.412427 0.72213,-3.190772 0.72213,7.703832 0.72213,-7.330132 0.72212,-2.458859 0.72213,0.212273 0.72213,-0.344941 0.72213,6.657924 0.72212,-5.497049 0.72213,3.062519 0.72213,-1.970179 0.72213,2.270902 0.72212,3.566659 0.72213,-5.147665 0.72213,-2.602585 0.72213,3.369872 0.72212,-4.468842 0.72213,8.223458 0.72213,0.493095 0.72213,1.691572 0.72212,-3.655122 0.72213,0.840264 0.72213,0.143725 0.72213,-1.95692 0.72212,-1.129916 0.72213,2.326178 0.72213,-1.79328 0.72213,-1.324515 0.72212,6.458922 0.72213,-4.340589 0.72213,-2.365981 0.72213,-2.715351 0.72212,-2.1979389 0.72213,1.4195939 0.72213,0.787189 0.72213,3.206245 0.72212,-0.738543 0.72213,-4.3870208 0.72213,1.2647978 0.72213,1.41075 0.72212,1.300185 0.72213,-0.415703 0.72213,-1.682728 0.72213,2.717565 0.72212,3.307953 0.72213,-6.193561 0.72213,1.448326 0.72213,4.243296 0.72212,-1.320087 0.72213,-2.66449 0.72213,1.554463 0.72213,1.501414 0.72212,3.785575 0.72213,-4.731975 0.72213,2.315133 0.72213,0.999463 0.72212,-4.873487 0.72213,-1.508044 0.72213,-3.1332683 0.72213,2.7684263 0.72212,-0.776131 0.72213,1.399692 0.72213,4.62804 0.72213,-5.603185 0.72212,2.498662 0.72213,0.420118 0.72213,-0.846879 0.72213,0.479823 0.72212,-2.757368 0.72213,4.64574 0.72213,-4.475471 0.72213,6.206833 0.72212,-1.083484 0.72213,4.807153 0.72213,-5.550123 0.72213,0.904383 0.72212,-0.970717 0.72213,-0.486466 0.72213,-3.24382 0.72213,2.127164 0.72212,3.416304 0.72213,-2.52518 0.72213,-2.728623 0.72213,3.111153 0.72212,-1.581007 0.72213,0.917655 0.72213,0.957445 0.72213,-0.835835 0.72212,-3.898341 0.72213,-0.212274 0.72213,-0.7296981 0.72213,1.9834381 0.72212,1.886158 0.72213,-4.9685656 0.72213,3.7280846 0.72213,2.094004 0.72212,-3.119997 0.72213,-0.329468 0.72213,2.768413 0.72213,-2.06083 0.72212,0.117195 0.72213,2.049772 0.72213,-2.166967 0.72213,-0.402445 0.72212,1.879516 0.72213,-0.373686 0.72213,2.094003 0.72213,-0.278607 0.72212,-0.03539 0.72213,-1.293543 0.72213,5.306878 0.72213,-4.933191 0.72212,-0.01106 0.72213,-0.778332 0.72213,1.326716 0.72213,-2.034299 0.72212,2.091789 0.72213,-1.550047 0.72213,1.623011 0.72213,0.119408 0.72212,-1.760106 0.72213,-0.98399 0.72213,1.028208 0.72213,0.03537 0.72212,1.572163 0.72213,-1.238266 0.72213,-0.855737 0.72213,0.309567 0.72212,-0.09951 0.72213,4.720918 0.72213,-0.391387 0.72213,-2.733038 0.72212,-2.724194 0.72213,1.048109 0.72213,0.07075 0.72213,0.524054 0.72212,-2.147065 0.72213,1.404108 0.72213,2.25763 0.72213,-1.275855 0.72212,0.01547 0.72213,2.155922 0.72213,0.04422 0.72213,-0.501939 0.72212,-2.228885 0.72213,-0.541742 0.72213,-1.837511 0.72213,3.188544 0.72212,1.050323 0.72213,-3.851909 0.72213,1.903845 0.72213,1.348832 0.72212,0.944186 0.72213,-0.512996 0.72213,0.426761 0.72213,0.96186 0.72212,-0.809291 0.72213,-0.891111 0.72213,0.402431 0.72213,-2.255416 0.72212,1.948064 0.72213,0.636821 0.72213,-0.271978 0.72213,-1.101171 0.72212,0.906584 0.72213,0.530697 0.72213,-0.541754 0.72213,-0.815921 0.72212,-0.473207 0.72213,-0.23659 0.72213,1.163089 0.72213,0.495309 0.72212,-0.656735 0.72213,0.207858 0.72213,0.48868 0.72213,0.351571 0.72212,-0.64345 0.72213,-0.221117 0.72213,-0.143739 0.72213,1.121085 0.72212,0.47098 0.72213,0.07298 0.72213,0.705369 0.72213,-0.351584 0.72212,-1.664171"
                     fill="none"
                     id="path49" />
                </g>
                <g
                   id="g51">
                  <path
                     style="fill:none"
                     stroke="#0077bb"
                     stroke-width="2px"
                     d="m 42.605522,190.21848 0.722128,-19.3679 0.722127,-17.77805 0.722128,10.19142 0.722127,-21.65649 0.722128,-4.41135 0.722127,10.60271 0.722128,3.5932 0.722127,18.51438 0.722128,-30.80202 0.722127,56.61557 0.722128,-25.99929 0.722127,-72.867889 0.722128,9.870799 0.722127,8.70549 0.722128,-14.77523 0.722127,12.4977 0.722128,-14.527587 0.722127,5.928227 0.722128,-14.131777 0.722127,-0.592602 0.722128,4.608138 0.722127,-29.479712 0.722128,4.179163 0.722127,-1.315659 0.722128,-4.026607 0.722127,-6.273166 0.722128,23.359116 0.722127,4.048709 0.722128,-7.608739 0.722127,-4.084084 0.722128,-8.449003 0.722127,-6.832608 0.722128,-2.963012 0.722127,16.743209 0.722128,-30.870562 0.722127,3.544557 0.722128,4.393651 0.722127,9.245035 0.722128,-3.792218 0.722127,-11.748099 0.722128,9.393176 0.722127,-8.128366 0.722128,0.650093 0.722127,-4.858014 0.722128,-6.133869 0.722127,22.118635 0.722128,0.802661 0.722127,-7.694974 0.722128,0.869009 0.722127,4.183591 0.722128,-16.161664 0.722127,2.105061 0.722128,5.22507 0.722127,-7.827655 0.722128,-1.826454 0.722127,11.336825 0.722128,2.10286 0.722127,1.932577 0.722128,1.043694 0.722127,-10.775182 0.722128,-5.769013 0.722127,1.899417 0.722128,-4.349432 0.722127,7.502602 0.722128,-5.399755 0.722127,5.541266 0.722128,6.485453 0.722127,0.187957 0.722128,-14.607189 0.722127,2.025456 0.722128,3.345542 0.722127,-7.206295 0.722128,1.339988 0.722127,2.270902 0.722128,11.677351 0.722127,17.63432 0.722128,-0.988418 0.722127,-28.203844 0.722128,0.840251 0.722125,-4.073027 0.72213,5.346681 0.72213,-0.66778 0.72212,-3.75683 0.72213,2.978485 0.72213,-2.257643 0.72213,-3.832008 0.72212,-6.666767 0.72213,4.815997 0.72213,2.761783 0.72213,1.35326 0.72212,0.762859 0.72213,-8.41583 0.72213,2.138235 0.72213,-1.945849 0.72212,8.274305 0.72213,-2.558354 0.72213,-3.066934 0.72213,-1.233852 0.72212,2.063044 0.72213,-1.359889 0.72213,6.556215 0.72213,-7.836499 0.72212,0.961873 0.72213,5.395327 0.72213,-2.589312 0.72213,5.906122 0.72212,-4.502014 0.72213,-3.248249 0.72213,-1.081269 0.72213,-2.540679 0.72212,-1.068011 0.72213,6.13387 0.72213,-4.544006 0.72213,2.903294 0.72212,-1.970179 0.72213,1.581007 0.72213,5.105662 0.72213,-3.632993 0.72212,5.527995 0.72213,-7.285901 0.72213,2.589313 0.72213,8.625888 0.72212,-11.285963 0.72213,-1.056953 0.72213,9.594392 0.72213,-7.453943 0.72212,-3.991219 0.72213,0.99282 0.72213,1.735803 0.72213,-0.625776 0.72212,2.644602 0.72213,0.238804 0.72213,2.029884 0.72213,-9.556803 0.72212,11.973645 0.72213,-6.052063 0.72213,0.532898 0.72213,4.291943 0.72212,-10.560694 0.72213,4.548448 0.72213,2.211198 0.72213,-4.280885 0.72212,-1.085697 0.72213,3.898341 0.72213,3.98459 0.72213,-6.315197 0.72212,3.217303 0.72213,-4.165904 0.72213,-1.063582 0.72213,7.515861 0.72212,-6.447851 0.72213,4.561706 0.72213,3.728072 0.72213,-7.186393 0.72212,2.056415 0.72213,-3.427362 0.72213,-5.919382 0.72213,6.100709 0.72212,3.482638 0.72213,2.204568 0.72213,0.970704 0.72213,2.087374 0.72212,-4.061968 0.72213,-3.347756 0.72213,3.823164 0.72213,-5.868521 0.72212,-2.516349 0.72213,1.26481 0.72213,8.510909 0.72213,11.252789 0.72212,-16.74541 0.72213,-5.875163 0.72213,11.487179 0.72213,-2.469904 0.72212,-2.929838 0.72213,3.226133 0.72213,-3.142112 0.72213,-2.158136 0.72212,0.583759 0.72213,-1.979023 0.72213,4.380392 0.72213,4.05091 0.72212,0.0022 0.72213,1.194049 0.72213,-12.097469 0.72213,2.273103 0.72212,7.624226 0.72213,-0.720855 0.72213,-1.983438 0.72213,0.340512 0.72212,2.850246 0.72213,2.874563 0.72213,-4.037652 0.72213,-0.588187 0.72212,3.38093 0.72213,-9.311369 0.72213,5.293618 0.72213,3.303525 0.72212,-6.985177 0.72213,-2.374825 0.72213,8.254403 0.72213,-1.702616 0.72212,2.102847 0.72213,4.544018 0.72213,-5.35331 0.72213,-0.756242 0.72212,3.133282 0.72213,-8.462262 0.72213,1.470441 0.72213,5.996774 0.72212,-1.576579 0.72213,-4.676699 0.72213,1.952492 0.72213,-2.684392 0.72212,6.726472 0.72213,-3.325654 0.72213,-1.421795 0.72213,1.771165 0.72212,5.547909 0.72213,-9.397604 0.72213,9.123412 0.72213,-7.549035 0.72212,2.465489 0.72213,0.373686 0.72213,2.646816 0.72213,-1.631868 0.72212,-6.516412 0.72213,2.28859 0.72213,3.281422 0.72213,1.534574 0.72212,-9.138885 0.72213,9.218491 0.72213,-4.926548 0.72213,-1.718103 0.72212,4.170319 0.72213,-3.931515 0.72213,-3.686068 0.72213,7.0891 0.72212,1.096756 0.72213,3.131067 0.72213,-7.25274 0.72213,4.453355 0.72212,-4.756292 0.72213,0.983989 0.72213,-0.891112 0.72213,0.581545 0.72212,-3.557829 0.72213,2.023255 0.72213,0.853522 0.72213,2.155922 0.72212,-3.15317 0.72213,3.827579 0.72213,-3.159799 0.72213,2.051986 0.72212,3.261521 0.72213,-4.844729 0.72213,-0.33611 0.72213,-0.137096 0.72212,6.074164 0.72213,-3.285837 0.72213,2.443373 0.72213,-2.071888 0.72212,-4.902232 0.72213,2.974057 0.72213,0.241032 0.72213,-0.258719 0.72212,2.040941 0.72213,-0.267549 0.72213,-0.386972 0.72213,-0.12161 0.72212,-2.034299 0.72213,3.020489 0.72213,-2.640173 0.72213,2.474332 0.72212,-1.782222 0.72213,-1.671671 0.72213,1.676099 0.72213,-1.914903 0.72212,-1.534574 0.72213,2.430114 0.72213,3.042604 0.72213,0.81372 0.72212,0.866794 0.72213,-1.21395 0.72213,-2.102847 0.72213,1.452755 0.72212,-1.09897 0.72213,0.548385 0.72213,-0.03096 0.72213,0.05971 0.72212,-4.808616"
                     fill="none"
                     id="path50" />
                </g>
                <g
                   id="g52">
                  <path
                     style="fill:none"
                     stroke="#cc3311"
                     stroke-width="2px"
                     d="m 36.828502,77.938167 0.722128,-32.259196 0.722127,50.384404 0.722128,8.132795 0.722127,-65.87829 0.722128,3.931515 0.722127,98.203815 0.722128,37.73855 6.499147,20.531 0.722128,-60.42105 0.722127,6.48988 0.722128,45.29643 2.166382,-6.18473 0.722128,-16.94885 0.722127,-46.11015 0.722128,-93.743825 0.722127,16.303175 0.722128,-0.462135 0.722127,-11.217416 0.722128,-6.812707 0.722127,-11.013985 0.722128,10.47003 0.722127,-0.501939 0.722128,-7.354462 0.722127,-0.882267 0.722128,6.100708 0.722127,-6.425748 0.722128,6.44565 0.722127,-4.785037 0.722128,22.142951 0.722127,2.598156 0.722128,-28.637248 0.722127,8.446789 0.722128,-8.632531 0.722127,4.046495 0.722128,2.251001 0.722127,16.873675 0.722128,12.309743 0.722127,-8.349483 0.722128,-10.700003 0.722127,-7.761309 0.722128,0.824778 0.722127,-1.979023 0.722128,-6.545157 0.722127,1.693786 0.722128,2.666704 0.722127,-0.851308 0.722128,-1.888373 0.722127,4.285313 0.722128,2.500863 0.722127,0.442235 0.722128,-8.526382 0.722127,4.258769 0.722128,-1.67167 0.722127,0.773929 0.722128,-0.501951 0.722127,2.82813 0.722128,-6.631393 0.722127,-0.698739 0.722128,2.901093 0.722127,-3.41409 0.722128,-0.0088 0.722127,1.121072 0.722128,-3.2217182 0.722127,5.5877122 0.722128,4.563907 0.722127,-0.400217 0.722128,-5.001739 0.722127,2.178037 0.722128,-6.273179 0.722127,3.571087 0.722128,1.534575 0.722127,1.784436 0.722128,-5.342265 0.722127,11.55574 0.722128,-8.318536 0.722127,-6.215689 0.722128,6.781761 0.722125,-7.0227796 0.72213,8.4865916 0.72213,-1.578806 0.72212,0.612504 0.72213,-2.602571 0.72213,0.03095 0.72213,-3.8430657 0.72212,0.6876817 0.72213,4.614781 0.72213,-7.0891135 0.72213,1.2802837 0.72212,2.4920328 0.72213,0.555014 0.72213,4.194636 0.72213,-2.164766 0.72212,-0.322825 0.72213,1.950277 0.72213,-0.86458 0.72213,-0.06633 0.72212,0.572701 0.72213,2.051986 0.72213,-4.630254 0.72213,-1.749062 0.72212,6.012259 0.72213,-6.158185 0.72213,1.775593 0.72213,4.723118 0.72212,-3.531284 0.72213,0.256491 0.72213,2.708722 0.72213,-6.50977 0.72212,6.954218 0.72213,-8.9929451 0.72213,7.7789951 0.72213,-0.526255 0.72212,0.574902 0.72213,-1.861828 0.72213,-3.566659 0.72213,3.378715 0.72212,1.702617 0.72213,-5.802187 0.72213,4.915504 0.72213,-2.810443 0.72212,4.477685 0.72213,-2.401369 0.72213,-3.524655 0.72213,-0.283023 0.72212,0.840251 0.72213,-0.685467 0.72213,9.897328 0.72213,-9.817736 0.72212,-2.1315918 0.72213,4.0531248 0.72213,-0.862366 0.72213,-2.4500025 0.72212,4.1614755 0.72213,-0.479836 0.72213,1.806552 0.72213,-4.349432 0.72212,3.566672 0.72213,-0.762859 0.72213,0.811506 0.72213,2.509706 0.72212,-0.66778 0.72213,-1.574377 0.72213,-0.448864 0.72213,-3.223932 0.72212,1.357676 0.72213,-1.258168 0.72213,-1.4593973 0.72213,1.6185953 0.72212,-0.101708 0.72213,-2.1913098 0.72213,1.0282073 0.72213,2.9740695 0.72212,-3.2394048 0.72213,3.5909888 0.72213,-1.344416 0.72213,-2.534037 0.72212,4.765136 0.72213,-3.869596 0.72213,3.084622 0.72213,-1.457183 0.72212,2.16698 0.72213,-1.050323 0.72213,-0.448864 0.72213,-1.917118 0.72212,2.308491 0.72213,-2.971842 0.72213,-0.610303 0.72213,1.306828 0.72212,-2.8038004 0.72213,1.4792852 0.72213,3.8342222 0.72213,-2.682178 0.72212,2.160337 0.72213,0.229961 0.72213,-4.3803785 0.72213,2.2532015 0.72212,-0.276393 0.72213,0.550585 0.72213,-0.824777 0.72213,-1.9215326 0.72212,-0.099507 0.72213,2.2178406 0.72213,-0.137097 0.72213,-0.307352 0.72212,-0.7916167 0.72213,3.5843597 0.72213,3.927086 0.72213,-1.06801 0.72212,-5.240544 0.72213,6.142713 0.72213,-6.279809 0.72213,3.128853 0.72212,0.358213 0.72213,0.03096 0.72213,-1.090126 0.72213,-0.557215 0.72212,1.609752 0.72213,-1.426223 0.72213,0.190157 0.72213,-0.232175 0.72212,-0.80709 0.72213,0.705382 0.72213,-1.877315 0.72213,-1.3466168 0.72212,2.4433728 0.72213,-1.4704547 0.72213,1.1763607 0.72213,1.174147 0.72212,-1.278069 0.72213,-1.5456323 0.72213,2.2310993 0.72213,2.489818 0.72212,-2.582683 0.72213,1.868458 0.72213,-3.173072 0.72213,1.028208 0.72212,0.176899 0.72213,-1.490343 0.72213,-1.8861582 0.72213,-0.011058 0.72212,1.2117357 0.72213,1.1675175 0.72213,-2.7772694 0.72213,5.8486324 0.72212,0.674409 0.72213,-1.202892 0.72213,-2.569411 0.72213,-0.8933253 0.72212,0.4223323 0.72213,1.087912 0.72213,1.189633 0.72213,-3.0558763 0.72212,2.6313163 0.72213,-0.784974 0.72213,-1.7158889 0.72213,2.0188259 0.72212,4.179163 0.72213,-3.929301 0.72213,1.065809 0.72213,0.462136 0.72212,1.065796 0.72213,-2.244371 0.72213,-1.645127 0.72213,-0.552799 0.72212,-1.7512764 0.72213,-0.079606 0.72213,0.9088116 0.72213,2.6998778 0.72212,-2.0719008 0.72213,3.8032628 0.72213,2.538465 0.72213,0.80709 0.72212,-4.066397 0.72213,-1.021578 0.72213,1.025993 0.72213,1.21395 0.72212,-2.085159 0.72213,2.107275 0.72213,-3.285851 0.72213,0.179113 0.72212,-0.8137193 0.72213,0.3405263 0.72213,-0.6169326 0.72213,0.9839896 0.72212,0.307352 0.72213,-0.842465 0.72213,-0.6523065 0.72213,0.517425 0.72212,2.1028465 0.72213,-2.8259156 0.72213,-2.0409283 0.72213,0.2896652 0.72212,0.192372 0.72213,-0.8358352 0.72213,-1.255967 0.72213,4.8557999 0.72212,1.063595 0.72213,-3.9978622 0.72213,3.7369292 0.72213,0.223331 0.72212,-2.1426501 0.72213,-0.409074 0.72213,1.5765921 0.72213,-1.3952647 0.72212,-0.0177 0.72213,-0.4002172 0.72213,-0.6235617 0.72213,0.1857426 0.72212,0.5667437"
                     fill="none"
                     id="path51" />
                </g>
                <g
                   id="g53">
                  <path
                     style="fill:none"
                     stroke="#ff7043"
                     stroke-width="2px"
                     d="m 49.10467,187.83923 0.722127,-23.73502 0.722128,-7.11122 0.722127,-8.5087 0.722128,-6.36383 0.722127,-5.16094 0.722128,-30.22489 0.722127,-0.84468 0.722128,-1.27586 0.722127,-8.26105 0.722128,-9.293675 0.722127,11.305865 0.722128,-12.729874 0.722127,-9.866383 0.722128,-8.234501 0.722127,18.916818 0.722128,-13.399882 0.722127,5.84199 0.722128,-5.47492 0.722127,-0.117194 0.722128,-8.729824 0.722127,2.069686 0.722128,-9.903971 0.722127,-2.878978 0.722128,-1.309029 0.722127,-3.111153 0.722128,0.373687 0.722127,-3.075778 0.722128,6.094066 0.722127,14.07429 0.722128,0.658937 0.722127,-16.358452 0.722128,-12.756418 0.722127,5.375425 0.722128,-8.221243 0.722127,2.107276 0.722128,15.047222 0.722127,-5.20517 0.722128,2.755154 0.722127,-8.50648 0.722128,-13.536977 0.722127,4.247724 0.722128,14.204744 0.722127,-10.138347 0.722128,3.646265 0.722127,13.364493 0.722128,-15.8742 0.722127,-0.48868 0.722128,4.915491 0.722127,10.651357 0.722128,-9.910601 0.722127,-8.617045 0.722128,-6.551786 0.722127,5.77787 0.722128,14.414803 0.722127,-5.846405 0.722128,-2.511921 0.722127,7.615369 0.722128,-4.296358 0.722127,12.714401 0.722128,-9.382131 0.722127,-12.676799 0.722128,5.388684 0.722127,-5.337836 0.722128,-1.056953 0.722127,7.575579 0.722128,-16.889149 0.722127,12.502128 0.722128,6.456694 0.722127,-8.698851 0.722128,-5.284776 0.722125,-2.370409 0.72213,16.495561 0.72213,-4.623625 0.72212,0.758444 0.72213,-4.50643 0.72213,-6.850296 0.72213,4.349433 0.72212,-5.998988 0.72213,11.865307 0.72213,-2.576053 0.72213,-9.98135 0.72212,2.2333 0.72213,6.056478 0.72213,-2.954155 0.72213,6.44565 0.72212,-6.228962 0.72213,0.652307 0.72213,2.819287 0.72213,-9.180903 0.72212,9.921646 0.72213,-5.780071 0.72213,-4.610353 0.72213,0.192372 0.72212,1.625238 0.72213,2.153708 0.72213,14.859265 0.72213,-0.0088 0.72212,-22.184968 0.72213,1.932577 0.72213,-1.384206 0.72213,6.494296 0.72212,1.592065 0.72213,-8.990744 0.72213,-1.516874 0.72213,12.395977 0.72212,-0.119395 0.72213,6.169243 0.72213,-1.366519 0.72213,-5.744696 0.72212,-11.283763 0.72213,2.228899 0.72213,2.63353 0.72213,1.395278 0.72212,-2.768426 0.72213,5.479348 0.72213,-2.178024 0.72213,-1.658412 0.72212,6.483239 0.72213,1.008319 0.72213,-0.665579 0.72213,-6.958647 0.72212,1.58765 0.72213,2.133806 0.72213,-1.297984 0.72213,-6.633594 0.72212,0.860152 0.72213,2.863505 0.72213,12.88467 0.72213,-2.556152 0.72212,-9.466152 0.72213,4.046495 0.72213,-0.661137 0.72213,-3.25932 0.72212,-3.261521 0.72213,-0.811505 0.72213,0.645677 0.72213,3.438407 0.72212,0.769501 0.72213,-4.223394 0.72213,5.326779 0.72213,6.401432 0.72212,0.769488 0.72213,-10.288702 0.72213,2.273103 0.72213,3.246048 0.72212,-2.48539 0.72213,1.187419 0.72213,0.0398 0.72213,-8.360553 0.72212,4.709859 0.72213,1.928163 0.72213,-0.444449 0.72213,3.672796 0.72212,-1.165303 0.72213,3.57773 0.72213,-2.058629 0.72213,0.223331 0.72212,-2.940896 0.72213,2.40357 0.72213,-3.628578 0.72213,1.096756 0.72212,3.265949 0.72213,-3.212875 0.72213,-0.915441 0.72213,-2.39694 0.72212,0.378115 0.72213,-4.265399 0.72213,1.704831 0.72213,1.15646 0.72212,1.136558 0.72213,-2.958597 0.72213,-0.119395 0.72213,-1.868471 0.72212,4.364905 0.72213,6.33067 0.72213,-2.405784 0.72213,1.171933 0.72212,-1.045895 0.72213,-3.272579 0.72213,-2.284161 0.72213,2.920995 0.72212,5.081332 0.72213,-2.551724 0.72213,-0.52184 0.72213,-4.066397 0.72212,1.258168 0.72213,1.768964 0.72213,-1.35326 0.72213,4.057553 0.72212,-1.280284 0.72213,4.205707 0.72213,-1.525731 0.72213,-5.351108 0.72212,5.468303 0.72213,-0.490881 0.72213,-1.251552 0.72213,-2.503077 0.72212,-3.241619 0.72213,0.283035 0.72213,-6.321812 0.72213,7.34339 0.72212,-0.225545 0.72213,-4.88896 0.72213,6.704356 0.72213,3.338912 0.72212,-9.961448 0.72213,3.009431 0.72213,2.113918 0.72213,-3.409675 0.72212,4.608139 0.72213,-0.254291 0.72213,0.05086 0.72213,1.236065 0.72212,1.386421 0.72213,-0.80709 0.72213,-3.089051 0.72213,6.715414 0.72212,-2.717565 0.72213,-1.317872 0.72213,-1.269226 0.72213,6.049848 0.72212,-1.671671 0.72213,-5.401969 0.72213,0.709797 0.72213,6.257706 0.72212,-8.455632 0.72213,2.832545 0.72213,1.466027 0.72213,-2.124963 0.72212,-0.473194 0.72213,0.988405 0.72213,2.001138 0.72213,-1.3223 0.72212,2.045356 0.72213,-0.913227 0.72213,-0.703154 0.72213,-1.44171 0.72212,-0.822563 0.72213,3.144326 0.72213,2.998387 0.72213,-3.770102 0.72212,1.872886 0.72213,0.935342 0.72213,-4.616982 0.72213,-0.751814 0.72212,3.232776 0.72213,-1.264797 0.72213,2.94974 0.72213,4.25434 0.72212,-5.857463 0.72213,-0.06413 0.72213,0.229974 0.72213,0.362629 0.72212,1.140986 0.72213,-0.398016 0.72213,-0.09066 0.72213,-1.337774 0.72212,-0.855737 0.72213,-5.642975 0.72213,8.448989 0.72213,0.09508 0.72212,-2.487604 0.72213,-1.134344 0.72213,-0.433391 0.72213,1.585436 0.72212,-2.184667 0.72213,0.01106 0.72213,0.826979 0.72213,-0.163627 0.72212,-1.253753 0.72213,0.559442 0.72213,1.185205 0.72213,-0.367057 0.72212,0.404646 0.72213,-0.530684 0.72213,2.045357 0.72213,-1.70263 0.72212,1.178575 0.72213,0.371472 0.72213,-1.134344 0.72213,-1.441696 0.72212,0.663193"
                     fill="none"
                     id="path52" />
                </g>
              </g>
            </g>
          </g>
        </g>
      </g>
      <g
         transform="translate(41,176)"
         clip-path="url(#clip_1)"
         id="g76">
        <clipPath
           id="clip_1">
          <rect
             width="288"
             height="23"
             id="rect58"
             x="0"
             y="0" />
        </clipPath>
        <g
           id="g75">
          <g
             id="g66">
            <line
               x1="0"
               y1="0"
               x2="0"
               y2="5"
               style="visibility:inherit"
               fill="#000000"
               stroke="#cccccc"
               stroke-width="1px"
               id="line58" />
            <line
               x1="36.106377"
               y1="0"
               x2="36.106377"
               y2="5"
               style="visibility:inherit"
               fill="#000000"
               stroke="#cccccc"
               stroke-width="1px"
               id="line59" />
            <line
               x1="72.212753"
               y1="0"
               x2="72.212753"
               y2="5"
               style="visibility:inherit"
               fill="#000000"
               stroke="#cccccc"
               stroke-width="1px"
               id="line60" />
            <line
               x1="108.31912"
               y1="0"
               x2="108.31912"
               y2="5"
               style="visibility:inherit"
               fill="#000000"
               stroke="#cccccc"
               stroke-width="1px"
               id="line61" />
            <line
               x1="144.42551"
               y1="0"
               x2="144.42551"
               y2="5"
               style="visibility:inherit"
               fill="#000000"
               stroke="#cccccc"
               stroke-width="1px"
               id="line62" />
            <line
               x1="180.53188"
               y1="0"
               x2="180.53188"
               y2="5"
               style="visibility:inherit"
               fill="#000000"
               stroke="#cccccc"
               stroke-width="1px"
               id="line63" />
            <line
               x1="216.63824"
               y1="0"
               x2="216.63824"
               y2="5"
               style="visibility:inherit"
               fill="#000000"
               stroke="#cccccc"
               stroke-width="1px"
               id="line64" />
            <line
               x1="252.74463"
               y1="0"
               x2="252.74463"
               y2="5"
               style="visibility:inherit"
               fill="#000000"
               stroke="#cccccc"
               stroke-width="1px"
               id="line65" />
            <line
               x1="288.85101"
               y1="0"
               x2="288.85101"
               y2="5"
               style="visibility:inherit"
               fill="#000000"
               stroke="#cccccc"
               stroke-width="1px"
               id="line66" />
          </g>
          <g
             transform="translate(0,8)"
             id="g74">
            <text
               style="font-weight:200;font-size:12px;font-family:Roboto, sans-serif;text-anchor:middle;visibility:hidden"
               x="0"
               y="0"
               dx="0em"
               dy="0.94999999em"
               fill="#212121"
               stroke="none"
               stroke-width="1px"
               id="text66">-50</text>
            <text
               style="font-weight:200;font-size:12px;font-family:Roboto, sans-serif;text-anchor:middle;visibility:inherit"
               x="36.106377"
               y="0"
               dx="0em"
               dy="0.94999999em"
               fill="#212121"
               stroke="none"
               stroke-width="1px"
               id="text67">0</text>
            <text
               style="font-weight:200;font-size:12px;font-family:Roboto, sans-serif;text-anchor:middle;visibility:inherit"
               x="72.212753"
               y="0"
               dx="0em"
               dy="0.94999999em"
               fill="#212121"
               stroke="none"
               stroke-width="1px"
               id="text68">50</text>
            <text
               style="font-weight:200;font-size:12px;font-family:Roboto, sans-serif;text-anchor:middle;visibility:inherit"
               x="108.31912"
               y="0"
               dx="0em"
               dy="0.94999999em"
               fill="#212121"
               stroke="none"
               stroke-width="1px"
               id="text69">100</text>
            <text
               style="font-weight:200;font-size:12px;font-family:Roboto, sans-serif;text-anchor:middle;visibility:inherit"
               x="144.42551"
               y="0"
               dx="0em"
               dy="0.94999999em"
               fill="#212121"
               stroke="none"
               stroke-width="1px"
               id="text70">150</text>
            <text
               style="font-weight:200;font-size:12px;font-family:Roboto, sans-serif;text-anchor:middle;visibility:inherit"
               x="180.53188"
               y="0"
               dx="0em"
               dy="0.94999999em"
               fill="#212121"
               stroke="none"
               stroke-width="1px"
               id="text71">200</text>
            <text
               style="font-weight:200;font-size:12px;font-family:Roboto, sans-serif;text-anchor:middle;visibility:inherit"
               x="216.63824"
               y="0"
               dx="0em"
               dy="0.94999999em"
               fill="#212121"
               stroke="none"
               stroke-width="1px"
               id="text72">250</text>
            <text
               style="font-weight:200;font-size:12px;font-family:Roboto, sans-serif;text-anchor:middle;visibility:inherit"
               x="252.74463"
               y="0"
               dx="0em"
               dy="0.94999999em"
               fill="#212121"
               stroke="none"
               stroke-width="1px"
               id="text73">300</text>
            <text
               style="font-weight:200;font-size:12px;font-family:Roboto, sans-serif;text-anchor:middle;visibility:hidden"
               x="288.85101"
               y="0"
               dx="0em"
               dy="0.94999999em"
               fill="#212121"
               stroke="none"
               stroke-width="1px"
               id="text74">350</text>
          </g>
          <line
             x1="0"
             y1="0"
             x2="288.85101"
             y2="0"
             fill="#000000"
             stroke="#cccccc"
             stroke-width="1px"
             id="line74" />
        </g>
      </g>
    </g>
  </g>
</svg>
