<?xml version="1.0" encoding="UTF-8" standalone="no"?>
<!-- Created with Inkscape (http://www.inkscape.org/) -->

<svg
   version="1.1"
   id="svg1"
   width="2650.2068"
   height="3025.467"
   viewBox="0 0 2650.2068 3025.467"
   sodipodi:docname="logo.svg"
   inkscape:version="1.3.2 (091e20ef0f, 2023-11-25, custom)"
   xmlns:inkscape="http://www.inkscape.org/namespaces/inkscape"
   xmlns:sodipodi="http://sodipodi.sourceforge.net/DTD/sodipodi-0.dtd"
   xmlns="http://www.w3.org/2000/svg"
   xmlns:svg="http://www.w3.org/2000/svg">
  <defs
     id="defs1" />
  <sodipodi:namedview
     id="namedview1"
     pagecolor="#ffffff"
     bordercolor="#666666"
     borderopacity="1.0"
     inkscape:showpageshadow="2"
     inkscape:pageopacity="0.0"
     inkscape:pagecheckerboard="0"
     inkscape:deskcolor="#d1d1d1"
     inkscape:zoom="0.090752257"
     inkscape:cx="3873.1819"
     inkscape:cy="5035.6875"
     inkscape:window-width="1914"
     inkscape:window-height="2126"
     inkscape:window-x="3840"
     inkscape:window-y="0"
     inkscape:window-maximized="1"
     inkscape:current-layer="g1" />
  <g
     inkscape:groupmode="layer"
     inkscape:label="Image"
     id="g1"
     transform="translate(731.76392,2450.8496)">
    <path
       id="path4"
       style="fill:#000000;stroke:#ffffff;stroke-width:450;stroke-linecap:round;stroke-linejoin:round;stroke-dasharray:none;stroke-opacity:1;paint-order:markers stroke fill"
       d="m 655.35938,-2225.8496 c -26.01608,0.01 -47.51266,4.2343 -71.11133,13.9727 -49.77175,20.5394 -93.18374,63.5084 -120.69141,119.4609 -16.50548,33.5736 -26.41507,67.0085 -31.73047,107.0606 -2.2102,16.6544 -2.50839,66.5066 -0.49609,83 3.1163,25.5413 9.37451,53.4726 16.6914,74.5 33.66507,96.7471 107.48873,162.4646 190.86914,169.9121 25.72828,2.298 51.03309,-0.6655 75.59766,-8.8535 82.43022,-27.4759 145.381,-110.7794 162.89258,-215.5586 22.74298,-136.0808 -34.94912,-272.3973 -136.91602,-323.5117 -27.74577,-13.9086 -53.6634,-19.9935 -85.10546,-19.9825 z m -1162.16211,102.5528 c 0,0 51.47703,124.4139 62.36132,148.7558 3.0741,6.875 11.51056,24.2 18.74805,38.5 82.53572,163.0756 197.86259,319.4553 321.53906,436 114.0335869,107.4578 234.36091,184.147 365.92188,233.2129 12.37869,4.6167 25.88281,10.2039 30.00781,12.416 26.38767,14.1513 45.82886,39.0026 53.71875,68.666 2.2336,8.3976 2.58709,11.7943 2.62109,25.2051 0.0382,14.943 -0.13163,16.2546 -4.70703,36.5 -6.12259,27.0918 -11.03241,50.0663 -25.75,120.5 -39.23596,187.77016 -64.28776,287.35266 -101.79882,404.64646 -86.24692,269.6866 -220.4244203,528.29238 -408.51563,787.35352 -9.38419,12.92499 -39.20461,53.07183 -66.26758,89.2129 -27.06307,36.14116 -50.94838,69.3908 -51.86328,70.7871 -0.915,1.39639 -0.3677,0 0,0 1.3245,0 135.27022,-80.49353 153.2168,-92.07421 C -58.397814,192.38983 66.03267,95.22497 170.77539,0 c 336.80995,-306.20474 573.92996,-660.43514 689.62695,-1030.041 4.13205,-13.2003 11.54727,-38.175 16.47657,-55.5 10.69909,-37.604 13.99017,-46.8374 23.50976,-65.9609 11.61089,-23.3244 23.49373,-40.8172 40.66211,-59.8633 19.41638,-21.5399 37.6238,-35.6408 75.22462,-58.2598 207.6316,-124.9017 376.1534,-278.0379 495.125,-449.916 56.7304,-81.9584 103.9175,-173.614 135.1406,-262.5 18.7336,-53.3306 46.9317,-138.1347 46.9317,-138.1347 0,0 -23.6695,24.3812 -51.9668,54.8105 -50.5995,54.4114 -62.3576,66.4533 -88.2305,90.3574 -68.4929,63.2813 -155.0329,129.5525 -238.5,182.6407 -208.8648,132.8456 -427.91822,210.3216 -642.50001,227.2421 -164.32004,12.9573 -328.78996,-9.645 -487,-66.9257 -181.5243201,-65.722 -357.89601,-176.7085 -527.46484,-331.92 -25.51798,-23.3572 -36.0933,-33.5735 -102.33203,-98.8828 -33.98747,-33.5105 -62.28125,-60.4433 -62.28125,-60.4433 z"
       sodipodi:nodetypes="ssssssssssscsssscssssssssscsssssssscsssssssc" />
  </g>
</svg>
