<?xml version="1.0" encoding="UTF-8" standalone="no"?>
<!-- Created with Inkscape (http://www.inkscape.org/) -->

<svg
   version="1.1"
   id="svg1"
   width="1108.4659"
   height="261.24698"
   viewBox="0 0 1108.4659 261.24698"
   sodipodi:docname="logo.svg"
   inkscape:version="1.3 (0e150ed6c4, 2023-07-21)"
   inkscape:export-filename="logo.png"
   inkscape:export-xdpi="88.684731"
   inkscape:export-ydpi="88.684731"
   xmlns:inkscape="http://www.inkscape.org/namespaces/inkscape"
   xmlns:sodipodi="http://sodipodi.sourceforge.net/DTD/sodipodi-0.dtd"
   xmlns="http://www.w3.org/2000/svg"
   xmlns:svg="http://www.w3.org/2000/svg">
  <defs
     id="defs1" />
  <sodipodi:namedview
     id="namedview1"
     pagecolor="#ffffff"
     bordercolor="#666666"
     borderopacity="1.0"
     inkscape:showpageshadow="2"
     inkscape:pageopacity="0.0"
     inkscape:pagecheckerboard="0"
     inkscape:deskcolor="#d1d1d1"
     inkscape:zoom="0.79779543"
     inkscape:cx="1151.2976"
     inkscape:cy="660.57034"
     inkscape:window-width="1914"
     inkscape:window-height="2126"
     inkscape:window-x="3840"
     inkscape:window-y="0"
     inkscape:window-maximized="1"
     inkscape:current-layer="g1" />
  <g
     inkscape:groupmode="layer"
     inkscape:label="Image"
     id="g1"
     transform="translate(-98.79733,-304.41346)">
    <path
       style="fill:#000000"
       d="m 159.20742,541.78272 c -18.83302,-2.60705 -34.84377,-12.65195 -46.14604,-28.95131 -13.863941,-19.99363 -18.092931,-49.79859 -10.60193,-74.72 7.85782,-26.14174 26.09238,-44.759 49.66236,-50.70463 7.58386,-1.91307 18.42177,-2.4345 27.08561,-1.30315 12.52622,1.63572 23.80363,6.36663 32.61382,13.68162 3.71184,3.0819 9.1914,8.66987 9.04714,9.22614 -0.0985,0.38 -16.87934,22.63586 -18.18172,24.11387 -0.147,0.16682 -1.40457,-0.8036 -2.90909,-2.24483 -8.68676,-8.32137 -17.14275,-12.93715 -26.01015,-14.19787 -21.64808,-3.07781 -39.87997,12.9914 -43.54116,38.37628 -0.75323,5.22253 -0.51186,15.41173 0.48142,20.32283 1.46058,7.22159 4.03054,13.49057 7.93227,19.34944 5.30895,7.97195 12.5619,13.32343 21.16943,15.61954 2.75899,0.73597 3.67508,0.82149 8.83804,0.82499 6.48652,0.004 10.10148,-0.59863 14.56,-2.42884 4.9534,-2.03335 11.06282,-6.33735 16.88153,-11.89281 l 3.35137,-3.19974 0.84355,0.96101 c 10.06963,11.47184 17.50235,20.10101 17.57209,20.40068 0.12442,0.53465 -4.30381,5.51913 -8.38357,9.43665 -9.58689,9.20566 -19.82559,14.46639 -32.50497,16.70133 -3.21838,0.56728 -5.53198,0.72574 -11.84,0.8109 -4.312,0.0582 -8.776,-0.0237 -9.92,-0.1821 z m 563.99998,-0.008 c -23.09145,-1.91304 -39.7514,-14.45405 -46.98499,-35.36858 -2.26879,-6.55978 -3.7242,-14.13579 -4.35973,-22.69429 -0.20758,-2.79542 -0.33317,-21.59657 -0.33398,-50 l -10e-4,-45.52 h 14.72 14.72 v 43.63353 c 0,44.95906 0.0926,48.85739 1.31037,55.16776 2.48242,12.8636 9.91641,21.19836 20.94529,23.4832 2.67139,0.55343 3.93178,0.63298 7.82434,0.49383 5.44486,-0.19463 7.67403,-0.69549 11.68,-2.62434 8.19676,-3.94668 12.9984,-11.26578 15.11126,-23.03398 0.45698,-2.54528 0.53066,-8.35643 0.63395,-50 l 0.11687,-47.12 h 14.70896 14.70896 v 45.37603 c 0,28.51287 -0.12396,46.97553 -0.33355,49.68 -2.62491,33.87121 -19.5406,54.2668 -48.14645,58.05117 -4.69916,0.62166 -11.99206,0.83423 -16.32,0.47567 z M 234.08742,463.87141 v -75.68 h 14.72 14.72 v 60.64 60.64 h 33.28 33.27999 v 15.04 15.04 h -47.99999 -48 z m 107.83999,0 v -75.68 h 14.72 14.72 v 75.68 75.68 h -14.72 -14.72 z m 51.2,-0.003 v -75.68296 l 16.04618,0.083 16.04617,0.083 14.9882,27.36 c 21.89275,39.96383 19.8354,36.34549 20.24631,35.60781 0.19422,-0.34869 8.05714,-14.69282 17.47314,-31.87585 l 17.12,-31.24186 15.92,-0.005 15.92,-0.005 v 75.68 75.68 h -14.55899 -14.55898 l -0.081,-49.13201 -0.081,-49.13202 -18.56,32 c -12.70706,21.90872 -18.72782,32.00378 -19.09218,32.01201 -0.36299,0.008 -2.02604,-2.55672 -5.23114,-8.06798 -2.58443,-4.444 -10.84095,-18.65457 -18.34782,-31.57905 l -13.64886,-23.49905 -0.081,48.69905 -0.081,48.69905 h -14.71897 -14.71898 z m 154.24,0.003 v -75.68 h 33.95893 c 29.10675,0 34.44488,0.0714 37.35999,0.49943 10.59504,1.55583 18.22982,5.17697 24.60368,11.66943 6.75476,6.88046 9.99574,15.64627 9.99422,27.03114 -7e-4,5.18892 -0.57919,9.50856 -1.75271,13.08766 -2.72769,8.31909 -6.79297,13.7488 -14.41833,19.25754 l -0.92079,0.66521 2.47062,1.18832 c 7.97936,3.83792 15.08412,10.41122 18.37583,17.00127 5.02193,10.05397 5.01827,27.42131 -0.008,38.03189 -2.00245,4.22721 -3.71861,6.64768 -7.07298,9.97576 -5.85972,5.81377 -13.29054,9.48631 -23.23047,11.48119 -7.02174,1.40922 -8.91622,1.47116 -44.9939,1.47116 h -34.36609 z m 70.62394,45.73663 c 5.1254,-1.05868 8.8165,-3.11753 10.96294,-6.11501 2.05614,-2.87137 2.41311,-4.33272 2.41311,-9.87878 v -4.81715 l -1.21699,-2.46185 c -2.143,-4.33508 -5.29954,-6.7261 -10.94301,-8.28912 -2.49642,-0.69142 -3.06268,-0.71177 -22.8,-0.81935 l -20.24,-0.11032 v 16.49747 16.49748 h 19.69349 c 16.66552,0 20.06819,-0.0774 22.13046,-0.50337 z m -6.39021,-61.1958 c 6.80614,-1.77834 10.71505,-5.13671 12.11989,-10.41289 0.58865,-2.21081 0.56534,-7.29671 -0.0442,-9.63675 -1.05646,-4.05605 -3.49599,-6.9721 -7.38585,-8.82855 -4.04563,-1.93081 -4.72014,-1.99281 -23.24362,-2.13668 l -16.88,-0.13111 v 16.04568 16.04568 l 16.4,-0.12861 c 15.52243,-0.12173 16.54094,-0.16544 19.03374,-0.81677 z m 194.64625,15.45917 v -75.68 h 29.05217 c 30.94022,0 32.45443,0.0617 39.58783,1.61171 14.47977,3.14639 28.04935,11.4336 37.44482,22.86829 8.65091,10.52853 14.05614,23.0498 16.36946,37.92 0.71907,4.62225 0.82638,20.25158 0.17029,24.8 -2.25497,15.63261 -8.00927,29.25064 -16.76679,39.68 -9.82891,11.70529 -23.48516,19.92341 -38.261,23.0249 -6.50567,1.36556 -8.89732,1.4551 -38.86722,1.4551 h -28.72956 z m 57.44,45.24666 c 11.42952,-1.39511 20.70412,-6.98621 26.81463,-16.16492 5.99703,-9.00823 8.58851,-18.95696 8.11713,-31.16174 -0.26994,-6.98924 -1.33773,-12.51201 -3.45158,-17.85206 -4.04396,-10.21592 -10.61342,-17.64535 -19.30818,-21.83566 -6.96461,-3.35651 -10.28405,-3.82795 -26.96982,-3.83039 l -12.87783,-0.002 -0.0822,45.60001 -0.0822,45.60001 12.48,-9.1e-4 c 7.0991,-5.2e-4 13.72175,-0.15248 15.36,-0.35245 z m 80.48,-45.24666 v -75.68 h 29.09064 c 32.23377,0 33.12547,0.0449 41.14937,2.0699 16.8089,4.24223 30.9204,14.35222 40.489,29.00787 3.3896,5.19166 6.8987,12.88116 8.8966,19.4955 2.7131,8.98192 3.982,20.87273 3.2799,30.73526 -0.8469,11.89696 -3.337,21.59001 -8.0076,31.17147 -3.7766,7.74749 -7.926,13.48092 -14.1438,19.5434 -11.1076,10.83015 -24.9358,17.29143 -40.6615,18.99915 -1.9412,0.21081 -13.80077,0.33745 -31.6,0.33745 h -28.49261 z m 60.48001,44.8164 c 7.8781,-1.79069 13.82,-4.95168 18.9076,-10.05841 6.8047,-6.83038 11.1413,-16.32623 12.4724,-27.31117 0.5642,-4.65622 0.2369,-14.26209 -0.6333,-18.58265 -3.8018,-18.87729 -15.9557,-31.49781 -32.7078,-33.96356 -2.645,-0.38931 -6.25537,-0.50061 -16.23997,-0.50061 h -12.83894 v 45.63032 45.63031 l 14.32004,-0.14935 c 11.9554,-0.1247 14.71617,-0.23943 16.71997,-0.69488 z"
       id="path1"
       sodipodi:nodetypes="cssssscssssssscsscssssscsssccccssssssscccsssssccccccccccccccccccccccccccssscccccccccscssccccccccscsssscssssssccssscssscccssssssscccsssccssssssssccsssssscccsssccsssssssssccssscsscccss" />
    <path
       style="fill:#000000"
       d="m 1029.074,565.59008 c -10.2963,-0.30779 -31.95406,-2.43378 -33.52866,-3.29126 -0.2248,-0.1224 0.9272,-0.41071 2.56,-0.64069 6.34806,-0.89413 15.96016,-3.58425 23.76866,-6.65206 23.5893,-9.26784 42.7604,-21.84147 54.983,-42.46738 2.3192,-3.91366 6.7945,-13.01972 8.3353,-16.96007 4.2337,-10.82747 5.7367,-25.13126 5.7367,-37.62721 0,-7.76195 -0.4354,-12.25781 -1.8757,-19.36998 -3.4029,-16.8034 -12.4274,-34.45205 -25.0846,-49.05627 -2.949,-3.40266 -2.1543,-2.95296 2.8653,1.62133 10.42,9.49573 21.4777,22.80173 33.046,39.76492 5.555,8.1457 7.7991,10.961 12.3771,15.52793 7.0381,7.02111 14.1842,11.46854 21.6462,13.47168 3.6411,0.97745 9.5973,0.99279 12.9808,0.0334 3.4251,-0.97114 5.6516,-2.01325 8.4824,-3.97016 11.3577,-7.85159 19.9478,-25.2948 25.3436,-51.46289 4.0118,-19.45641 4.9841,-42.81566 2.7436,-65.92 -0.9697,-10.00039 -3.3189,-24.25952 -5.2191,-31.68 -0.3381,-1.32 -0.575,-2.44249 -0.5266,-2.49443 0.1458,-0.15628 3.4426,4.97762 5.6044,8.7274 11.0186,19.11266 18.9136,41.98722 22.2572,64.48703 1.4644,9.85395 1.8323,16.05912 1.651,27.84 -0.2137,13.87897 -1.2893,22.9458 -4.2442,35.77665 -5.1903,22.53766 -19.4404,48.91195 -37.2934,69.02335 -3.6116,4.06848 -11.3807,11.79321 -15.3291,15.24141 -22.7536,19.87152 -52.2433,33.21427 -83.6799,37.86143 -11.2426,1.66194 -26.3488,2.55218 -37.6,2.21583 z m 104.1599,-126.72981 c -14.2488,-3.04678 -23.1589,-17.58245 -19.3271,-31.53001 2.3864,-8.68639 8.7227,-15.14604 17.5671,-17.90908 2.0536,-0.64154 3.0698,-0.74977 7.04,-0.74977 3.9739,0 4.9829,0.10765 7.028,0.74985 5.1553,1.61883 9.3639,4.36442 12.4821,8.14298 8.4873,10.28461 7.8459,25.04092 -1.4939,34.36856 -6.0108,6.00306 -15.0494,8.69083 -23.2962,6.92747 z"
       id="path2"
       sodipodi:nodetypes="sssssssssssssssssssssssscsssssssssss" />
  </g>
</svg>
